{"glyphs":{"0":{"ha":829,"x_min":67,"x_max":765,"o":"m 406 -15 q 144 106 221 -15 q 67 453 67 226 q 156 797 67 674 q 431 921 244 921 q 690 801 614 921 q 765 453 765 681 q 678 108 765 231 q 406 -15 592 -15 m 417 76 q 572 168 529 76 q 614 453 614 260 q 572 737 614 646 q 417 828 529 828 q 262 737 304 828 q 219 453 219 646 q 262 168 219 260 q 417 76 304 76 z "},"1":{"ha":558,"x_min":61,"x_max":532,"o":"m 74 0 l 74 75 l 233 92 l 233 794 l 61 794 l 61 872 l 296 914 l 371 914 l 371 92 l 532 75 l 532 0 l 74 0 z "},"2":{"ha":686,"x_min":40,"x_max":658,"o":"m 40 82 l 311 365 q 436 523 399 457 q 474 663 474 589 q 438 782 474 746 q 304 818 401 818 q 161 793 218 818 l 136 657 l 60 657 l 60 868 q 167 903 100 888 q 310 919 233 919 q 547 860 472 919 q 622 675 622 801 q 599 558 622 613 q 525 442 575 503 q 382 289 475 381 l 213 122 l 213 114 l 551 114 l 582 238 l 658 238 l 658 0 l 40 0 l 40 82 z "},"3":{"ha":631,"x_min":28,"x_max":615,"o":"m 279 -17 q 135 3 203 -17 q 28 49 67 24 l 39 242 l 122 242 l 136 125 q 276 82 208 82 q 421 123 375 82 q 467 257 467 164 q 408 385 467 347 q 247 424 350 424 l 183 424 l 161 467 l 161 519 l 229 519 q 372 561 313 519 q 431 678 431 603 q 394 785 431 751 q 269 818 358 818 q 198 812 225 818 q 146 797 171 806 l 133 678 l 54 678 l 42 875 q 289 919 154 919 q 499 867 433 919 q 564 714 564 815 q 519 581 564 635 q 411 500 475 526 l 407 496 q 555 423 494 476 q 615 267 615 369 q 522 55 615 126 q 279 -17 428 -17 z "},"4":{"ha":685,"x_min":-6,"x_max":657,"o":"m 285 0 l 285 67 l 400 89 l 400 244 l 35 244 l -6 322 l 444 946 l 535 911 l 535 346 l 657 346 l 657 244 l 535 244 l 535 89 l 650 67 l 650 0 l 285 0 m 135 346 l 400 346 l 400 710 l 401 732 l 399 736 l 389 714 l 132 356 l 135 346 z "},"5":{"ha":625,"x_min":28,"x_max":608,"o":"m 279 -17 q 28 43 125 -17 l 39 243 l 119 243 l 133 111 q 170 93 136 110 q 283 76 204 76 q 419 128 376 76 q 461 276 461 179 q 402 423 461 375 q 204 471 343 471 l 63 471 l 63 900 l 558 900 l 558 779 l 154 779 l 154 568 l 239 568 q 517 505 426 568 q 608 301 608 442 q 520 68 608 153 q 279 -17 432 -17 z "},"6":{"ha":725,"x_min":63,"x_max":676,"o":"m 358 -17 q 136 74 210 -17 q 63 349 63 165 q 128 649 63 522 q 320 844 194 775 q 621 917 446 913 l 621 854 q 333 741 435 835 q 222 490 231 647 q 322 540 268 522 q 433 557 376 557 q 610 486 543 557 q 676 300 676 415 q 637 134 676 206 q 525 23 597 63 q 358 -17 453 -17 m 378 78 q 492 126 456 78 q 529 278 529 175 q 488 403 529 361 q 369 446 447 446 q 221 424 294 446 l 221 378 q 236 200 221 265 q 285 106 251 135 q 378 78 318 78 z "},"7":{"ha":611,"x_min":29,"x_max":618,"o":"m 117 0 l 117 64 l 497 753 l 497 779 l 138 779 l 125 671 l 42 671 l 29 900 l 618 900 l 618 779 l 236 0 l 117 0 z "},"8":{"ha":683,"x_min":58,"x_max":642,"o":"m 338 -15 q 130 40 201 -15 q 58 197 58 96 q 104 338 58 272 q 222 447 150 404 q 78 669 78 529 q 114 800 78 743 q 214 889 150 857 q 356 921 278 921 q 543 863 476 921 q 610 710 610 806 q 573 580 610 638 q 475 486 536 522 q 599 388 557 442 q 642 250 642 333 q 608 120 642 181 q 506 22 575 60 q 338 -15 438 -15 m 408 518 q 488 688 488 585 q 453 790 488 758 q 344 821 419 821 q 210 704 210 821 q 241 614 210 649 q 350 544 272 579 q 383 529 368 536 q 408 518 397 522 m 351 74 q 507 225 507 74 q 464 324 507 285 q 321 401 421 363 l 286 417 q 193 231 193 336 q 231 113 193 153 q 351 74 268 74 z "},"9":{"ha":689,"x_min":33,"x_max":649,"o":"m 219 -11 q 138 -7 167 -11 q 106 -3 110 -3 l 106 60 q 334 93 251 60 q 453 201 417 126 q 494 408 490 276 q 417 368 467 389 q 292 347 368 347 q 104 418 175 347 q 33 613 33 489 q 74 781 33 711 q 181 885 114 850 q 329 919 247 919 q 570 821 492 919 q 649 494 649 722 q 536 113 649 236 q 219 -11 424 -11 m 354 456 q 456 469 419 456 q 494 483 493 483 q 486 672 496 601 q 440 783 476 742 q 328 825 404 825 q 214 778 246 825 q 182 628 182 731 q 231 495 182 535 q 354 456 279 456 z "},"\u0000":{"ha":0,"x_min":0,"x_max":0,"o":""},"\r":{"ha":267,"x_min":0,"x_max":0,"o":""}," ":{"ha":267,"x_min":0,"x_max":0,"o":""},"A":{"ha":864,"x_min":-12,"x_max":878,"o":"m -12 65 l 76 86 l 375 908 l 472 908 l 786 86 l 878 65 l 878 0 l 517 0 l 517 65 l 619 86 l 615 114 l 563 256 l 244 256 l 194 113 l 192 86 l 300 65 l 300 0 l -12 0 l -12 65 m 533 344 l 410 683 l 404 704 l 400 708 l 393 681 l 275 344 l 533 344 z "},"Á":{"ha":864,"x_min":-12,"x_max":878,"o":"m 468 1133 q 489 1147 475 1138 q 513 1160 503 1156 q 531 1164 522 1164 q 578 1134 561 1164 q 593 1054 594 1104 l 314 942 l 282 997 l 468 1133 m -12 65 l 76 86 l 375 908 l 472 908 l 786 86 l 878 65 l 878 0 l 517 0 l 517 65 l 619 86 l 615 114 l 563 256 l 244 256 l 194 113 l 192 86 l 300 65 l 300 0 l -12 0 l -12 65 m 533 344 l 410 683 l 404 704 l 400 708 l 393 681 l 275 344 l 533 344 z "},"Ă":{"ha":864,"x_min":-12,"x_max":878,"o":"m 311 1153 q 326 1125 311 1149 q 369 1081 340 1101 q 443 1061 399 1061 q 528 1081 493 1061 q 581 1123 563 1100 q 599 1150 599 1146 l 647 1129 q 626 1078 647 1121 q 558 999 604 1036 q 440 963 513 963 q 308 997 357 963 q 241 1068 260 1031 q 222 1117 222 1106 l 311 1153 m -12 65 l 76 86 l 375 908 l 472 908 l 786 86 l 878 65 l 878 0 l 517 0 l 517 65 l 619 86 l 615 114 l 563 256 l 244 256 l 194 113 l 192 86 l 300 65 l 300 0 l -12 0 l -12 65 m 533 344 l 410 683 l 404 704 l 400 708 l 393 681 l 275 344 l 533 344 z "},"Ắ":{"ha":864,"x_min":-12,"x_max":878,"o":"m 0 0 m -12 65 l 76 86 l 375 908 l 472 908 l 786 86 l 878 65 l 878 0 l 517 0 l 517 65 l 619 86 l 615 114 l 563 256 l 244 256 l 194 113 l 192 86 l 300 65 l 300 0 l -12 0 l -12 65 m 533 344 l 410 683 l 404 704 l 400 708 l 393 681 l 275 344 l 533 344 m 299 1153 q 313 1125 299 1149 q 356 1081 328 1101 q 429 1061 385 1061 q 514 1081 479 1061 q 567 1123 549 1100 q 585 1150 585 1146 l 633 1129 q 612 1078 633 1121 q 544 999 590 1036 q 426 963 499 963 q 294 997 343 963 q 227 1068 246 1031 q 208 1117 208 1106 l 299 1153 m 336 1194 l 524 1331 q 542 1342 528 1333 q 567 1356 556 1351 q 586 1361 578 1361 q 632 1331 615 1361 q 647 1251 649 1301 l 368 1139 l 336 1194 z "},"Ặ":{"ha":864,"x_min":-12,"x_max":878,"o":"m 0 0 m -12 65 l 76 86 l 375 908 l 472 908 l 786 86 l 878 65 l 878 0 l 517 0 l 517 65 l 619 86 l 615 114 l 563 256 l 244 256 l 194 113 l 192 86 l 300 65 l 300 0 l -12 0 l -12 65 m 533 344 l 410 683 l 404 704 l 400 708 l 393 681 l 275 344 l 533 344 m 426 -253 q 364 -227 388 -253 q 340 -160 340 -201 q 367 -90 340 -119 q 435 -60 394 -60 q 498 -84 474 -60 q 522 -150 522 -108 q 496 -223 522 -193 q 426 -253 469 -253 m 308 1153 q 323 1125 308 1149 q 366 1081 338 1101 q 439 1061 394 1061 q 524 1081 489 1061 q 576 1123 558 1100 q 594 1150 594 1146 l 643 1129 q 622 1078 643 1121 q 554 999 600 1036 q 436 963 508 963 q 304 997 353 963 q 237 1068 256 1031 q 218 1117 218 1106 l 308 1153 z "},"Ằ":{"ha":864,"x_min":-12,"x_max":878,"o":"m 0 0 m -12 65 l 76 86 l 375 908 l 472 908 l 786 86 l 878 65 l 878 0 l 517 0 l 517 65 l 619 86 l 615 114 l 563 256 l 244 256 l 194 113 l 192 86 l 300 65 l 300 0 l -12 0 l -12 65 m 533 344 l 410 683 l 404 704 l 400 708 l 393 681 l 275 344 l 533 344 m 310 1153 q 324 1125 310 1149 q 367 1081 339 1101 q 440 1061 396 1061 q 525 1081 490 1061 q 578 1123 560 1100 q 596 1150 596 1146 l 644 1129 q 623 1078 644 1121 q 556 999 601 1036 q 438 963 510 963 q 306 997 354 963 q 238 1068 257 1031 q 219 1117 219 1106 l 310 1153 m 226 1251 q 242 1331 225 1301 q 288 1361 258 1361 q 316 1351 299 1361 q 350 1331 333 1342 l 538 1194 l 506 1139 l 226 1251 z "},"Ẳ":{"ha":864,"x_min":-12,"x_max":878,"o":"m 0 0 m -12 65 l 76 86 l 375 908 l 472 908 l 786 86 l 878 65 l 878 0 l 517 0 l 517 65 l 619 86 l 615 114 l 563 256 l 244 256 l 194 113 l 192 86 l 300 65 l 300 0 l -12 0 l -12 65 m 533 344 l 410 683 l 404 704 l 400 708 l 393 681 l 275 344 l 533 344 m 308 1153 q 323 1125 308 1149 q 366 1081 338 1101 q 439 1061 394 1061 q 524 1081 489 1061 q 576 1123 558 1100 q 594 1150 594 1146 l 643 1129 q 622 1078 643 1121 q 554 999 600 1036 q 436 963 508 963 q 304 997 353 963 q 237 1068 256 1031 q 218 1117 218 1106 l 308 1153 m 393 1121 q 383 1150 383 1136 q 396 1177 383 1165 q 436 1201 408 1189 q 470 1222 460 1211 q 481 1247 481 1232 q 418 1275 481 1275 q 333 1264 378 1275 q 317 1311 317 1290 q 336 1344 317 1333 q 408 1356 356 1356 q 540 1330 493 1356 q 588 1254 588 1304 q 511 1164 588 1193 q 476 1146 485 1154 q 471 1124 468 1138 l 393 1121 z "},"Ẵ":{"ha":864,"x_min":-12,"x_max":878,"o":"m 538 1189 q 444 1206 504 1189 l 326 1243 l 219 1194 l 181 1232 l 231 1297 q 274 1333 250 1322 q 326 1343 297 1343 q 418 1326 361 1343 l 538 1289 l 644 1338 l 683 1300 l 632 1235 q 538 1189 599 1189 m 306 1153 q 320 1125 306 1149 q 363 1081 335 1101 q 436 1061 392 1061 q 521 1081 486 1061 q 574 1123 556 1100 q 592 1150 592 1146 l 640 1129 q 619 1078 640 1121 q 551 999 597 1036 q 433 963 506 963 q 301 997 350 963 q 234 1068 253 1031 q 215 1117 215 1106 l 306 1153 m -12 65 l 76 86 l 375 908 l 472 908 l 786 86 l 878 65 l 878 0 l 517 0 l 517 65 l 619 86 l 615 114 l 563 256 l 244 256 l 194 113 l 192 86 l 300 65 l 300 0 l -12 0 l -12 65 m 533 344 l 410 683 l 404 704 l 400 708 l 393 681 l 275 344 l 533 344 z "},"Ǎ":{"ha":864,"x_min":-12,"x_max":878,"o":"m 0 0 m -12 65 l 76 86 l 375 908 l 472 908 l 786 86 l 878 65 l 878 0 l 517 0 l 517 65 l 619 86 l 615 114 l 563 256 l 244 256 l 194 113 l 192 86 l 300 65 l 300 0 l -12 0 l -12 65 m 533 344 l 410 683 l 404 704 l 400 708 l 393 681 l 275 344 l 533 344 m 436 1074 l 617 1161 l 653 1108 l 526 1004 l 494 978 q 454 948 468 957 q 429 939 440 939 q 403 949 417 939 q 358 983 389 958 q 333 1004 347 994 l 210 1101 l 256 1163 l 436 1074 z "},"Â":{"ha":864,"x_min":-12,"x_max":878,"o":"m 328 1097 q 396 1151 379 1139 q 424 1163 413 1163 q 452 1152 436 1163 q 494 1118 468 1142 l 519 1097 l 642 1000 l 597 939 l 417 1028 l 235 940 l 200 993 l 328 1097 m -12 65 l 76 86 l 375 908 l 472 908 l 786 86 l 878 65 l 878 0 l 517 0 l 517 65 l 619 86 l 615 114 l 563 256 l 244 256 l 194 113 l 192 86 l 300 65 l 300 0 l -12 0 l -12 65 m 533 344 l 410 683 l 404 704 l 400 708 l 393 681 l 275 344 l 533 344 z "},"Ấ":{"ha":864,"x_min":-12,"x_max":878,"o":"m 0 0 m -12 65 l 76 86 l 375 908 l 472 908 l 786 86 l 878 65 l 878 0 l 517 0 l 517 65 l 619 86 l 615 114 l 563 256 l 244 256 l 194 113 l 192 86 l 300 65 l 300 0 l -12 0 l -12 65 m 533 344 l 410 683 l 404 704 l 400 708 l 393 681 l 275 344 l 533 344 m 336 1097 l 360 1115 q 405 1150 388 1138 q 432 1163 422 1163 q 460 1152 444 1163 q 503 1118 476 1142 l 528 1097 l 650 1000 l 606 939 l 425 1028 l 244 940 l 208 993 l 336 1097 m 496 1182 l 683 1318 q 701 1330 688 1321 q 726 1344 715 1339 q 746 1349 738 1349 q 792 1319 775 1349 q 807 1239 808 1289 l 528 1126 l 496 1182 z "},"Ậ":{"ha":864,"x_min":-12,"x_max":878,"o":"m 0 0 m -12 65 l 76 86 l 375 908 l 472 908 l 786 86 l 878 65 l 878 0 l 517 0 l 517 65 l 619 86 l 615 114 l 563 256 l 244 256 l 194 113 l 192 86 l 300 65 l 300 0 l -12 0 l -12 65 m 533 344 l 410 683 l 404 704 l 400 708 l 393 681 l 275 344 l 533 344 m 426 -253 q 364 -227 388 -253 q 340 -160 340 -201 q 367 -90 340 -119 q 435 -60 394 -60 q 498 -84 474 -60 q 522 -150 522 -108 q 496 -223 522 -193 q 426 -253 469 -253 m 339 1097 l 363 1115 q 408 1150 390 1138 q 435 1163 425 1163 q 463 1152 447 1163 q 506 1118 479 1142 l 531 1097 l 653 1000 l 608 939 l 428 1028 l 247 940 l 211 993 l 339 1097 z "},"Ầ":{"ha":864,"x_min":-12,"x_max":878,"o":"m 0 0 m -12 65 l 76 86 l 375 908 l 472 908 l 786 86 l 878 65 l 878 0 l 517 0 l 517 65 l 619 86 l 615 114 l 563 256 l 244 256 l 194 113 l 192 86 l 300 65 l 300 0 l -12 0 l -12 65 m 533 344 l 410 683 l 404 704 l 400 708 l 393 681 l 275 344 l 533 344 m 335 1097 l 358 1115 q 403 1150 386 1138 q 431 1163 421 1163 q 459 1152 443 1163 q 501 1118 475 1142 l 526 1097 l 649 1000 l 604 939 l 424 1028 l 243 940 l 207 993 l 335 1097 m 406 1239 q 421 1319 404 1289 q 467 1349 438 1349 q 495 1339 478 1349 q 529 1318 513 1329 l 717 1182 l 685 1126 l 406 1239 z "},"Ẩ":{"ha":864,"x_min":-12,"x_max":878,"o":"m 0 0 m -12 65 l 76 86 l 375 908 l 472 908 l 786 86 l 878 65 l 878 0 l 517 0 l 517 65 l 619 86 l 615 114 l 563 256 l 244 256 l 194 113 l 192 86 l 300 65 l 300 0 l -12 0 l -12 65 m 533 344 l 410 683 l 404 704 l 400 708 l 393 681 l 275 344 l 533 344 m 328 1097 l 351 1115 q 397 1150 379 1138 q 424 1163 414 1163 q 452 1152 436 1163 q 494 1118 468 1142 l 519 1097 l 642 1000 l 597 939 l 417 1028 l 236 940 l 200 993 l 328 1097 m 553 1107 q 543 1136 543 1122 q 556 1163 543 1151 q 596 1188 568 1175 q 630 1208 619 1197 q 640 1233 640 1218 q 578 1261 640 1261 q 493 1250 538 1261 q 476 1297 476 1276 q 496 1331 476 1319 q 568 1342 515 1342 q 700 1316 653 1342 q 747 1240 747 1290 q 671 1150 747 1179 q 636 1132 644 1140 q 631 1110 628 1124 l 553 1107 z "},"Ẫ":{"ha":864,"x_min":-12,"x_max":878,"o":"m 538 1199 q 444 1215 504 1199 l 326 1253 l 219 1204 l 181 1242 l 231 1307 q 274 1342 250 1332 q 326 1353 297 1353 q 418 1336 361 1353 l 538 1299 l 644 1347 l 683 1310 l 632 1244 q 538 1199 599 1199 m 336 1097 l 360 1115 q 405 1150 388 1138 q 432 1163 422 1163 q 460 1152 444 1163 q 503 1118 476 1142 l 528 1097 l 650 1000 l 606 939 l 425 1028 l 244 940 l 208 993 l 336 1097 m -12 65 l 76 86 l 375 908 l 472 908 l 786 86 l 878 65 l 878 0 l 517 0 l 517 65 l 619 86 l 615 114 l 563 256 l 244 256 l 194 113 l 192 86 l 300 65 l 300 0 l -12 0 l -12 65 m 533 344 l 410 683 l 404 704 l 400 708 l 393 681 l 275 344 l 533 344 z "},"Ȁ":{"ha":864,"x_min":-12,"x_max":878,"o":"m 0 0 m -12 65 l 76 86 l 375 908 l 472 908 l 786 86 l 878 65 l 878 0 l 517 0 l 517 65 l 619 86 l 615 114 l 563 256 l 244 256 l 194 113 l 192 86 l 300 65 l 300 0 l -12 0 l -12 65 m 533 344 l 410 683 l 404 704 l 400 708 l 393 681 l 275 344 l 533 344 m 89 1082 q 116 1148 97 1125 q 157 1171 135 1171 q 188 1160 174 1171 q 222 1126 203 1150 l 340 981 l 299 938 l 89 1082 m 346 1082 q 374 1148 356 1125 q 414 1171 392 1171 q 447 1160 432 1171 q 481 1126 461 1150 l 599 981 l 557 938 l 346 1082 z "},"Ä":{"ha":864,"x_min":-12,"x_max":878,"o":"m 265 957 q 208 981 231 957 q 186 1042 186 1004 q 211 1106 186 1079 q 272 1133 236 1133 q 330 1111 308 1133 q 351 1050 351 1089 q 328 984 351 1011 q 265 957 304 957 m 572 957 q 516 981 538 957 q 494 1042 494 1004 q 519 1106 494 1079 q 579 1133 543 1133 q 637 1111 615 1133 q 658 1050 658 1089 q 635 984 658 1011 q 572 957 611 957 m -12 65 l 76 86 l 375 908 l 472 908 l 786 86 l 878 65 l 878 0 l 517 0 l 517 65 l 619 86 l 615 114 l 563 256 l 244 256 l 194 113 l 192 86 l 300 65 l 300 0 l -12 0 l -12 65 m 533 344 l 410 683 l 404 704 l 400 708 l 393 681 l 275 344 l 533 344 z "},"Ạ":{"ha":864,"x_min":-12,"x_max":878,"o":"m 0 0 m -12 65 l 76 86 l 375 908 l 472 908 l 786 86 l 878 65 l 878 0 l 517 0 l 517 65 l 619 86 l 615 114 l 563 256 l 244 256 l 194 113 l 192 86 l 300 65 l 300 0 l -12 0 l -12 65 m 533 344 l 410 683 l 404 704 l 400 708 l 393 681 l 275 344 l 533 344 m 426 -253 q 364 -227 388 -253 q 340 -160 340 -201 q 367 -90 340 -119 q 435 -60 394 -60 q 498 -84 474 -60 q 522 -150 522 -108 q 496 -223 522 -193 q 426 -253 469 -253 z "},"À":{"ha":864,"x_min":-12,"x_max":878,"o":"m 240 1054 q 256 1134 239 1104 q 301 1164 272 1164 q 330 1154 313 1164 q 364 1133 347 1144 l 551 997 l 519 942 l 240 1054 m -12 65 l 76 86 l 375 908 l 472 908 l 786 86 l 878 65 l 878 0 l 517 0 l 517 65 l 619 86 l 615 114 l 563 256 l 244 256 l 194 113 l 192 86 l 300 65 l 300 0 l -12 0 l -12 65 m 533 344 l 410 683 l 404 704 l 400 708 l 393 681 l 275 344 l 533 344 z "},"Ả":{"ha":864,"x_min":-12,"x_max":878,"o":"m 0 0 m -12 65 l 76 86 l 375 908 l 472 908 l 786 86 l 878 65 l 878 0 l 517 0 l 517 65 l 619 86 l 615 114 l 563 256 l 244 256 l 194 113 l 192 86 l 300 65 l 300 0 l -12 0 l -12 65 m 533 344 l 410 683 l 404 704 l 400 708 l 393 681 l 275 344 l 533 344 m 390 938 q 381 967 381 953 q 393 994 381 982 q 433 1018 406 1006 q 467 1038 457 1028 q 478 1064 478 1049 q 415 1092 478 1092 q 331 1081 375 1092 q 314 1128 314 1107 q 333 1161 314 1150 q 406 1172 353 1172 q 538 1147 490 1172 q 585 1071 585 1121 q 508 981 585 1010 q 474 963 482 971 q 468 940 465 954 l 390 938 z "},"Ȃ":{"ha":864,"x_min":-12,"x_max":878,"o":"m 0 0 m -12 65 l 76 86 l 375 908 l 472 908 l 786 86 l 878 65 l 878 0 l 517 0 l 517 65 l 619 86 l 615 114 l 563 256 l 244 256 l 194 113 l 192 86 l 300 65 l 300 0 l -12 0 l -12 65 m 533 344 l 410 683 l 404 704 l 400 708 l 393 681 l 275 344 l 533 344 m 554 963 q 540 990 554 967 q 496 1034 525 1014 q 422 1054 467 1054 q 338 1035 372 1054 q 285 992 303 1015 q 267 965 267 969 l 218 986 q 240 1037 218 994 q 307 1116 261 1079 q 425 1153 353 1153 q 557 1119 508 1153 q 624 1047 606 1085 q 643 999 643 1010 l 554 963 z "},"Ā":{"ha":864,"x_min":-12,"x_max":878,"o":"m 197 1094 l 664 1094 l 650 1004 l 182 1004 l 197 1094 m -12 65 l 76 86 l 375 908 l 472 908 l 786 86 l 878 65 l 878 0 l 517 0 l 517 65 l 619 86 l 615 114 l 563 256 l 244 256 l 194 113 l 192 86 l 300 65 l 300 0 l -12 0 l -12 65 m 533 344 l 410 683 l 404 704 l 400 708 l 393 681 l 275 344 l 533 344 z "},"Ą":{"ha":864,"x_min":-12,"x_max":878,"o":"m 604 0 q 529 -114 529 -61 q 586 -171 529 -171 q 664 -143 615 -171 l 690 -189 q 669 -209 690 -190 q 617 -244 649 -228 q 549 -260 585 -260 q 460 -233 493 -260 q 426 -157 426 -207 q 456 -67 426 -107 q 531 0 485 -28 l 517 0 l 517 65 l 619 86 l 615 114 l 563 256 l 244 256 l 194 113 l 192 86 l 300 65 l 300 0 l -12 0 l -12 65 l 76 86 l 375 908 l 472 908 l 786 86 l 878 65 l 878 0 l 604 0 m 275 344 l 533 344 l 410 683 l 404 704 l 400 708 l 393 681 l 275 344 z "},"Å":{"ha":864,"x_min":-12,"x_max":878,"o":"m 878 65 l 878 0 l 517 0 l 517 65 l 619 86 l 615 114 l 563 256 l 244 256 l 194 113 l 192 86 l 300 65 l 300 0 l -12 0 l -12 65 l 76 86 l 375 908 l 385 908 q 315 946 336 917 q 293 1026 293 975 q 330 1118 293 1085 q 428 1151 367 1151 q 522 1122 488 1151 q 556 1035 556 1092 q 456 908 556 924 l 472 908 l 786 86 l 878 65 m 369 1032 q 381 985 369 997 q 426 972 392 972 q 468 985 457 972 q 479 1029 479 999 q 469 1074 479 1061 q 425 1088 458 1088 q 382 1076 394 1088 q 369 1032 369 1064 m 275 344 l 533 344 l 410 683 l 404 704 l 400 708 l 393 681 l 275 344 z "},"Ǻ":{"ha":864,"x_min":-12,"x_max":878,"o":"m 379 1186 l 347 1242 l 535 1378 q 553 1390 539 1381 q 578 1403 567 1399 q 597 1408 589 1408 q 643 1378 626 1408 q 658 1299 660 1349 l 379 1186 m 878 65 l 878 0 l 517 0 l 517 65 l 619 86 l 615 114 l 563 256 l 244 256 l 194 113 l 192 86 l 300 65 l 300 0 l -12 0 l -12 65 l 76 86 l 375 908 q 300 1018 300 929 q 337 1110 300 1076 q 435 1144 374 1144 q 528 1115 494 1144 q 563 1028 563 1085 q 538 950 563 981 q 472 907 514 919 l 786 86 l 878 65 m 432 1081 q 390 1068 401 1081 q 378 1024 378 1056 q 389 977 378 990 q 433 964 400 964 q 474 976 463 964 q 485 1019 485 989 q 475 1067 485 1054 q 432 1081 465 1081 m 275 344 l 533 344 l 410 683 l 404 704 l 400 708 l 393 681 l 275 344 z "},"Ã":{"ha":864,"x_min":-12,"x_max":878,"o":"m 226 1086 q 268 1124 244 1114 q 322 1135 292 1135 q 414 1117 357 1135 l 532 1078 l 640 1129 l 678 1089 l 628 1019 q 586 981 610 992 q 532 971 563 971 q 440 989 497 971 l 322 1028 l 215 976 l 176 1017 l 226 1086 m -12 65 l 76 86 l 375 908 l 472 908 l 786 86 l 878 65 l 878 0 l 517 0 l 517 65 l 619 86 l 615 114 l 563 256 l 244 256 l 194 113 l 192 86 l 300 65 l 300 0 l -12 0 l -12 65 m 533 344 l 410 683 l 404 704 l 400 708 l 393 681 l 275 344 l 533 344 z "},"Æ":{"ha":1139,"x_min":-11,"x_max":1108,"o":"m 82 86 l 465 900 l 1019 900 l 1026 663 l 951 663 l 915 815 l 774 815 l 664 806 l 693 458 l 868 458 l 892 535 l 954 535 l 963 292 l 900 292 l 872 371 l 700 371 l 725 97 q 843 88 774 88 l 999 88 l 1026 242 l 1101 242 l 1108 0 l 468 0 l 465 65 l 579 90 l 554 369 l 321 369 l 201 111 l 197 86 l 301 65 l 301 0 l -11 0 l -11 65 l 82 86 m 547 458 l 518 803 l 364 458 l 547 458 z "},"Ǽ":{"ha":1139,"x_min":-11,"x_max":1108,"o":"m 0 0 m 82 86 l 465 900 l 1019 900 l 1026 663 l 951 663 l 915 815 l 774 815 l 664 806 l 693 458 l 868 458 l 892 535 l 954 535 l 963 292 l 900 292 l 872 371 l 700 371 l 725 97 q 843 88 774 88 l 999 88 l 1026 242 l 1101 242 l 1108 0 l 468 0 l 465 65 l 579 90 l 554 369 l 321 369 l 201 111 l 197 86 l 301 65 l 301 0 l -11 0 l -11 65 l 82 86 m 547 458 l 518 803 l 364 458 l 547 458 m 540 997 l 728 1133 q 746 1145 732 1136 q 771 1159 760 1154 q 790 1164 782 1164 q 836 1134 819 1164 q 851 1054 853 1104 l 572 942 l 540 997 z "},"B":{"ha":849,"x_min":72,"x_max":792,"o":"m 72 65 l 186 90 l 186 811 l 72 835 l 72 900 l 442 900 q 669 842 589 900 q 749 679 749 785 q 712 559 749 608 q 597 479 675 510 q 738 398 685 458 q 792 258 792 338 q 708 68 792 136 q 476 0 625 0 l 72 0 l 72 65 m 393 500 q 545 545 492 500 q 599 674 599 590 q 422 813 599 813 q 329 806 374 813 l 329 500 l 393 500 m 433 85 q 633 254 633 85 q 580 377 633 339 q 410 415 526 415 l 329 415 l 329 92 q 433 85 364 85 z "},"C":{"ha":847,"x_min":58,"x_max":778,"o":"m 778 265 l 778 43 q 648 -1 715 17 q 471 -18 581 -18 q 161 99 264 -18 q 58 439 58 215 q 113 680 58 569 q 266 855 167 790 q 494 919 365 919 q 652 908 581 919 q 772 879 724 897 l 772 651 l 693 651 l 664 803 q 489 826 581 826 q 334 788 392 826 q 251 665 276 749 q 225 443 225 582 q 294 165 225 260 q 493 71 363 71 q 632 93 596 71 q 669 117 668 115 l 699 265 l 778 265 z "},"Ć":{"ha":847,"x_min":58,"x_max":776,"o":"m 560 1133 q 594 1154 576 1144 q 622 1164 611 1164 q 669 1134 653 1164 q 685 1054 686 1104 l 406 942 l 374 997 l 560 1133 m 776 265 l 776 43 q 647 -1 714 15 q 471 -18 581 -18 q 161 99 264 -18 q 58 439 58 215 q 113 680 58 569 q 266 855 167 790 q 494 919 365 919 q 771 879 663 919 l 771 651 l 693 651 l 664 803 q 489 826 581 826 q 334 788 392 826 q 251 665 276 749 q 225 443 225 582 q 294 165 225 260 q 493 71 363 71 q 632 93 596 71 q 669 117 668 115 l 699 265 l 776 265 z "},"Č":{"ha":847,"x_min":58,"x_max":776,"o":"m 483 1074 l 664 1161 l 700 1108 l 572 1003 l 542 978 q 502 948 515 957 q 478 939 489 939 q 448 951 465 939 q 403 986 431 963 l 381 1004 l 257 1101 l 304 1163 l 483 1074 m 776 265 l 776 43 q 647 -1 714 15 q 471 -18 581 -18 q 161 99 264 -18 q 58 439 58 215 q 113 680 58 569 q 266 855 167 790 q 494 919 365 919 q 771 879 663 919 l 771 651 l 693 651 l 664 803 q 489 826 581 826 q 334 788 392 826 q 251 665 276 749 q 225 443 225 582 q 294 165 225 260 q 493 71 363 71 q 632 93 596 71 q 669 117 668 115 l 699 265 l 776 265 z "},"Ç":{"ha":847,"x_min":58,"x_max":776,"o":"m 378 -183 q 456 -200 418 -200 q 528 -160 528 -200 q 519 -134 528 -142 q 488 -122 510 -126 l 440 -112 l 411 -85 l 440 -17 q 153 106 249 -10 q 58 439 58 222 q 113 680 58 569 q 266 855 167 790 q 494 919 365 919 q 771 879 663 919 l 771 651 l 693 651 l 664 803 q 489 826 581 826 q 334 788 392 826 q 251 665 276 749 q 225 443 225 582 q 294 165 225 260 q 493 71 363 71 q 632 93 596 71 q 669 117 668 115 l 699 265 l 776 265 l 776 43 q 661 2 721 18 q 508 -18 601 -14 l 508 -40 l 533 -47 q 607 -76 582 -58 q 632 -136 632 -94 q 584 -232 632 -201 q 461 -262 536 -262 q 403 -257 428 -262 q 354 -239 379 -251 l 378 -183 z "},"Ĉ":{"ha":847,"x_min":58,"x_max":778,"o":"m 58 0 m 778 265 l 778 43 q 648 -1 715 17 q 471 -18 581 -18 q 161 99 264 -18 q 58 439 58 215 q 113 680 58 569 q 266 855 167 790 q 494 919 365 919 q 652 908 581 919 q 772 879 724 897 l 772 651 l 693 651 l 664 803 q 489 826 581 826 q 334 788 392 826 q 251 665 276 749 q 225 443 225 582 q 294 165 225 260 q 493 71 363 71 q 632 93 596 71 q 669 117 668 115 l 699 265 l 778 265 m 401 1097 l 425 1115 q 470 1150 453 1138 q 497 1163 488 1163 q 526 1152 510 1163 q 568 1118 542 1142 l 593 1097 l 715 1000 l 671 939 l 490 1028 l 310 940 l 274 993 l 401 1097 z "},"Ċ":{"ha":847,"x_min":58,"x_max":778,"o":"m 58 0 m 778 265 l 778 43 q 648 -1 715 17 q 471 -18 581 -18 q 161 99 264 -18 q 58 439 58 215 q 113 680 58 569 q 266 855 167 790 q 494 919 365 919 q 652 908 581 919 q 772 879 724 897 l 772 651 l 693 651 l 664 803 q 489 826 581 826 q 334 788 392 826 q 251 665 276 749 q 225 443 225 582 q 294 165 225 260 q 493 71 363 71 q 632 93 596 71 q 669 117 668 115 l 699 265 l 778 265 m 489 963 q 426 989 450 963 q 403 1056 403 1015 q 430 1127 403 1097 q 497 1157 457 1157 q 560 1132 536 1157 q 585 1065 585 1107 q 558 992 585 1022 q 489 963 532 963 z "},"D":{"ha":981,"x_min":68,"x_max":922,"o":"m 68 65 l 182 90 l 182 810 l 68 835 l 68 900 l 486 900 q 809 790 696 900 q 922 469 922 679 q 799 122 922 243 q 449 0 676 0 l 68 0 l 68 65 m 431 82 q 623 119 553 82 q 724 242 693 157 q 756 471 756 326 q 677 733 756 654 q 440 813 599 813 q 325 806 378 813 l 325 92 q 431 82 367 82 z "},"Ǳ":{"ha":1740,"x_min":68,"x_max":1704,"o":"m 68 0 m 68 65 l 182 90 l 182 810 l 68 835 l 68 900 l 486 900 q 809 790 696 900 q 922 469 922 679 q 799 122 922 243 q 449 0 676 0 l 68 0 l 68 65 m 431 82 q 623 119 553 82 q 724 242 693 157 q 756 471 756 326 q 677 733 756 654 q 440 813 599 813 q 325 806 378 813 l 325 92 q 431 82 367 82 m 1017 89 l 1506 788 l 1506 811 l 1143 811 l 1107 668 l 1031 668 l 1031 900 l 1693 900 l 1693 804 l 1194 106 l 1194 89 l 1590 89 l 1626 233 l 1704 233 l 1704 0 l 1017 0 l 1017 89 z "},"Ǆ":{"ha":1740,"x_min":68,"x_max":1704,"o":"m 68 0 m 68 65 l 182 90 l 182 810 l 68 835 l 68 900 l 486 900 q 809 790 696 900 q 922 469 922 679 q 799 122 922 243 q 449 0 676 0 l 68 0 l 68 65 m 431 82 q 623 119 553 82 q 724 242 693 157 q 756 471 756 326 q 677 733 756 654 q 440 813 599 813 q 325 806 378 813 l 325 92 q 431 82 367 82 m 1017 89 l 1506 788 l 1506 811 l 1143 811 l 1107 668 l 1031 668 l 1031 900 l 1693 900 l 1693 804 l 1194 106 l 1194 89 l 1590 89 l 1626 233 l 1704 233 l 1704 0 l 1017 0 l 1017 89 m 1353 1074 l 1533 1161 l 1569 1108 l 1443 1004 l 1411 978 q 1371 948 1385 957 q 1346 939 1357 939 q 1319 949 1333 939 q 1275 983 1306 958 q 1250 1004 1264 994 l 1126 1101 l 1172 1163 l 1353 1074 z "},"Ð":{"ha":993,"x_min":72,"x_max":929,"o":"m 190 90 l 190 419 l 72 419 l 72 507 l 190 507 l 190 810 l 76 835 l 76 900 l 506 900 q 819 787 710 900 q 929 460 929 674 q 874 218 929 322 q 717 57 818 114 q 482 0 615 0 l 76 0 l 76 65 l 190 90 m 332 92 q 444 82 372 82 q 633 119 564 82 q 733 238 701 156 q 764 461 764 319 q 689 732 764 651 q 460 813 614 813 q 332 806 401 813 l 332 507 l 553 507 l 553 419 l 332 419 l 332 92 z "},"Ď":{"ha":985,"x_min":68,"x_max":922,"o":"m 476 1074 l 657 1161 l 693 1108 l 567 1004 l 544 986 q 496 949 510 958 q 471 939 482 939 q 441 949 457 939 q 397 985 425 960 l 374 1004 l 250 1101 l 296 1163 l 476 1074 m 68 65 l 182 90 l 182 810 l 68 835 l 68 900 l 486 900 q 809 790 696 900 q 922 469 922 679 q 799 122 922 243 q 449 0 676 0 l 68 0 l 68 65 m 431 82 q 623 119 553 82 q 724 242 693 157 q 756 471 756 326 q 677 733 756 654 q 440 813 599 813 q 325 806 378 813 l 325 92 q 431 82 367 82 z "},"Đ":{"ha":993,"x_min":72,"x_max":929,"o":"m 72 0 m 190 90 l 190 419 l 72 419 l 72 507 l 190 507 l 190 810 l 76 835 l 76 900 l 506 900 q 819 787 710 900 q 929 460 929 674 q 874 218 929 322 q 717 57 818 114 q 482 0 615 0 l 76 0 l 76 65 l 190 90 m 332 92 q 444 82 372 82 q 633 119 564 82 q 733 238 701 156 q 764 461 764 319 q 689 732 764 651 q 460 813 614 813 q 332 806 401 813 l 332 507 l 553 507 l 553 419 l 332 419 l 332 92 z "},"Ḍ":{"ha":981,"x_min":68,"x_max":922,"o":"m 68 0 m 68 65 l 182 90 l 182 810 l 68 835 l 68 900 l 486 900 q 809 790 696 900 q 922 469 922 679 q 799 122 922 243 q 449 0 676 0 l 68 0 l 68 65 m 431 82 q 623 119 553 82 q 724 242 693 157 q 756 471 756 326 q 677 733 756 654 q 440 813 599 813 q 325 806 378 813 l 325 92 q 431 82 367 82 m 485 -253 q 422 -227 446 -253 q 399 -160 399 -201 q 426 -90 399 -119 q 493 -60 453 -60 q 556 -84 532 -60 q 581 -150 581 -108 q 554 -223 581 -193 q 485 -253 528 -253 z "},"ǲ":{"ha":1593,"x_min":68,"x_max":1563,"o":"m 68 0 m 68 65 l 182 90 l 182 810 l 68 835 l 68 900 l 486 900 q 809 790 696 900 q 922 469 922 679 q 799 122 922 243 q 449 0 676 0 l 68 0 l 68 65 m 431 82 q 623 119 553 82 q 724 242 693 157 q 756 471 756 326 q 677 733 756 654 q 440 813 599 813 q 325 806 378 813 l 325 92 q 431 82 367 82 m 1006 0 l 1006 82 l 1372 586 l 1375 604 l 1126 604 l 1103 493 l 1033 493 l 1019 688 l 1535 688 l 1535 582 l 1182 104 l 1178 82 l 1456 82 l 1478 201 l 1549 201 l 1563 0 l 1006 0 z "},"ǅ":{"ha":1593,"x_min":68,"x_max":1563,"o":"m 68 0 m 68 65 l 182 90 l 182 810 l 68 835 l 68 900 l 486 900 q 809 790 696 900 q 922 469 922 679 q 799 122 922 243 q 449 0 676 0 l 68 0 l 68 65 m 431 82 q 623 119 553 82 q 724 242 693 157 q 756 471 756 326 q 677 733 756 654 q 440 813 599 813 q 325 806 378 813 l 325 92 q 431 82 367 82 m 1006 0 l 1006 82 l 1372 586 l 1375 604 l 1126 604 l 1103 493 l 1033 493 l 1019 688 l 1535 688 l 1535 582 l 1182 104 l 1178 82 l 1456 82 l 1478 201 l 1549 201 l 1563 0 l 1006 0 m 1281 753 q 1207 803 1257 753 l 1075 933 l 1126 988 l 1292 872 l 1453 989 l 1490 939 l 1356 803 q 1313 765 1331 778 q 1281 753 1296 753 z "},"E":{"ha":799,"x_min":68,"x_max":733,"o":"m 182 90 l 182 811 l 68 835 l 68 900 l 721 900 l 721 663 l 644 663 l 614 815 l 439 815 l 325 806 l 325 500 l 521 500 l 544 586 l 607 586 l 607 328 l 544 328 l 521 418 l 325 418 l 325 97 q 449 88 379 88 l 625 88 l 658 242 l 733 242 l 733 0 l 68 0 l 68 65 l 182 90 z "},"É":{"ha":799,"x_min":68,"x_max":733,"o":"m 474 1133 q 494 1147 481 1138 q 518 1160 508 1156 q 536 1164 528 1164 q 583 1134 567 1164 q 599 1054 600 1104 l 319 942 l 288 997 l 474 1133 m 182 90 l 182 811 l 68 835 l 68 900 l 721 900 l 721 663 l 644 663 l 614 815 l 439 815 l 325 806 l 325 500 l 521 500 l 544 586 l 607 586 l 607 328 l 544 328 l 521 418 l 325 418 l 325 97 q 449 88 379 88 l 625 88 l 658 242 l 733 242 l 733 0 l 68 0 l 68 65 l 182 90 z "},"Ĕ":{"ha":799,"x_min":68,"x_max":733,"o":"m 68 0 m 182 90 l 182 811 l 68 835 l 68 900 l 721 900 l 721 663 l 644 663 l 614 815 l 439 815 l 325 806 l 325 500 l 521 500 l 544 586 l 607 586 l 607 328 l 544 328 l 521 418 l 325 418 l 325 97 q 449 88 379 88 l 625 88 l 658 242 l 733 242 l 733 0 l 68 0 l 68 65 l 182 90 m 318 1153 q 333 1125 318 1149 q 376 1081 347 1101 q 449 1061 404 1061 q 533 1081 499 1061 q 586 1123 568 1100 q 604 1150 604 1146 l 653 1129 q 631 1078 653 1121 q 564 999 610 1036 q 446 963 518 963 q 314 997 363 963 q 247 1068 265 1031 q 228 1117 228 1106 l 318 1153 z "},"Ě":{"ha":799,"x_min":68,"x_max":733,"o":"m 431 1074 l 611 1161 l 647 1108 l 519 1004 l 493 982 q 449 949 464 958 q 424 939 435 939 q 394 951 411 939 q 358 979 378 963 q 328 1004 338 996 l 204 1101 l 250 1163 l 431 1074 m 182 90 l 182 811 l 68 835 l 68 900 l 721 900 l 721 663 l 644 663 l 614 815 l 439 815 l 325 806 l 325 500 l 521 500 l 544 586 l 607 586 l 607 328 l 544 328 l 521 418 l 325 418 l 325 97 q 449 88 379 88 l 625 88 l 658 242 l 733 242 l 733 0 l 68 0 l 68 65 l 182 90 z "},"Ê":{"ha":799,"x_min":68,"x_max":733,"o":"m 322 1097 q 390 1151 374 1139 q 418 1163 407 1163 q 447 1152 431 1163 q 489 1118 463 1142 l 514 1097 l 636 1000 l 592 939 l 411 1028 l 229 940 l 194 993 l 322 1097 m 182 90 l 182 811 l 68 835 l 68 900 l 721 900 l 721 663 l 644 663 l 614 815 l 439 815 l 325 806 l 325 500 l 521 500 l 544 586 l 607 586 l 607 328 l 544 328 l 521 418 l 325 418 l 325 97 q 449 88 379 88 l 625 88 l 658 242 l 733 242 l 733 0 l 68 0 l 68 65 l 182 90 z "},"Ế":{"ha":799,"x_min":68,"x_max":817,"o":"m 68 0 m 182 90 l 182 811 l 68 835 l 68 900 l 721 900 l 721 663 l 644 663 l 614 815 l 439 815 l 325 806 l 325 500 l 521 500 l 544 586 l 607 586 l 607 328 l 544 328 l 521 418 l 325 418 l 325 97 q 449 88 379 88 l 625 88 l 658 242 l 733 242 l 733 0 l 68 0 l 68 65 l 182 90 m 346 1097 l 369 1115 q 415 1150 397 1138 q 442 1163 432 1163 q 470 1152 454 1163 q 513 1118 486 1142 l 538 1097 l 660 1000 l 615 939 l 435 1028 l 254 940 l 218 993 l 346 1097 m 506 1182 l 693 1318 q 711 1330 697 1321 q 736 1344 725 1339 q 756 1349 747 1349 q 801 1319 785 1349 q 817 1239 818 1289 l 538 1126 l 506 1182 z "},"Ệ":{"ha":799,"x_min":68,"x_max":733,"o":"m 68 0 m 182 90 l 182 811 l 68 835 l 68 900 l 721 900 l 721 663 l 644 663 l 614 815 l 439 815 l 325 806 l 325 500 l 521 500 l 544 586 l 607 586 l 607 328 l 544 328 l 521 418 l 325 418 l 325 97 q 449 88 379 88 l 625 88 l 658 242 l 733 242 l 733 0 l 68 0 l 68 65 l 182 90 m 394 -253 q 332 -227 356 -253 q 308 -160 308 -201 q 335 -90 308 -119 q 403 -60 363 -60 q 466 -84 442 -60 q 490 -150 490 -108 q 464 -223 490 -193 q 394 -253 438 -253 m 349 1097 l 372 1115 q 417 1150 400 1138 q 444 1163 435 1163 q 473 1152 457 1163 q 515 1118 489 1142 l 540 1097 l 663 1000 l 618 939 l 438 1028 l 257 940 l 221 993 l 349 1097 z "},"Ề":{"ha":799,"x_min":68,"x_max":733,"o":"m 68 0 m 182 90 l 182 811 l 68 835 l 68 900 l 721 900 l 721 663 l 644 663 l 614 815 l 439 815 l 325 806 l 325 500 l 521 500 l 544 586 l 607 586 l 607 328 l 544 328 l 521 418 l 325 418 l 325 97 q 449 88 379 88 l 625 88 l 658 242 l 733 242 l 733 0 l 68 0 l 68 65 l 182 90 m 344 1097 l 368 1115 q 413 1150 396 1138 q 440 1163 431 1163 q 469 1152 453 1163 q 511 1118 485 1142 l 536 1097 l 658 1000 l 614 939 l 433 1028 l 253 940 l 217 993 l 344 1097 m 415 1239 q 431 1319 414 1289 q 476 1349 447 1349 q 505 1339 488 1349 q 539 1318 522 1329 l 726 1182 l 694 1126 l 415 1239 z "},"Ể":{"ha":799,"x_min":68,"x_max":757,"o":"m 68 0 m 182 90 l 182 811 l 68 835 l 68 900 l 721 900 l 721 663 l 644 663 l 614 815 l 439 815 l 325 806 l 325 500 l 521 500 l 544 586 l 607 586 l 607 328 l 544 328 l 521 418 l 325 418 l 325 97 q 449 88 379 88 l 625 88 l 658 242 l 733 242 l 733 0 l 68 0 l 68 65 l 182 90 m 338 1097 l 361 1115 q 406 1150 389 1138 q 433 1163 424 1163 q 462 1152 446 1163 q 504 1118 478 1142 l 529 1097 l 651 1000 l 607 939 l 426 1028 l 246 940 l 210 993 l 338 1097 m 563 1107 q 553 1136 553 1122 q 565 1163 553 1151 q 606 1188 578 1175 q 640 1208 629 1197 q 650 1233 650 1218 q 588 1261 650 1261 q 503 1250 547 1261 q 486 1297 486 1276 q 506 1331 486 1319 q 578 1342 525 1342 q 710 1316 663 1342 q 757 1240 757 1290 q 681 1150 757 1179 q 646 1132 654 1140 q 640 1110 638 1124 l 563 1107 z "},"Ễ":{"ha":799,"x_min":68,"x_max":733,"o":"m 547 1199 q 454 1215 514 1199 l 336 1253 l 229 1204 l 190 1242 l 240 1307 q 283 1342 260 1332 q 336 1353 307 1353 q 428 1336 371 1353 l 547 1299 l 654 1347 l 693 1310 l 642 1244 q 547 1199 608 1199 m 346 1097 l 369 1115 q 415 1150 397 1138 q 442 1163 432 1163 q 470 1152 454 1163 q 513 1118 486 1142 l 538 1097 l 660 1000 l 615 939 l 435 1028 l 254 940 l 218 993 l 346 1097 m 182 90 l 182 811 l 68 835 l 68 900 l 721 900 l 721 663 l 644 663 l 614 815 l 439 815 l 325 806 l 325 500 l 521 500 l 544 586 l 607 586 l 607 328 l 544 328 l 521 418 l 325 418 l 325 97 q 449 88 379 88 l 625 88 l 658 242 l 733 242 l 733 0 l 68 0 l 68 65 l 182 90 z "},"Ȅ":{"ha":799,"x_min":68,"x_max":733,"o":"m 68 0 m 182 90 l 182 811 l 68 835 l 68 900 l 721 900 l 721 663 l 644 663 l 614 815 l 439 815 l 325 806 l 325 500 l 521 500 l 544 586 l 607 586 l 607 328 l 544 328 l 521 418 l 325 418 l 325 97 q 449 88 379 88 l 625 88 l 658 242 l 733 242 l 733 0 l 68 0 l 68 65 l 182 90 m 99 1082 q 126 1148 107 1125 q 167 1171 144 1171 q 198 1160 183 1171 q 232 1126 213 1150 l 350 981 l 308 938 l 99 1082 m 356 1082 q 383 1148 365 1125 q 424 1171 401 1171 q 456 1160 442 1171 q 490 1126 471 1150 l 608 981 l 567 938 l 356 1082 z "},"Ë":{"ha":799,"x_min":68,"x_max":733,"o":"m 267 964 q 210 988 232 964 q 188 1049 188 1011 q 212 1113 188 1086 q 274 1139 236 1139 q 331 1117 310 1139 q 353 1057 353 1094 q 329 991 353 1018 q 267 964 306 964 m 574 964 q 517 988 539 964 q 496 1049 496 1011 q 520 1113 496 1086 q 581 1139 544 1139 q 638 1117 617 1139 q 660 1057 660 1094 q 636 991 660 1018 q 574 964 613 964 m 182 90 l 182 811 l 68 835 l 68 900 l 721 900 l 721 663 l 644 663 l 614 815 l 439 815 l 325 806 l 325 500 l 521 500 l 544 586 l 607 586 l 607 328 l 544 328 l 521 418 l 325 418 l 325 97 q 449 88 379 88 l 625 88 l 658 242 l 733 242 l 733 0 l 68 0 l 68 65 l 182 90 z "},"Ė":{"ha":799,"x_min":68,"x_max":733,"o":"m 425 963 q 363 989 386 963 q 339 1056 339 1015 q 366 1127 339 1097 q 433 1157 393 1157 q 497 1132 472 1157 q 521 1065 521 1107 q 494 992 521 1022 q 425 963 468 963 m 182 90 l 182 811 l 68 835 l 68 900 l 721 900 l 721 663 l 644 663 l 614 815 l 439 815 l 325 806 l 325 500 l 521 500 l 544 586 l 607 586 l 607 328 l 544 328 l 521 418 l 325 418 l 325 97 q 449 88 379 88 l 625 88 l 658 242 l 733 242 l 733 0 l 68 0 l 68 65 l 182 90 z "},"Ẹ":{"ha":799,"x_min":68,"x_max":733,"o":"m 68 0 m 182 90 l 182 811 l 68 835 l 68 900 l 721 900 l 721 663 l 644 663 l 614 815 l 439 815 l 325 806 l 325 500 l 521 500 l 544 586 l 607 586 l 607 328 l 544 328 l 521 418 l 325 418 l 325 97 q 449 88 379 88 l 625 88 l 658 242 l 733 242 l 733 0 l 68 0 l 68 65 l 182 90 m 394 -253 q 332 -227 356 -253 q 308 -160 308 -201 q 335 -90 308 -119 q 403 -60 363 -60 q 466 -84 442 -60 q 490 -150 490 -108 q 464 -223 490 -193 q 394 -253 438 -253 z "},"È":{"ha":799,"x_min":68,"x_max":733,"o":"m 254 1054 q 270 1134 253 1104 q 317 1164 288 1164 q 345 1154 328 1164 q 379 1133 363 1144 l 565 997 l 535 942 l 254 1054 m 182 90 l 182 811 l 68 835 l 68 900 l 721 900 l 721 663 l 644 663 l 614 815 l 439 815 l 325 806 l 325 500 l 521 500 l 544 586 l 607 586 l 607 328 l 544 328 l 521 418 l 325 418 l 325 97 q 449 88 379 88 l 625 88 l 658 242 l 733 242 l 733 0 l 68 0 l 68 65 l 182 90 z "},"Ẻ":{"ha":799,"x_min":68,"x_max":733,"o":"m 68 0 m 182 90 l 182 811 l 68 835 l 68 900 l 721 900 l 721 663 l 644 663 l 614 815 l 439 815 l 325 806 l 325 500 l 521 500 l 544 586 l 607 586 l 607 328 l 544 328 l 521 418 l 325 418 l 325 97 q 449 88 379 88 l 625 88 l 658 242 l 733 242 l 733 0 l 68 0 l 68 65 l 182 90 m 400 938 q 390 967 390 953 q 403 994 390 982 q 443 1018 415 1006 q 477 1038 467 1028 q 488 1064 488 1049 q 425 1092 488 1092 q 340 1081 385 1092 q 324 1128 324 1107 q 343 1161 324 1150 q 415 1172 363 1172 q 547 1147 500 1172 q 594 1071 594 1121 q 518 981 594 1010 q 483 963 492 971 q 478 940 475 954 l 400 938 z "},"Ȇ":{"ha":799,"x_min":68,"x_max":733,"o":"m 68 0 m 182 90 l 182 811 l 68 835 l 68 900 l 721 900 l 721 663 l 644 663 l 614 815 l 439 815 l 325 806 l 325 500 l 521 500 l 544 586 l 607 586 l 607 328 l 544 328 l 521 418 l 325 418 l 325 97 q 449 88 379 88 l 625 88 l 658 242 l 733 242 l 733 0 l 68 0 l 68 65 l 182 90 m 564 963 q 549 990 564 967 q 506 1034 535 1014 q 432 1054 476 1054 q 347 1035 382 1054 q 294 992 313 1015 q 276 965 276 969 l 228 986 q 249 1037 228 994 q 317 1116 271 1079 q 435 1153 363 1153 q 567 1119 518 1153 q 634 1047 615 1085 q 653 999 653 1010 l 564 963 z "},"Ē":{"ha":799,"x_min":68,"x_max":733,"o":"m 193 1094 l 660 1094 l 644 1004 l 178 1004 l 193 1094 m 182 90 l 182 811 l 68 835 l 68 900 l 721 900 l 721 663 l 644 663 l 614 815 l 439 815 l 325 806 l 325 500 l 521 500 l 544 586 l 607 586 l 607 328 l 544 328 l 521 418 l 325 418 l 325 97 q 449 88 379 88 l 625 88 l 658 242 l 733 242 l 733 0 l 68 0 l 68 65 l 182 90 z "},"Ę":{"ha":803,"x_min":68,"x_max":806,"o":"m 182 90 l 182 811 l 68 835 l 68 900 l 721 900 l 721 663 l 646 663 l 614 815 l 439 815 l 325 806 l 325 500 l 521 500 l 544 586 l 607 586 l 607 328 l 544 328 l 521 418 l 325 418 l 325 97 q 447 88 389 88 l 625 88 l 671 242 l 746 242 l 733 15 l 711 15 q 669 -40 692 -3 q 646 -114 646 -76 q 701 -171 646 -171 q 779 -143 731 -171 l 806 -189 q 785 -209 806 -190 q 732 -244 764 -228 q 664 -260 700 -260 q 575 -233 608 -260 q 542 -157 542 -207 q 565 -72 542 -112 q 625 0 589 -32 l 68 0 l 68 65 l 182 90 z "},"Ẽ":{"ha":799,"x_min":68,"x_max":733,"o":"m 68 0 m 182 90 l 182 811 l 68 835 l 68 900 l 721 900 l 721 663 l 644 663 l 614 815 l 439 815 l 325 806 l 325 500 l 521 500 l 544 586 l 607 586 l 607 328 l 544 328 l 521 418 l 325 418 l 325 97 q 449 88 379 88 l 625 88 l 658 242 l 733 242 l 733 0 l 68 0 l 68 65 l 182 90 m 547 971 q 454 989 511 971 l 336 1028 l 229 976 l 190 1017 l 240 1086 q 283 1124 260 1114 q 336 1135 307 1135 q 428 1117 374 1135 l 547 1078 l 654 1129 l 693 1089 l 642 1019 q 547 971 608 971 z "},"F":{"ha":726,"x_min":68,"x_max":721,"o":"m 68 65 l 182 90 l 182 811 l 68 835 l 68 900 l 721 900 l 721 663 l 643 663 l 613 815 l 439 815 l 325 806 l 325 474 l 538 474 l 560 561 l 622 561 l 622 301 l 560 301 l 538 392 l 325 392 l 325 93 l 469 71 l 469 0 l 68 0 l 68 65 z "},"G":{"ha":897,"x_min":58,"x_max":857,"o":"m 551 386 l 551 451 l 857 451 l 857 379 l 796 364 l 796 0 l 736 0 l 694 38 l 678 38 q 460 -18 592 -18 q 58 436 58 -18 q 113 683 58 572 q 270 856 168 793 q 510 919 372 919 q 675 906 603 919 q 783 878 747 893 l 783 650 l 706 650 l 668 803 q 497 826 597 826 q 288 735 350 826 q 225 451 225 643 q 288 163 225 254 q 494 71 350 71 q 583 80 549 71 q 656 107 618 89 l 656 361 l 551 386 z "},"Ǵ":{"ha":897,"x_min":58,"x_max":857,"o":"m 58 0 m 551 386 l 551 451 l 857 451 l 857 379 l 796 364 l 796 0 l 736 0 l 694 38 l 678 38 q 460 -18 592 -18 q 58 436 58 -18 q 113 683 58 572 q 270 856 168 793 q 510 919 372 919 q 675 906 603 919 q 783 878 747 893 l 783 650 l 706 650 l 668 803 q 497 826 597 826 q 288 735 350 826 q 225 451 225 643 q 288 163 225 254 q 494 71 350 71 q 583 80 549 71 q 656 107 618 89 l 656 361 l 551 386 m 401 997 l 589 1133 q 607 1145 593 1136 q 632 1159 621 1154 q 651 1164 643 1164 q 697 1134 681 1164 q 713 1054 714 1104 l 433 942 l 401 997 z "},"Ğ":{"ha":899,"x_min":58,"x_max":857,"o":"m 349 1153 q 363 1125 349 1149 q 407 1081 378 1101 q 481 1061 436 1061 q 565 1081 531 1061 q 618 1123 600 1100 q 636 1150 636 1146 l 685 1129 q 663 1078 685 1121 q 596 999 642 1036 q 478 963 550 963 q 346 997 394 963 q 278 1068 297 1031 q 260 1117 260 1106 l 349 1153 m 551 386 l 551 451 l 857 451 l 857 379 l 796 364 l 796 0 l 736 0 l 694 38 l 678 38 q 460 -18 592 -18 q 58 436 58 -18 q 113 683 58 572 q 270 856 168 793 q 510 919 372 919 q 674 906 603 919 q 782 878 746 893 l 782 650 l 706 650 l 668 803 q 497 826 597 826 q 288 735 350 826 q 225 451 225 643 q 288 163 225 254 q 494 71 350 71 q 583 80 549 71 q 656 107 618 89 l 656 361 l 551 386 z "},"Ǧ":{"ha":897,"x_min":58,"x_max":857,"o":"m 58 0 m 551 386 l 551 451 l 857 451 l 857 379 l 796 364 l 796 0 l 736 0 l 694 38 l 678 38 q 460 -18 592 -18 q 58 436 58 -18 q 113 683 58 572 q 270 856 168 793 q 510 919 372 919 q 675 906 603 919 q 783 878 747 893 l 783 650 l 706 650 l 668 803 q 497 826 597 826 q 288 735 350 826 q 225 451 225 643 q 288 163 225 254 q 494 71 350 71 q 583 80 549 71 q 656 107 618 89 l 656 361 l 551 386 m 493 1074 l 674 1161 l 710 1108 l 583 1004 l 551 978 q 511 948 525 957 q 486 939 497 939 q 460 949 474 939 q 415 983 446 958 q 390 1004 404 994 l 267 1101 l 313 1163 l 493 1074 z "},"Ĝ":{"ha":897,"x_min":58,"x_max":857,"o":"m 58 0 m 551 386 l 551 451 l 857 451 l 857 379 l 796 364 l 796 0 l 736 0 l 694 38 l 678 38 q 460 -18 592 -18 q 58 436 58 -18 q 113 683 58 572 q 270 856 168 793 q 510 919 372 919 q 675 906 603 919 q 783 878 747 893 l 783 650 l 706 650 l 668 803 q 497 826 597 826 q 288 735 350 826 q 225 451 225 643 q 288 163 225 254 q 494 71 350 71 q 583 80 549 71 q 656 107 618 89 l 656 361 l 551 386 m 396 1097 l 419 1115 q 465 1150 447 1138 q 492 1163 482 1163 q 520 1152 504 1163 q 563 1118 536 1142 l 588 1097 l 710 1000 l 665 939 l 485 1028 l 304 940 l 268 993 l 396 1097 z "},"Ģ":{"ha":899,"x_min":58,"x_max":857,"o":"m 551 386 l 551 451 l 857 451 l 857 379 l 796 364 l 796 0 l 736 0 l 694 38 l 678 38 q 460 -18 592 -18 q 58 436 58 -18 q 113 683 58 572 q 270 856 168 793 q 510 919 372 919 q 674 906 603 919 q 782 878 746 893 l 782 650 l 706 650 l 668 803 q 497 826 597 826 q 288 735 350 826 q 225 451 225 643 q 288 163 225 254 q 494 71 350 71 q 583 80 549 71 q 656 107 618 89 l 656 361 l 551 386 m 442 -271 q 464 -154 464 -204 q 431 -72 464 -103 q 497 -37 461 -37 q 551 -60 533 -37 q 569 -114 569 -83 q 552 -190 569 -156 q 513 -249 535 -225 q 490 -271 490 -274 l 442 -271 z "},"Ġ":{"ha":897,"x_min":58,"x_max":857,"o":"m 58 0 m 551 386 l 551 451 l 857 451 l 857 379 l 796 364 l 796 0 l 736 0 l 694 38 l 678 38 q 460 -18 592 -18 q 58 436 58 -18 q 113 683 58 572 q 270 856 168 793 q 510 919 372 919 q 675 906 603 919 q 783 878 747 893 l 783 650 l 706 650 l 668 803 q 497 826 597 826 q 288 735 350 826 q 225 451 225 643 q 288 163 225 254 q 494 71 350 71 q 583 80 549 71 q 656 107 618 89 l 656 361 l 551 386 m 483 963 q 421 989 444 963 q 397 1056 397 1015 q 424 1127 397 1097 q 492 1157 451 1157 q 555 1132 531 1157 q 579 1065 579 1107 q 553 992 579 1022 q 483 963 526 963 z "},"H":{"ha":1050,"x_min":68,"x_max":982,"o":"m 68 67 l 182 89 l 182 811 l 68 833 l 68 900 l 439 900 l 439 833 l 325 811 l 325 506 l 725 506 l 725 811 l 611 833 l 611 900 l 982 900 l 982 833 l 868 811 l 868 89 l 982 67 l 982 0 l 611 0 l 611 67 l 725 89 l 725 419 l 325 419 l 325 89 l 439 67 l 439 0 l 68 0 l 68 67 z "},"Ħ":{"ha":1050,"x_min":68,"x_max":983,"o":"m 68 0 l 68 67 l 182 89 l 182 600 l 71 600 l 71 686 l 182 686 l 182 811 l 68 833 l 68 900 l 439 900 l 439 833 l 325 811 l 325 686 l 725 686 l 725 811 l 611 833 l 611 900 l 982 900 l 982 833 l 868 811 l 868 686 l 983 686 l 983 600 l 868 600 l 868 89 l 982 67 l 982 0 l 611 0 l 611 67 l 725 89 l 725 383 l 325 383 l 325 89 l 439 67 l 439 0 l 68 0 m 325 469 l 725 469 l 725 600 l 325 600 l 325 469 z "},"Ĥ":{"ha":1050,"x_min":68,"x_max":982,"o":"m 68 0 m 68 67 l 182 89 l 182 811 l 68 833 l 68 900 l 439 900 l 439 833 l 325 811 l 325 506 l 725 506 l 725 811 l 611 833 l 611 900 l 982 900 l 982 833 l 868 811 l 868 89 l 982 67 l 982 0 l 611 0 l 611 67 l 725 89 l 725 419 l 325 419 l 325 89 l 439 67 l 439 0 l 68 0 l 68 67 m 432 1097 l 456 1115 q 501 1150 483 1138 q 528 1163 518 1163 q 556 1152 540 1163 q 599 1118 572 1142 l 624 1097 l 746 1000 l 701 939 l 521 1028 l 340 940 l 304 993 l 432 1097 z "},"Ḥ":{"ha":1050,"x_min":68,"x_max":982,"o":"m 68 0 m 68 67 l 182 89 l 182 811 l 68 833 l 68 900 l 439 900 l 439 833 l 325 811 l 325 506 l 725 506 l 725 811 l 611 833 l 611 900 l 982 900 l 982 833 l 868 811 l 868 89 l 982 67 l 982 0 l 611 0 l 611 67 l 725 89 l 725 419 l 325 419 l 325 89 l 439 67 l 439 0 l 68 0 l 68 67 m 519 -253 q 457 -227 481 -253 q 433 -160 433 -201 q 460 -90 433 -119 q 528 -60 488 -60 q 591 -84 567 -60 q 615 -150 615 -108 q 589 -223 615 -193 q 519 -253 563 -253 z "},"I":{"ha":514,"x_min":72,"x_max":442,"o":"m 72 67 l 185 89 l 185 811 l 72 833 l 72 900 l 442 900 l 442 833 l 329 811 l 329 89 l 442 67 l 442 0 l 72 0 l 72 67 z "},"Ĳ":{"ha":1076,"x_min":72,"x_max":1029,"o":"m 72 0 m 72 67 l 185 89 l 185 811 l 72 833 l 72 900 l 442 900 l 442 833 l 329 811 l 329 89 l 442 67 l 442 0 l 72 0 l 72 67 m 600 233 l 639 76 q 661 68 643 74 q 701 63 679 63 q 782 146 782 63 l 782 810 l 656 833 l 656 900 l 1029 900 l 1029 833 l 925 811 l 925 158 q 872 24 925 68 q 706 -21 819 -21 q 590 -6 642 -21 q 524 19 539 8 l 524 233 l 600 233 z "},"Í":{"ha":514,"x_min":72,"x_max":442,"o":"m 293 1133 q 314 1147 300 1138 q 338 1160 328 1156 q 356 1164 347 1164 q 403 1134 386 1164 q 418 1054 419 1104 l 139 942 l 107 997 l 293 1133 m 72 67 l 185 89 l 185 811 l 72 833 l 72 900 l 442 900 l 442 833 l 329 811 l 329 89 l 442 67 l 442 0 l 72 0 l 72 67 z "},"Ĭ":{"ha":514,"x_min":43,"x_max":468,"o":"m 43 0 m 72 67 l 185 89 l 185 811 l 72 833 l 72 900 l 442 900 l 442 833 l 329 811 l 329 89 l 442 67 l 442 0 l 72 0 l 72 67 m 133 1153 q 148 1125 133 1149 q 191 1081 163 1101 q 264 1061 219 1061 q 349 1081 314 1061 q 401 1123 383 1100 q 419 1150 419 1146 l 468 1129 q 447 1078 468 1121 q 379 999 425 1036 q 261 963 333 963 q 129 997 178 963 q 62 1068 81 1031 q 43 1117 43 1106 l 133 1153 z "},"Ǐ":{"ha":514,"x_min":35,"x_max":478,"o":"m 35 0 m 72 67 l 185 89 l 185 811 l 72 833 l 72 900 l 442 900 l 442 833 l 329 811 l 329 89 l 442 67 l 442 0 l 72 0 l 72 67 m 261 1074 l 442 1161 l 478 1108 l 351 1004 l 319 978 q 279 948 293 957 q 254 939 265 939 q 228 949 242 939 q 183 983 214 958 q 158 1004 172 994 l 35 1101 l 81 1163 l 261 1074 z "},"Î":{"ha":514,"x_min":32,"x_max":474,"o":"m 158 1097 l 181 1115 q 228 1153 214 1143 q 254 1163 243 1163 q 282 1151 265 1163 q 321 1122 299 1140 q 351 1097 343 1104 l 474 1000 l 428 939 l 249 1028 l 67 940 l 32 993 l 158 1097 m 72 67 l 185 89 l 185 811 l 72 833 l 72 900 l 442 900 l 442 833 l 329 811 l 329 89 l 442 67 l 442 0 l 72 0 l 72 67 z "},"Ȉ":{"ha":514,"x_min":-86,"x_max":442,"o":"m 0 0 m 72 67 l 185 89 l 185 811 l 72 833 l 72 900 l 442 900 l 442 833 l 329 811 l 329 89 l 442 67 l 442 0 l 72 0 l 72 67 m -86 1082 q -59 1148 -78 1125 q -18 1171 -40 1171 q 13 1160 -1 1171 q 47 1126 28 1150 l 165 981 l 124 938 l -86 1082 m 171 1082 q 199 1148 181 1125 q 239 1171 217 1171 q 272 1160 257 1171 q 306 1126 286 1150 l 424 981 l 382 938 l 171 1082 z "},"Ï":{"ha":514,"x_min":21,"x_max":493,"o":"m 100 964 q 43 988 65 964 q 21 1049 21 1011 q 45 1113 21 1086 q 107 1139 69 1139 q 165 1117 143 1139 q 186 1057 186 1094 q 163 991 186 1018 q 100 964 139 964 m 407 964 q 350 988 372 964 q 328 1049 328 1011 q 352 1113 328 1086 q 414 1139 376 1139 q 472 1117 450 1139 q 493 1057 493 1094 q 469 991 493 1018 q 407 964 446 964 m 72 0 l 72 67 l 185 89 l 185 811 l 72 833 l 72 900 l 442 900 l 442 833 l 329 811 l 329 89 l 442 67 l 442 0 l 72 0 z "},"İ":{"ha":514,"x_min":72,"x_max":442,"o":"m 251 963 q 189 989 213 963 q 165 1056 165 1015 q 192 1127 165 1097 q 260 1157 219 1157 q 323 1132 299 1157 q 347 1065 347 1107 q 321 992 347 1022 q 251 963 294 963 m 72 67 l 185 89 l 185 811 l 72 833 l 72 900 l 442 900 l 442 833 l 329 811 l 329 89 l 442 67 l 442 0 l 72 0 l 72 67 z "},"Ị":{"ha":514,"x_min":72,"x_max":442,"o":"m 72 0 m 72 67 l 185 89 l 185 811 l 72 833 l 72 900 l 442 900 l 442 833 l 329 811 l 329 89 l 442 67 l 442 0 l 72 0 l 72 67 m 251 -253 q 189 -227 213 -253 q 165 -160 165 -201 q 192 -90 165 -119 q 260 -60 219 -60 q 323 -84 299 -60 q 347 -150 347 -108 q 321 -223 347 -193 q 251 -253 294 -253 z "},"Ì":{"ha":514,"x_min":72,"x_max":442,"o":"m 97 1054 q 113 1134 96 1104 q 158 1164 131 1164 q 184 1156 169 1164 q 208 1142 199 1149 q 221 1133 217 1136 l 408 997 l 376 942 l 97 1054 m 72 67 l 185 89 l 185 811 l 72 833 l 72 900 l 442 900 l 442 833 l 329 811 l 329 89 l 442 67 l 442 0 l 72 0 l 72 67 z "},"Ỉ":{"ha":514,"x_min":72,"x_max":442,"o":"m 72 0 m 72 67 l 185 89 l 185 811 l 72 833 l 72 900 l 442 900 l 442 833 l 329 811 l 329 89 l 442 67 l 442 0 l 72 0 l 72 67 m 215 938 q 206 967 206 953 q 218 994 206 982 q 258 1018 231 1006 q 292 1038 282 1028 q 303 1064 303 1049 q 240 1092 303 1092 q 156 1081 200 1092 q 139 1128 139 1107 q 158 1161 139 1150 q 231 1172 178 1172 q 363 1147 315 1172 q 410 1071 410 1121 q 333 981 410 1010 q 299 963 307 971 q 293 940 290 954 l 215 938 z "},"Ȋ":{"ha":514,"x_min":43,"x_max":468,"o":"m 43 0 m 72 67 l 185 89 l 185 811 l 72 833 l 72 900 l 442 900 l 442 833 l 329 811 l 329 89 l 442 67 l 442 0 l 72 0 l 72 67 m 379 963 q 365 990 379 967 q 321 1034 350 1014 q 247 1054 292 1054 q 163 1035 197 1054 q 110 992 128 1015 q 92 965 92 969 l 43 986 q 65 1037 43 994 q 132 1116 86 1079 q 250 1153 178 1153 q 382 1119 333 1153 q 449 1047 431 1085 q 468 999 468 1010 l 379 963 z "},"Ī":{"ha":514,"x_min":35,"x_max":478,"o":"m 35 1011 l 50 1101 l 478 1101 l 463 1011 l 35 1011 m 72 0 l 72 67 l 185 89 l 185 811 l 72 833 l 72 900 l 442 900 l 442 833 l 329 811 l 329 89 l 442 67 l 442 0 l 72 0 z "},"Į":{"ha":514,"x_min":72,"x_max":472,"o":"m 185 89 l 185 811 l 72 833 l 72 900 l 442 900 l 442 833 l 329 811 l 329 89 l 442 67 l 442 0 l 386 0 q 311 -114 311 -61 q 368 -171 311 -171 q 444 -143 396 -171 l 472 -189 q 451 -209 472 -190 q 398 -244 429 -228 q 329 -260 367 -260 q 242 -233 275 -260 q 208 -157 208 -207 q 238 -67 208 -107 q 313 0 267 -28 l 72 0 l 72 67 l 185 89 z "},"Ĩ":{"ha":514,"x_min":6,"x_max":508,"o":"m 6 0 m 72 67 l 185 89 l 185 811 l 72 833 l 72 900 l 442 900 l 442 833 l 329 811 l 329 89 l 442 67 l 442 0 l 72 0 l 72 67 m 363 971 q 269 989 326 971 l 151 1028 l 44 976 l 6 1017 l 56 1086 q 99 1124 75 1114 q 151 1135 122 1135 q 243 1117 189 1135 l 363 1078 l 469 1129 l 508 1089 l 457 1019 q 363 971 424 971 z "},"J":{"ha":563,"x_min":10,"x_max":515,"o":"m 86 233 l 125 76 q 147 68 129 74 q 188 63 165 63 q 268 146 268 63 l 268 810 l 142 833 l 142 900 l 515 900 l 515 833 l 411 811 l 411 158 q 358 24 411 68 q 192 -21 306 -21 q 76 -6 128 -21 q 10 19 25 8 l 10 233 l 86 233 z "},"Ĵ":{"ha":563,"x_min":10,"x_max":561,"o":"m 10 0 m 86 233 l 125 76 q 147 68 129 74 q 188 63 165 63 q 268 146 268 63 l 268 810 l 142 833 l 142 900 l 515 900 l 515 833 l 411 811 l 411 158 q 358 24 411 68 q 192 -21 306 -21 q 76 -6 128 -21 q 10 19 25 8 l 10 233 l 86 233 m 247 1097 l 271 1115 q 316 1150 299 1138 q 343 1163 333 1163 q 372 1152 356 1163 q 414 1118 388 1142 l 439 1097 l 561 1000 l 517 939 l 336 1028 l 156 940 l 119 993 l 247 1097 z "},"K":{"ha":847,"x_min":68,"x_max":861,"o":"m 182 89 l 182 811 l 68 833 l 68 900 l 439 900 l 439 833 l 325 811 l 325 497 l 361 497 l 610 800 l 610 818 l 533 835 l 533 900 l 829 900 l 829 833 l 744 814 l 481 496 l 765 90 l 861 67 l 861 0 l 707 0 q 656 10 674 0 q 619 47 638 19 l 363 425 l 325 425 l 325 89 l 439 67 l 439 0 l 68 0 l 68 67 l 182 89 z "},"Ķ":{"ha":853,"x_min":68,"x_max":861,"o":"m 68 67 l 182 89 l 182 811 l 68 833 l 68 900 l 439 900 l 439 833 l 325 811 l 325 497 l 361 497 l 610 800 l 610 818 l 533 835 l 533 900 l 829 900 l 829 833 l 744 814 l 481 496 l 765 90 l 861 67 l 861 0 l 707 0 q 656 10 674 0 q 619 47 638 19 l 363 425 l 325 425 l 325 89 l 439 67 l 439 0 l 68 0 l 68 67 m 419 -271 q 442 -154 442 -204 q 408 -72 442 -103 q 476 -37 439 -37 q 531 -60 513 -37 q 549 -114 549 -83 q 531 -190 549 -156 q 490 -249 513 -225 q 468 -271 468 -274 l 419 -271 z "},"L":{"ha":726,"x_min":68,"x_max":708,"o":"m 68 65 l 182 90 l 182 811 l 68 835 l 68 900 l 447 900 l 447 831 l 325 808 l 325 96 l 442 85 l 600 85 l 633 236 l 708 236 l 708 0 l 68 0 l 68 65 z "},"Ǉ":{"ha":1289,"x_min":68,"x_max":1242,"o":"m 68 65 l 182 90 l 182 811 l 68 835 l 68 900 l 447 900 l 447 831 l 325 808 l 325 96 l 442 85 l 568 85 l 601 236 l 676 236 l 676 0 l 68 0 l 68 65 m 813 233 l 851 76 q 874 68 856 74 q 914 63 892 63 q 994 146 994 63 l 994 810 l 868 833 l 868 900 l 1242 900 l 1242 833 l 1138 811 l 1138 158 q 1085 24 1138 68 q 918 -21 1032 -21 q 803 -6 854 -21 q 736 19 751 8 l 736 233 l 813 233 z "},"Ĺ":{"ha":731,"x_min":68,"x_max":708,"o":"m 164 997 l 351 1133 q 385 1154 368 1144 q 414 1164 403 1164 q 460 1134 443 1164 q 475 1054 476 1104 l 196 942 l 164 997 m 68 0 l 68 65 l 182 90 l 182 811 l 68 835 l 68 900 l 447 900 l 447 831 l 325 808 l 325 96 l 442 85 l 600 85 l 633 236 l 708 236 l 708 0 l 68 0 z "},"Ľ":{"ha":735,"x_min":72,"x_max":711,"o":"m 539 668 q 555 737 549 699 q 561 806 561 775 q 531 888 561 851 q 596 919 554 919 q 651 897 632 919 q 669 843 669 875 q 651 772 669 811 q 614 705 633 733 q 589 668 594 676 l 539 668 m 72 0 l 72 65 l 186 90 l 186 811 l 72 835 l 72 900 l 450 900 l 450 831 l 329 808 l 329 96 l 446 85 l 604 85 l 636 236 l 711 236 l 711 0 l 72 0 z "},"Ļ":{"ha":735,"x_min":72,"x_max":711,"o":"m 72 0 l 72 65 l 186 90 l 186 811 l 72 835 l 72 900 l 450 900 l 450 831 l 329 808 l 329 96 l 446 85 l 604 85 l 636 236 l 711 236 l 711 0 l 72 0 m 351 -271 q 374 -154 374 -204 q 340 -72 374 -103 q 407 -37 371 -37 q 461 -60 443 -37 q 479 -114 479 -83 q 462 -190 479 -156 q 422 -249 444 -225 q 400 -271 400 -274 l 351 -271 z "},"Ŀ":{"ha":726,"x_min":68,"x_max":708,"o":"m 68 0 m 68 65 l 182 90 l 182 811 l 68 835 l 68 900 l 447 900 l 447 831 l 325 808 l 325 96 l 442 85 l 600 85 l 633 236 l 708 236 l 708 0 l 68 0 l 68 65 m 524 410 q 463 435 486 410 q 439 501 439 461 q 465 571 439 542 q 532 600 492 600 q 594 576 571 600 q 617 511 617 553 q 592 440 617 469 q 524 410 567 410 z "},"ǈ":{"ha":1088,"x_min":68,"x_max":989,"o":"m 68 0 m 68 65 l 182 90 l 182 811 l 68 835 l 68 900 l 447 900 l 447 831 l 325 808 l 325 96 l 442 85 l 600 85 l 633 236 l 708 236 l 708 0 l 68 0 l 68 65 m 893 786 q 831 812 854 786 q 807 879 807 838 q 834 950 807 921 q 901 979 861 979 q 965 955 940 979 q 989 889 989 931 q 963 816 989 846 q 893 786 936 786 m 826 -231 q 740 -223 781 -231 q 699 -214 699 -215 l 699 -156 l 847 -121 l 847 569 l 735 590 l 735 654 l 943 692 l 982 676 l 982 -114 q 942 -200 982 -169 q 826 -231 903 -231 z "},"Ł":{"ha":726,"x_min":68,"x_max":708,"o":"m 68 65 l 182 90 l 182 383 l 83 349 l 83 432 l 182 467 l 182 811 l 68 835 l 68 900 l 447 900 l 447 831 l 325 808 l 325 519 l 493 582 l 493 493 l 325 433 l 325 96 l 442 85 l 600 85 l 633 236 l 708 236 l 708 0 l 68 0 l 68 65 z "},"M":{"ha":1226,"x_min":67,"x_max":1154,"o":"m 67 0 l 67 64 l 171 88 l 171 815 l 82 832 l 82 900 l 382 900 l 592 260 l 608 192 l 625 260 l 833 900 l 1149 900 l 1149 832 l 1040 813 l 1040 89 l 1154 67 l 1154 0 l 783 0 l 783 67 l 897 89 l 897 756 l 881 756 l 871 722 l 632 0 l 535 0 l 285 756 l 271 756 l 272 719 l 272 88 l 376 64 l 376 0 l 67 0 z "},"N":{"ha":1011,"x_min":68,"x_max":957,"o":"m 68 0 l 68 64 l 169 88 l 169 813 l 79 832 l 79 900 l 315 900 l 731 242 l 746 217 l 756 217 l 756 813 l 656 836 l 656 900 l 957 900 l 957 836 l 856 813 l 856 0 l 715 0 l 293 664 l 279 688 l 269 688 l 269 88 l 371 64 l 371 0 l 68 0 z "},"Ǌ":{"ha":1574,"x_min":68,"x_max":1526,"o":"m 68 0 m 68 0 l 68 64 l 169 88 l 169 813 l 79 832 l 79 900 l 315 900 l 731 242 l 746 217 l 756 217 l 756 813 l 656 836 l 656 900 l 957 900 l 957 836 l 856 813 l 856 0 l 715 0 l 293 664 l 279 688 l 269 688 l 269 88 l 371 64 l 371 0 l 68 0 m 1097 233 l 1136 76 q 1158 68 1140 74 q 1199 63 1176 63 q 1279 146 1279 63 l 1279 810 l 1153 833 l 1153 900 l 1526 900 l 1526 833 l 1422 811 l 1422 158 q 1369 24 1422 68 q 1203 -21 1317 -21 q 1088 -6 1139 -21 q 1021 19 1036 8 l 1021 233 l 1097 233 z "},"Ń":{"ha":1013,"x_min":68,"x_max":957,"o":"m 376 997 l 564 1133 q 598 1154 581 1144 q 626 1164 615 1164 q 672 1134 656 1164 q 688 1054 689 1104 l 408 942 l 376 997 m 68 0 l 68 64 l 169 88 l 169 813 l 79 832 l 79 900 l 315 900 l 731 244 l 746 217 l 756 217 l 756 813 l 656 836 l 656 900 l 957 900 l 957 836 l 856 813 l 856 0 l 715 0 l 292 665 l 279 688 l 269 688 l 269 88 l 371 64 l 371 0 l 68 0 z "},"Ň":{"ha":1013,"x_min":68,"x_max":957,"o":"m 510 947 q 480 960 497 947 q 440 992 463 972 q 410 1018 418 1011 l 300 1114 l 350 1174 l 517 1079 l 688 1172 l 725 1119 l 607 1018 q 539 960 556 974 q 510 947 522 947 m 68 0 l 68 64 l 169 88 l 169 813 l 79 832 l 79 900 l 315 900 l 731 244 l 746 217 l 756 217 l 756 813 l 656 836 l 656 900 l 957 900 l 957 836 l 856 813 l 856 0 l 715 0 l 290 667 l 279 688 l 269 688 l 269 88 l 371 64 l 371 0 l 68 0 z "},"Ņ":{"ha":1013,"x_min":68,"x_max":957,"o":"m 68 0 l 68 64 l 169 88 l 169 813 l 79 832 l 79 900 l 315 900 l 731 243 l 746 217 l 756 217 l 756 813 l 656 836 l 656 900 l 957 900 l 957 836 l 856 813 l 856 0 l 715 0 l 290 667 l 279 688 l 269 688 l 269 88 l 371 64 l 371 0 l 68 0 m 460 -271 q 482 -154 482 -204 q 449 -72 482 -103 q 515 -37 479 -37 q 569 -60 551 -37 q 588 -114 588 -83 q 570 -190 588 -156 q 531 -249 553 -225 q 508 -271 508 -274 l 460 -271 z "},"Ṅ":{"ha":1011,"x_min":68,"x_max":957,"o":"m 68 0 m 68 0 l 68 64 l 169 88 l 169 813 l 79 832 l 79 900 l 315 900 l 731 242 l 746 217 l 756 217 l 756 813 l 656 836 l 656 900 l 957 900 l 957 836 l 856 813 l 856 0 l 715 0 l 293 664 l 279 688 l 269 688 l 269 88 l 371 64 l 371 0 l 68 0 m 500 963 q 438 989 461 963 q 414 1056 414 1015 q 441 1127 414 1097 q 508 1157 468 1157 q 572 1132 547 1157 q 596 1065 596 1107 q 569 992 596 1022 q 500 963 543 963 z "},"Ŋ":{"ha":1011,"x_min":68,"x_max":957,"o":"m 957 900 l 957 836 l 856 813 l 856 -114 q 817 -200 856 -169 q 701 -231 778 -231 q 615 -223 656 -231 q 574 -214 574 -215 l 574 -156 l 711 -124 l 711 7 l 293 664 l 279 688 l 269 688 l 269 88 l 371 64 l 371 0 l 68 0 l 68 64 l 169 88 l 169 813 l 79 832 l 79 900 l 315 900 l 731 242 l 746 217 l 756 217 l 756 813 l 656 836 l 656 900 l 957 900 z "},"Ɲ":{"ha":1011,"x_min":22,"x_max":957,"o":"m 135 -231 q 58 -223 94 -231 q 22 -214 22 -215 l 22 -156 l 169 -121 l 169 813 l 79 832 l 79 900 l 315 900 l 729 244 l 746 217 l 756 217 l 756 813 l 656 836 l 656 900 l 957 900 l 957 836 l 856 813 l 856 0 l 715 0 l 290 667 l 279 688 l 269 688 l 269 -114 q 235 -200 269 -169 q 135 -231 200 -231 z "},"ǋ":{"ha":1385,"x_min":68,"x_max":1286,"o":"m 68 0 m 68 0 l 68 64 l 169 88 l 169 813 l 79 832 l 79 900 l 315 900 l 731 242 l 746 217 l 756 217 l 756 813 l 656 836 l 656 900 l 957 900 l 957 836 l 856 813 l 856 0 l 715 0 l 293 664 l 279 688 l 269 688 l 269 88 l 371 64 l 371 0 l 68 0 m 1190 786 q 1128 812 1151 786 q 1104 879 1104 838 q 1131 950 1104 921 q 1199 979 1158 979 q 1262 955 1238 979 q 1286 889 1286 931 q 1260 816 1286 846 q 1190 786 1233 786 m 1124 -231 q 1037 -223 1078 -231 q 996 -214 996 -215 l 996 -156 l 1144 -121 l 1144 569 l 1032 590 l 1032 654 l 1240 692 l 1279 676 l 1279 -114 q 1240 -200 1279 -169 q 1124 -231 1200 -231 z "},"Ñ":{"ha":1013,"x_min":68,"x_max":957,"o":"m 622 971 q 531 989 585 971 l 411 1028 l 304 976 l 265 1017 l 317 1086 q 358 1124 335 1114 q 411 1135 382 1135 q 504 1117 447 1135 l 622 1078 l 729 1129 l 768 1089 l 718 1019 q 675 981 699 992 q 622 971 651 971 m 68 0 l 68 64 l 169 88 l 169 813 l 79 832 l 79 900 l 315 900 l 731 244 l 746 217 l 756 217 l 756 813 l 656 836 l 656 900 l 957 900 l 957 836 l 856 813 l 856 0 l 715 0 l 289 669 l 279 688 l 269 688 l 269 88 l 371 64 l 371 0 l 68 0 z "},"O":{"ha":971,"x_min":58,"x_max":913,"o":"m 476 -21 q 166 99 274 -21 q 58 435 58 218 q 112 683 58 572 q 267 856 165 793 q 508 919 369 919 q 806 799 700 919 q 913 468 913 679 q 865 216 913 326 q 719 42 817 106 q 476 -21 621 -21 m 504 69 q 688 160 631 69 q 746 439 746 251 q 715 674 746 589 q 628 793 685 760 q 488 826 572 826 q 346 799 401 826 q 258 690 290 771 q 225 451 225 608 q 294 158 225 247 q 504 69 363 69 z "},"Ó":{"ha":971,"x_min":58,"x_max":913,"o":"m 342 997 l 529 1133 q 563 1154 546 1144 q 592 1164 581 1164 q 638 1133 621 1164 q 653 1054 654 1103 l 374 942 l 342 997 m 476 -21 q 166 99 274 -21 q 58 435 58 218 q 112 683 58 572 q 267 856 165 793 q 508 919 369 919 q 806 799 700 919 q 913 468 913 679 q 865 216 913 326 q 719 42 817 106 q 476 -21 621 -21 m 504 69 q 688 160 631 69 q 746 439 746 251 q 715 674 746 589 q 628 793 685 760 q 488 826 572 826 q 346 799 401 826 q 258 690 290 771 q 225 451 225 608 q 294 158 225 247 q 504 69 363 69 z "},"Ŏ":{"ha":971,"x_min":58,"x_max":913,"o":"m 58 0 m 476 -21 q 166 99 274 -21 q 58 435 58 218 q 112 683 58 572 q 267 856 165 793 q 508 919 369 919 q 806 799 700 919 q 913 468 913 679 q 865 216 913 326 q 719 42 817 106 q 476 -21 621 -21 m 504 69 q 688 160 631 69 q 746 439 746 251 q 715 674 746 589 q 628 793 685 760 q 488 826 572 826 q 346 799 401 826 q 258 690 290 771 q 225 451 225 608 q 294 158 225 247 q 504 69 363 69 m 363 1153 q 377 1125 363 1149 q 420 1081 392 1101 q 493 1061 449 1061 q 578 1081 543 1061 q 631 1123 613 1100 q 649 1150 649 1146 l 697 1129 q 676 1078 697 1121 q 608 999 654 1036 q 490 963 563 963 q 358 997 407 963 q 291 1068 310 1031 q 272 1117 272 1106 l 363 1153 z "},"Ǒ":{"ha":971,"x_min":58,"x_max":913,"o":"m 58 0 m 476 -21 q 166 99 274 -21 q 58 435 58 218 q 112 683 58 572 q 267 856 165 793 q 508 919 369 919 q 806 799 700 919 q 913 468 913 679 q 865 216 913 326 q 719 42 817 106 q 476 -21 621 -21 m 504 69 q 688 160 631 69 q 746 439 746 251 q 715 674 746 589 q 628 793 685 760 q 488 826 572 826 q 346 799 401 826 q 258 690 290 771 q 225 451 225 608 q 294 158 225 247 q 504 69 363 69 m 490 1074 l 671 1161 l 707 1108 l 581 1004 l 549 978 q 508 948 522 957 q 483 939 494 939 q 457 949 471 939 q 413 983 443 958 q 388 1004 401 994 l 264 1101 l 310 1163 l 490 1074 z "},"Ô":{"ha":971,"x_min":58,"x_max":913,"o":"m 394 1097 q 463 1151 446 1139 q 490 1163 479 1163 q 519 1152 503 1163 q 561 1118 535 1142 l 586 1097 l 708 1000 l 664 939 l 483 1028 l 301 940 l 267 993 l 394 1097 m 476 -21 q 166 99 274 -21 q 58 435 58 218 q 112 683 58 572 q 267 856 165 793 q 508 919 369 919 q 806 799 700 919 q 913 468 913 679 q 865 216 913 326 q 719 42 817 106 q 476 -21 621 -21 m 504 69 q 688 160 631 69 q 746 439 746 251 q 715 674 746 589 q 628 793 685 760 q 488 826 572 826 q 346 799 401 826 q 258 690 290 771 q 225 451 225 608 q 294 158 225 247 q 504 69 363 69 z "},"Ố":{"ha":971,"x_min":58,"x_max":913,"o":"m 58 0 m 476 -21 q 166 99 274 -21 q 58 435 58 218 q 112 683 58 572 q 267 856 165 793 q 508 919 369 919 q 806 799 700 919 q 913 468 913 679 q 865 216 913 326 q 719 42 817 106 q 476 -21 621 -21 m 504 69 q 688 160 631 69 q 746 439 746 251 q 715 674 746 589 q 628 793 685 760 q 488 826 572 826 q 346 799 401 826 q 258 690 290 771 q 225 451 225 608 q 294 158 225 247 q 504 69 363 69 m 390 1097 l 414 1115 q 459 1150 442 1138 q 486 1163 476 1163 q 515 1152 499 1163 q 557 1118 531 1142 l 582 1097 l 704 1000 l 660 939 l 479 1028 l 299 940 l 263 993 l 390 1097 m 550 1182 l 738 1318 q 756 1330 742 1321 q 781 1344 769 1339 q 800 1349 792 1349 q 846 1319 829 1349 q 861 1239 863 1289 l 582 1126 l 550 1182 z "},"Ộ":{"ha":971,"x_min":58,"x_max":913,"o":"m 58 0 m 476 -21 q 166 99 274 -21 q 58 435 58 218 q 112 683 58 572 q 267 856 165 793 q 508 919 369 919 q 806 799 700 919 q 913 468 913 679 q 865 216 913 326 q 719 42 817 106 q 476 -21 621 -21 m 504 69 q 688 160 631 69 q 746 439 746 251 q 715 674 746 589 q 628 793 685 760 q 488 826 572 826 q 346 799 401 826 q 258 690 290 771 q 225 451 225 608 q 294 158 225 247 q 504 69 363 69 m 481 -253 q 418 -227 442 -253 q 394 -160 394 -201 q 422 -90 394 -119 q 489 -60 449 -60 q 552 -84 528 -60 q 576 -150 576 -108 q 550 -223 576 -193 q 481 -253 524 -253 m 393 1097 l 417 1115 q 462 1150 444 1138 q 489 1163 479 1163 q 517 1152 501 1163 q 560 1118 533 1142 l 585 1097 l 707 1000 l 663 939 l 482 1028 l 301 940 l 265 993 l 393 1097 z "},"Ồ":{"ha":971,"x_min":58,"x_max":913,"o":"m 58 0 m 476 -21 q 166 99 274 -21 q 58 435 58 218 q 112 683 58 572 q 267 856 165 793 q 508 919 369 919 q 806 799 700 919 q 913 468 913 679 q 865 216 913 326 q 719 42 817 106 q 476 -21 621 -21 m 504 69 q 688 160 631 69 q 746 439 746 251 q 715 674 746 589 q 628 793 685 760 q 488 826 572 826 q 346 799 401 826 q 258 690 290 771 q 225 451 225 608 q 294 158 225 247 q 504 69 363 69 m 389 1097 l 413 1115 q 458 1150 440 1138 q 485 1163 475 1163 q 513 1152 497 1163 q 556 1118 529 1142 l 581 1097 l 703 1000 l 658 939 l 478 1028 l 297 940 l 261 993 l 389 1097 m 460 1239 q 475 1319 458 1289 q 521 1349 492 1349 q 549 1339 532 1349 q 583 1318 567 1329 l 771 1182 l 739 1126 l 460 1239 z "},"Ổ":{"ha":971,"x_min":58,"x_max":913,"o":"m 58 0 m 476 -21 q 166 99 274 -21 q 58 435 58 218 q 112 683 58 572 q 267 856 165 793 q 508 919 369 919 q 806 799 700 919 q 913 468 913 679 q 865 216 913 326 q 719 42 817 106 q 476 -21 621 -21 m 504 69 q 688 160 631 69 q 746 439 746 251 q 715 674 746 589 q 628 793 685 760 q 488 826 572 826 q 346 799 401 826 q 258 690 290 771 q 225 451 225 608 q 294 158 225 247 q 504 69 363 69 m 382 1097 l 406 1115 q 451 1150 433 1138 q 478 1163 468 1163 q 506 1152 490 1163 q 549 1118 522 1142 l 574 1097 l 696 1000 l 651 939 l 471 1028 l 290 940 l 254 993 l 382 1097 m 607 1107 q 597 1136 597 1122 q 610 1163 597 1151 q 650 1188 622 1175 q 684 1208 674 1197 q 694 1233 694 1218 q 632 1261 694 1261 q 547 1250 592 1261 q 531 1297 531 1276 q 550 1331 531 1319 q 622 1342 569 1342 q 754 1316 707 1342 q 801 1240 801 1290 q 725 1150 801 1179 q 690 1132 699 1140 q 685 1110 682 1124 l 607 1107 z "},"Ỗ":{"ha":971,"x_min":58,"x_max":913,"o":"m 592 1199 q 499 1215 558 1199 l 381 1253 l 274 1204 l 235 1242 l 285 1307 q 328 1342 304 1332 q 381 1353 351 1353 q 472 1336 415 1353 l 592 1299 l 699 1347 l 738 1310 l 686 1244 q 592 1199 653 1199 m 390 1097 l 414 1115 q 459 1150 442 1138 q 486 1163 476 1163 q 515 1152 499 1163 q 557 1118 531 1142 l 582 1097 l 704 1000 l 660 939 l 479 1028 l 299 940 l 263 993 l 390 1097 m 476 -21 q 166 99 274 -21 q 58 435 58 218 q 112 683 58 572 q 267 856 165 793 q 508 919 369 919 q 806 799 700 919 q 913 468 913 679 q 865 216 913 326 q 719 42 817 106 q 476 -21 621 -21 m 504 69 q 688 160 631 69 q 746 439 746 251 q 715 674 746 589 q 628 793 685 760 q 488 826 572 826 q 346 799 401 826 q 258 690 290 771 q 225 451 225 608 q 294 158 225 247 q 504 69 363 69 z "},"Ȍ":{"ha":971,"x_min":58,"x_max":913,"o":"m 58 0 m 476 -21 q 166 99 274 -21 q 58 435 58 218 q 112 683 58 572 q 267 856 165 793 q 508 919 369 919 q 806 799 700 919 q 913 468 913 679 q 865 216 913 326 q 719 42 817 106 q 476 -21 621 -21 m 504 69 q 688 160 631 69 q 746 439 746 251 q 715 674 746 589 q 628 793 685 760 q 488 826 572 826 q 346 799 401 826 q 258 690 290 771 q 225 451 225 608 q 294 158 225 247 q 504 69 363 69 m 143 1082 q 170 1148 151 1125 q 211 1171 189 1171 q 242 1160 228 1171 q 276 1126 257 1150 l 394 981 l 353 938 l 143 1082 m 400 1082 q 428 1148 410 1125 q 468 1171 446 1171 q 501 1160 486 1171 q 535 1126 515 1150 l 653 981 l 611 938 l 400 1082 z "},"Ö":{"ha":971,"x_min":58,"x_max":913,"o":"m 333 964 q 276 988 299 964 q 254 1049 254 1011 q 278 1113 254 1086 q 340 1139 303 1139 q 398 1117 376 1139 q 419 1057 419 1094 q 396 991 419 1018 q 333 964 372 964 m 640 964 q 584 988 606 964 q 563 1049 563 1011 q 587 1113 563 1086 q 647 1139 611 1139 q 705 1117 683 1139 q 726 1057 726 1094 q 703 991 726 1018 q 640 964 679 964 m 476 -21 q 166 99 274 -21 q 58 435 58 218 q 112 683 58 572 q 267 856 165 793 q 508 919 369 919 q 806 799 700 919 q 913 468 913 679 q 865 216 913 326 q 719 42 817 106 q 476 -21 621 -21 m 504 69 q 688 160 631 69 q 746 439 746 251 q 715 674 746 589 q 628 793 685 760 q 488 826 572 826 q 346 799 401 826 q 258 690 290 771 q 225 451 225 608 q 294 158 225 247 q 504 69 363 69 z "},"Ọ":{"ha":971,"x_min":58,"x_max":913,"o":"m 58 0 m 476 -21 q 166 99 274 -21 q 58 435 58 218 q 112 683 58 572 q 267 856 165 793 q 508 919 369 919 q 806 799 700 919 q 913 468 913 679 q 865 216 913 326 q 719 42 817 106 q 476 -21 621 -21 m 504 69 q 688 160 631 69 q 746 439 746 251 q 715 674 746 589 q 628 793 685 760 q 488 826 572 826 q 346 799 401 826 q 258 690 290 771 q 225 451 225 608 q 294 158 225 247 q 504 69 363 69 m 481 -253 q 418 -227 442 -253 q 394 -160 394 -201 q 422 -90 394 -119 q 489 -60 449 -60 q 552 -84 528 -60 q 576 -150 576 -108 q 550 -223 576 -193 q 481 -253 524 -253 z "},"Ò":{"ha":971,"x_min":58,"x_max":913,"o":"m 325 1054 q 341 1134 324 1104 q 388 1164 358 1164 q 416 1154 399 1164 q 450 1133 433 1144 l 636 997 l 606 942 l 325 1054 m 476 -21 q 166 99 274 -21 q 58 435 58 218 q 112 683 58 572 q 267 856 165 793 q 508 919 369 919 q 806 799 700 919 q 913 468 913 679 q 865 216 913 326 q 719 42 817 106 q 476 -21 621 -21 m 504 69 q 688 160 631 69 q 746 439 746 251 q 715 674 746 589 q 628 793 685 760 q 488 826 572 826 q 346 799 401 826 q 258 690 290 771 q 225 451 225 608 q 294 158 225 247 q 504 69 363 69 z "},"Ỏ":{"ha":971,"x_min":58,"x_max":913,"o":"m 58 0 m 476 -21 q 166 99 274 -21 q 58 435 58 218 q 112 683 58 572 q 267 856 165 793 q 508 919 369 919 q 806 799 700 919 q 913 468 913 679 q 865 216 913 326 q 719 42 817 106 q 476 -21 621 -21 m 504 69 q 688 160 631 69 q 746 439 746 251 q 715 674 746 589 q 628 793 685 760 q 488 826 572 826 q 346 799 401 826 q 258 690 290 771 q 225 451 225 608 q 294 158 225 247 q 504 69 363 69 m 444 938 q 435 967 435 953 q 447 994 435 982 q 488 1018 460 1006 q 522 1038 511 1028 q 532 1064 532 1049 q 469 1092 532 1092 q 385 1081 429 1092 q 368 1128 368 1107 q 388 1161 368 1150 q 460 1172 407 1172 q 592 1147 544 1172 q 639 1071 639 1121 q 563 981 639 1010 q 528 963 536 971 q 522 940 519 954 l 444 938 z "},"Ơ":{"ha":971,"x_min":58,"x_max":1038,"o":"m 1038 914 q 998 816 1038 869 q 868 703 958 763 q 913 468 913 603 q 865 216 913 326 q 719 42 817 106 q 476 -21 621 -21 q 166 99 274 -21 q 58 435 58 218 q 112 683 58 572 q 267 856 165 793 q 508 919 369 919 q 710 874 624 919 q 846 744 796 829 q 935 876 935 813 q 928 901 935 892 q 908 921 922 911 l 908 942 l 993 1000 q 1026 967 1014 983 q 1038 914 1038 950 m 504 69 q 688 160 631 69 q 746 439 746 251 q 715 674 746 589 q 628 793 685 760 q 488 826 572 826 q 346 799 401 826 q 258 690 290 771 q 225 451 225 608 q 294 158 225 247 q 504 69 363 69 z "},"Ớ":{"ha":971,"x_min":58,"x_max":1038,"o":"m 58 0 m 1038 914 q 998 816 1038 869 q 868 703 958 763 q 913 468 913 603 q 865 216 913 326 q 719 42 817 106 q 476 -21 621 -21 q 166 99 274 -21 q 58 435 58 218 q 112 683 58 572 q 267 856 165 793 q 508 919 369 919 q 710 874 624 919 q 846 744 796 829 q 935 876 935 813 q 928 901 935 892 q 908 921 922 911 l 908 942 l 993 1000 q 1026 967 1014 983 q 1038 914 1038 950 m 504 69 q 688 160 631 69 q 746 439 746 251 q 715 674 746 589 q 628 793 685 760 q 488 826 572 826 q 346 799 401 826 q 258 690 290 771 q 225 451 225 608 q 294 158 225 247 q 504 69 363 69 m 399 997 l 586 1133 q 604 1145 590 1136 q 629 1159 618 1154 q 649 1164 640 1164 q 694 1134 678 1164 q 710 1054 711 1104 l 431 942 l 399 997 z "},"Ợ":{"ha":971,"x_min":58,"x_max":1038,"o":"m 58 0 m 1038 914 q 998 816 1038 869 q 868 703 958 763 q 913 468 913 603 q 865 216 913 326 q 719 42 817 106 q 476 -21 621 -21 q 166 99 274 -21 q 58 435 58 218 q 112 683 58 572 q 267 856 165 793 q 508 919 369 919 q 710 874 624 919 q 846 744 796 829 q 935 876 935 813 q 928 901 935 892 q 908 921 922 911 l 908 942 l 993 1000 q 1026 967 1014 983 q 1038 914 1038 950 m 504 69 q 688 160 631 69 q 746 439 746 251 q 715 674 746 589 q 628 793 685 760 q 488 826 572 826 q 346 799 401 826 q 258 690 290 771 q 225 451 225 608 q 294 158 225 247 q 504 69 363 69 m 481 -253 q 418 -227 442 -253 q 394 -160 394 -201 q 422 -90 394 -119 q 489 -60 449 -60 q 552 -84 528 -60 q 576 -150 576 -108 q 550 -223 576 -193 q 481 -253 524 -253 z "},"Ờ":{"ha":971,"x_min":58,"x_max":1038,"o":"m 58 0 m 1038 914 q 998 816 1038 869 q 868 703 958 763 q 913 468 913 603 q 865 216 913 326 q 719 42 817 106 q 476 -21 621 -21 q 166 99 274 -21 q 58 435 58 218 q 112 683 58 572 q 267 856 165 793 q 508 919 369 919 q 710 874 624 919 q 846 744 796 829 q 935 876 935 813 q 928 901 935 892 q 908 921 922 911 l 908 942 l 993 1000 q 1026 967 1014 983 q 1038 914 1038 950 m 504 69 q 688 160 631 69 q 746 439 746 251 q 715 674 746 589 q 628 793 685 760 q 488 826 572 826 q 346 799 401 826 q 258 690 290 771 q 225 451 225 608 q 294 158 225 247 q 504 69 363 69 m 276 1054 q 292 1134 275 1104 q 338 1164 308 1164 q 366 1154 349 1164 q 400 1133 383 1144 l 588 997 l 556 942 l 276 1054 z "},"Ở":{"ha":971,"x_min":58,"x_max":1038,"o":"m 58 0 m 1038 914 q 998 816 1038 869 q 868 703 958 763 q 913 468 913 603 q 865 216 913 326 q 719 42 817 106 q 476 -21 621 -21 q 166 99 274 -21 q 58 435 58 218 q 112 683 58 572 q 267 856 165 793 q 508 919 369 919 q 710 874 624 919 q 846 744 796 829 q 935 876 935 813 q 928 901 935 892 q 908 921 922 911 l 908 942 l 993 1000 q 1026 967 1014 983 q 1038 914 1038 950 m 504 69 q 688 160 631 69 q 746 439 746 251 q 715 674 746 589 q 628 793 685 760 q 488 826 572 826 q 346 799 401 826 q 258 690 290 771 q 225 451 225 608 q 294 158 225 247 q 504 69 363 69 m 444 938 q 435 967 435 953 q 447 994 435 982 q 488 1018 460 1006 q 522 1038 511 1028 q 532 1064 532 1049 q 469 1092 532 1092 q 385 1081 429 1092 q 368 1128 368 1107 q 388 1161 368 1150 q 460 1172 407 1172 q 592 1147 544 1172 q 639 1071 639 1121 q 563 981 639 1010 q 528 963 536 971 q 522 940 519 954 l 444 938 z "},"Ỡ":{"ha":971,"x_min":58,"x_max":1038,"o":"m 58 0 m 1038 914 q 998 816 1038 869 q 868 703 958 763 q 913 468 913 603 q 865 216 913 326 q 719 42 817 106 q 476 -21 621 -21 q 166 99 274 -21 q 58 435 58 218 q 112 683 58 572 q 267 856 165 793 q 508 919 369 919 q 710 874 624 919 q 846 744 796 829 q 935 876 935 813 q 928 901 935 892 q 908 921 922 911 l 908 942 l 993 1000 q 1026 967 1014 983 q 1038 914 1038 950 m 504 69 q 688 160 631 69 q 746 439 746 251 q 715 674 746 589 q 628 793 685 760 q 488 826 572 826 q 346 799 401 826 q 258 690 290 771 q 225 451 225 608 q 294 158 225 247 q 504 69 363 69 m 592 971 q 499 989 556 971 l 381 1028 l 274 976 l 235 1017 l 285 1086 q 328 1124 304 1114 q 381 1135 351 1135 q 472 1117 418 1135 l 592 1078 l 699 1129 l 738 1089 l 686 1019 q 592 971 653 971 z "},"Ő":{"ha":971,"x_min":58,"x_max":913,"o":"m 260 981 l 379 1126 q 413 1161 399 1151 q 444 1171 426 1171 q 485 1148 467 1171 q 513 1082 503 1125 l 303 938 l 260 981 m 518 981 l 636 1126 q 672 1161 657 1151 q 703 1171 686 1171 q 743 1148 725 1171 q 771 1082 761 1125 l 560 938 l 518 981 m 476 -21 q 166 99 274 -21 q 58 435 58 218 q 112 683 58 572 q 267 856 165 793 q 508 919 369 919 q 806 799 700 919 q 913 468 913 679 q 865 216 913 326 q 719 42 817 106 q 476 -21 621 -21 m 504 69 q 688 160 631 69 q 746 439 746 251 q 715 674 746 589 q 628 793 685 760 q 488 826 572 826 q 346 799 401 826 q 258 690 290 771 q 225 451 225 608 q 294 158 225 247 q 504 69 363 69 z "},"Ȏ":{"ha":971,"x_min":58,"x_max":913,"o":"m 58 0 m 476 -21 q 166 99 274 -21 q 58 435 58 218 q 112 683 58 572 q 267 856 165 793 q 508 919 369 919 q 806 799 700 919 q 913 468 913 679 q 865 216 913 326 q 719 42 817 106 q 476 -21 621 -21 m 504 69 q 688 160 631 69 q 746 439 746 251 q 715 674 746 589 q 628 793 685 760 q 488 826 572 826 q 346 799 401 826 q 258 690 290 771 q 225 451 225 608 q 294 158 225 247 q 504 69 363 69 m 608 963 q 594 990 608 967 q 550 1034 579 1014 q 476 1054 521 1054 q 392 1035 426 1054 q 339 992 357 1015 q 321 965 321 969 l 272 986 q 294 1037 272 994 q 361 1116 315 1079 q 479 1153 407 1153 q 611 1119 563 1153 q 678 1047 660 1085 q 697 999 697 1010 l 608 963 z "},"Ō":{"ha":981,"x_min":64,"x_max":918,"o":"m 260 1004 l 274 1094 l 742 1094 l 726 1004 l 260 1004 m 482 -21 q 172 99 279 -21 q 64 435 64 218 q 117 683 64 572 q 273 856 171 793 q 514 919 375 919 q 731 865 640 919 q 870 709 822 811 q 918 468 918 607 q 870 216 918 326 q 724 42 822 106 q 482 -21 626 -21 m 508 69 q 694 160 636 69 q 751 439 751 251 q 720 674 751 589 q 633 793 689 760 q 492 826 576 826 q 350 799 406 826 q 262 690 294 771 q 229 451 229 608 q 298 158 229 247 q 508 69 367 69 z "},"Ǫ":{"ha":971,"x_min":58,"x_max":913,"o":"m 678 21 q 575 -114 575 -54 q 631 -171 575 -171 q 708 -143 660 -171 l 736 -189 q 715 -209 736 -190 q 662 -244 693 -228 q 593 -260 631 -260 q 506 -233 539 -260 q 472 -157 472 -207 q 554 -15 472 -79 q 476 -21 521 -21 q 166 99 274 -21 q 58 435 58 218 q 112 683 58 572 q 267 856 165 793 q 508 919 369 919 q 806 799 700 919 q 913 468 913 679 q 853 193 913 311 q 678 21 794 75 m 225 451 q 294 158 225 247 q 504 69 363 69 q 688 160 631 69 q 746 439 746 251 q 715 674 746 589 q 628 793 685 760 q 488 826 572 826 q 346 799 401 826 q 258 690 290 771 q 225 451 225 608 z "},"Ø":{"ha":971,"x_min":58,"x_max":913,"o":"m 246 35 q 106 190 153 89 q 58 435 58 292 q 112 683 58 572 q 267 856 165 793 q 508 919 369 919 q 621 907 558 919 l 663 1000 l 750 961 l 711 874 q 860 717 808 821 q 913 468 913 614 q 865 216 913 326 q 719 42 817 106 q 476 -21 621 -21 q 336 -3 406 -21 l 294 -101 l 204 -62 l 246 35 m 581 814 q 488 826 539 826 q 346 799 401 826 q 258 690 290 771 q 225 451 225 608 q 297 157 225 249 l 581 814 m 376 93 q 504 69 428 69 q 688 160 631 69 q 746 439 746 251 q 725 640 746 563 q 664 761 704 718 l 376 93 z "},"Ǿ":{"ha":971,"x_min":58,"x_max":913,"o":"m 58 0 m 246 35 q 106 190 153 89 q 58 435 58 292 q 112 683 58 572 q 267 856 165 793 q 508 919 369 919 q 621 907 558 919 l 663 1000 l 750 961 l 711 874 q 860 717 808 821 q 913 468 913 614 q 865 216 913 326 q 719 42 817 106 q 476 -21 621 -21 q 336 -3 406 -21 l 294 -101 l 204 -62 l 246 35 m 581 814 q 488 826 539 826 q 346 799 401 826 q 258 690 290 771 q 225 451 225 608 q 297 157 225 249 l 581 814 m 376 93 q 504 69 428 69 q 688 160 631 69 q 746 439 746 251 q 725 640 746 563 q 664 761 704 718 l 376 93 m 335 997 l 522 1133 q 540 1145 526 1136 q 565 1159 554 1154 q 585 1164 576 1164 q 631 1134 614 1164 q 646 1054 647 1104 l 367 942 l 335 997 z "},"Õ":{"ha":971,"x_min":58,"x_max":913,"o":"m 600 971 q 508 989 565 971 l 390 1028 l 283 976 l 244 1017 l 294 1086 q 336 1124 313 1114 q 390 1135 360 1135 q 482 1117 425 1135 l 600 1078 l 708 1129 l 746 1089 l 696 1019 q 654 981 678 992 q 600 971 631 971 m 476 -21 q 166 99 274 -21 q 58 435 58 218 q 112 683 58 572 q 267 856 165 793 q 508 919 369 919 q 806 799 700 919 q 913 468 913 679 q 865 216 913 326 q 719 42 817 106 q 476 -21 621 -21 m 504 69 q 688 160 631 69 q 746 439 746 251 q 715 674 746 589 q 628 793 685 760 q 488 826 572 826 q 346 799 401 826 q 258 690 290 771 q 225 451 225 608 q 294 158 225 247 q 504 69 363 69 z "},"Œ":{"ha":1250,"x_min":58,"x_max":1185,"o":"m 494 0 q 58 435 58 0 q 113 676 58 571 q 272 841 168 782 q 515 900 375 900 l 1172 900 l 1172 663 l 1097 663 l 1065 815 l 890 815 l 776 806 l 776 500 l 972 500 l 996 586 l 1060 586 l 1060 328 l 996 328 l 972 418 l 776 418 l 776 97 q 907 88 835 88 l 1076 88 l 1110 242 l 1185 242 l 1185 0 l 494 0 m 513 82 q 633 104 590 82 l 633 794 q 511 814 588 814 q 365 788 426 814 q 264 681 303 761 q 225 451 225 601 q 297 168 225 254 q 513 82 368 82 z "},"P":{"ha":792,"x_min":68,"x_max":771,"o":"m 68 65 l 182 90 l 182 811 l 68 835 l 68 900 l 428 900 q 683 845 594 900 q 771 663 771 790 q 681 439 771 517 q 440 361 590 361 q 392 364 425 361 l 385 422 q 560 474 503 425 q 618 633 618 522 q 425 813 618 813 q 363 810 393 813 q 325 807 333 808 l 325 93 l 467 68 l 467 0 l 68 0 l 68 65 z "},"Þ":{"ha":788,"x_min":72,"x_max":751,"o":"m 72 67 l 185 89 l 185 811 l 72 833 l 72 900 l 442 900 l 442 833 l 329 811 l 329 708 l 450 708 q 678 658 606 708 q 751 490 751 608 q 419 210 751 210 l 329 210 l 329 89 l 442 67 l 442 0 l 72 0 l 72 67 m 400 290 q 554 331 507 290 q 601 465 601 371 q 559 586 601 550 q 428 622 517 622 l 329 621 l 329 290 l 400 290 z "},"Q":{"ha":978,"x_min":58,"x_max":972,"o":"m 528 -60 q 480 -33 506 -44 q 413 -14 454 -21 q 150 118 242 -1 q 58 440 58 238 q 115 681 58 571 q 273 855 171 790 q 508 919 375 919 q 806 801 700 919 q 913 474 913 682 q 842 188 913 319 q 621 7 772 56 l 826 -115 l 972 -115 l 972 -171 q 944 -186 967 -175 q 888 -208 921 -197 q 825 -219 856 -219 q 715 -187 765 -219 l 528 -60 m 510 71 q 689 165 632 71 q 746 450 746 258 q 715 678 746 596 q 627 794 683 761 q 488 826 571 826 q 346 799 401 826 q 258 691 290 772 q 225 456 225 610 q 297 165 225 258 q 510 71 369 71 z "},"R":{"ha":856,"x_min":68,"x_max":851,"o":"m 68 65 l 182 90 l 182 811 l 68 835 l 68 900 l 461 900 q 679 844 600 900 q 758 668 758 789 q 706 501 758 560 q 567 404 654 442 l 754 90 l 851 65 l 851 0 l 688 0 q 610 43 633 0 l 426 375 l 325 375 l 325 90 l 439 65 l 439 0 l 68 0 l 68 65 m 399 461 q 548 513 492 461 q 604 651 604 564 q 556 778 604 744 q 425 813 507 813 q 325 807 378 813 l 325 461 l 399 461 z "},"Ŕ":{"ha":860,"x_min":68,"x_max":849,"o":"m 278 997 l 465 1133 q 483 1145 469 1136 q 508 1159 497 1154 q 528 1164 519 1164 q 574 1134 557 1164 q 589 1054 590 1104 l 310 942 l 278 997 m 68 65 l 182 90 l 182 811 l 68 835 l 68 900 l 461 900 q 679 844 600 900 q 758 668 758 789 q 706 499 758 560 q 565 404 653 439 l 751 90 l 849 65 l 849 0 l 689 0 q 611 43 635 0 l 426 375 l 325 375 l 325 90 l 439 65 l 439 0 l 68 0 l 68 65 m 399 461 q 549 513 492 461 q 606 651 606 564 q 557 778 606 744 q 426 813 508 813 q 325 807 381 813 l 325 461 l 399 461 z "},"Ř":{"ha":860,"x_min":68,"x_max":849,"o":"m 424 939 q 395 950 411 939 q 349 986 379 961 l 326 1004 l 204 1101 l 250 1163 l 431 1074 l 610 1161 l 647 1108 l 519 1004 l 493 982 q 449 949 464 958 q 424 939 435 939 m 68 65 l 182 90 l 182 811 l 68 835 l 68 900 l 461 900 q 679 844 600 900 q 758 668 758 789 q 706 499 758 560 q 565 404 653 439 l 751 90 l 849 65 l 849 0 l 689 0 q 611 43 635 0 l 426 375 l 325 375 l 325 90 l 439 65 l 439 0 l 68 0 l 68 65 m 399 461 q 549 513 492 461 q 606 651 606 564 q 557 778 606 744 q 426 813 508 813 q 325 807 381 813 l 325 461 l 399 461 z "},"Ŗ":{"ha":860,"x_min":68,"x_max":849,"o":"m 68 65 l 182 90 l 182 811 l 68 835 l 68 900 l 461 900 q 679 844 600 900 q 758 668 758 789 q 706 499 758 560 q 565 404 653 439 l 751 90 l 849 65 l 849 0 l 689 0 q 611 43 635 0 l 426 375 l 325 375 l 325 90 l 439 65 l 439 0 l 68 0 l 68 65 m 399 461 q 549 513 492 461 q 606 651 606 564 q 557 778 606 744 q 426 813 508 813 q 325 807 381 813 l 325 461 l 399 461 m 394 -271 q 417 -154 417 -204 q 383 -72 417 -103 q 415 -47 397 -56 q 450 -37 433 -37 q 505 -60 486 -37 q 524 -114 524 -83 q 506 -190 524 -156 q 465 -249 488 -225 q 443 -271 443 -274 l 394 -271 z "},"Ȑ":{"ha":856,"x_min":68,"x_max":851,"o":"m 68 0 m 68 65 l 182 90 l 182 811 l 68 835 l 68 900 l 461 900 q 679 844 600 900 q 758 668 758 789 q 706 501 758 560 q 567 404 654 442 l 754 90 l 851 65 l 851 0 l 688 0 q 610 43 633 0 l 426 375 l 325 375 l 325 90 l 439 65 l 439 0 l 68 0 l 68 65 m 399 461 q 548 513 492 461 q 604 651 604 564 q 556 778 604 744 q 425 813 507 813 q 325 807 378 813 l 325 461 l 399 461 m 85 1082 q 112 1148 93 1125 q 153 1171 131 1171 q 184 1160 169 1171 q 218 1126 199 1150 l 336 981 l 294 938 l 85 1082 m 342 1082 q 369 1148 351 1125 q 410 1171 388 1171 q 442 1160 428 1171 q 476 1126 457 1150 l 594 981 l 553 938 l 342 1082 z "},"Ṛ":{"ha":856,"x_min":68,"x_max":851,"o":"m 68 0 m 68 65 l 182 90 l 182 811 l 68 835 l 68 900 l 461 900 q 679 844 600 900 q 758 668 758 789 q 706 501 758 560 q 567 404 654 442 l 754 90 l 851 65 l 851 0 l 688 0 q 610 43 633 0 l 426 375 l 325 375 l 325 90 l 439 65 l 439 0 l 68 0 l 68 65 m 399 461 q 548 513 492 461 q 604 651 604 564 q 556 778 604 744 q 425 813 507 813 q 325 807 378 813 l 325 461 l 399 461 m 460 -253 q 397 -227 421 -253 q 374 -160 374 -201 q 401 -90 374 -119 q 468 -60 428 -60 q 531 -84 507 -60 q 556 -150 556 -108 q 529 -223 556 -193 q 460 -253 503 -253 z "},"Ȓ":{"ha":856,"x_min":68,"x_max":851,"o":"m 68 0 m 68 65 l 182 90 l 182 811 l 68 835 l 68 900 l 461 900 q 679 844 600 900 q 758 668 758 789 q 706 501 758 560 q 567 404 654 442 l 754 90 l 851 65 l 851 0 l 688 0 q 610 43 633 0 l 426 375 l 325 375 l 325 90 l 439 65 l 439 0 l 68 0 l 68 65 m 399 461 q 548 513 492 461 q 604 651 604 564 q 556 778 604 744 q 425 813 507 813 q 325 807 378 813 l 325 461 l 399 461 m 550 963 q 535 990 550 967 q 492 1034 521 1014 q 418 1054 463 1054 q 333 1035 368 1054 q 281 992 299 1015 q 263 965 263 969 l 214 986 q 235 1037 214 994 q 303 1116 257 1079 q 421 1153 349 1153 q 553 1119 504 1153 q 620 1047 601 1085 q 639 999 639 1010 l 550 963 z "},"S":{"ha":724,"x_min":72,"x_max":663,"o":"m 349 -17 q 183 6 261 -17 q 72 57 106 29 l 72 269 l 154 269 l 178 129 q 254 90 207 106 q 342 74 301 74 q 483 108 440 74 q 526 221 526 143 q 506 294 526 265 q 449 344 485 324 q 343 392 413 364 q 199 452 247 428 q 112 527 150 476 q 74 661 74 578 q 156 849 74 778 q 379 919 239 919 q 519 908 446 919 q 624 885 593 897 l 624 661 l 547 661 l 521 797 q 481 813 518 799 q 378 826 444 826 q 249 794 285 826 q 213 700 213 761 q 240 622 213 653 q 302 576 267 592 q 418 529 338 560 q 547 468 496 499 q 630 387 597 438 q 663 260 663 336 q 617 101 663 163 q 500 11 571 39 q 349 -17 429 -17 z "},"Ś":{"ha":724,"x_min":72,"x_max":663,"o":"m 238 997 l 425 1133 q 459 1154 442 1144 q 488 1164 476 1164 q 533 1134 517 1164 q 549 1054 550 1104 l 269 942 l 238 997 m 349 -17 q 183 6 261 -17 q 72 57 106 29 l 72 269 l 154 269 l 178 129 q 254 90 207 106 q 342 74 301 74 q 483 108 440 74 q 526 221 526 143 q 506 294 526 265 q 449 344 485 324 q 343 392 413 364 q 199 452 247 428 q 112 527 150 476 q 74 661 74 578 q 156 849 74 778 q 379 919 239 919 q 519 908 446 919 q 624 885 593 897 l 624 661 l 547 661 l 521 797 q 481 813 518 799 q 378 826 444 826 q 249 794 285 826 q 213 700 213 761 q 240 622 213 653 q 302 576 267 592 q 418 529 338 560 q 547 468 496 499 q 630 387 597 438 q 663 260 663 336 q 617 101 663 163 q 500 11 571 39 q 349 -17 429 -17 z "},"Ꞌ":{"ha":183,"x_min":25,"x_max":158,"o":"m 25 494 m 25 899 q 101 918 68 918 q 158 865 158 918 q 138 724 158 822 l 88 494 l 25 494 l 25 899 z "},"Š":{"ha":724,"x_min":72,"x_max":663,"o":"m 367 939 q 340 949 354 939 q 296 983 326 958 l 271 1004 l 147 1101 l 193 1163 l 374 1074 l 554 1161 l 590 1108 l 464 1004 l 442 986 q 395 949 411 960 q 367 939 379 939 m 349 -17 q 183 6 261 -17 q 72 57 106 29 l 72 269 l 154 269 l 178 129 q 254 90 207 106 q 342 74 301 74 q 483 108 440 74 q 526 221 526 143 q 506 294 526 265 q 449 344 485 324 q 343 392 413 364 q 199 452 247 428 q 112 527 150 476 q 74 661 74 578 q 156 849 74 778 q 379 919 239 919 q 519 908 446 919 q 624 885 593 897 l 624 661 l 547 661 l 521 797 q 481 813 518 799 q 378 826 444 826 q 249 794 285 826 q 213 700 213 761 q 240 622 213 653 q 302 576 267 592 q 418 529 338 560 q 547 468 496 499 q 630 387 597 438 q 663 260 663 336 q 617 101 663 163 q 500 11 571 39 q 349 -17 429 -17 z "},"Ş":{"ha":724,"x_min":74,"x_max":664,"o":"m 339 -262 q 283 -257 307 -262 q 232 -239 258 -251 l 257 -183 q 335 -200 297 -200 q 406 -160 406 -200 q 397 -134 406 -142 q 367 -122 389 -126 l 318 -112 l 290 -85 l 319 -15 q 172 10 240 -11 q 74 57 103 32 l 74 269 l 156 269 l 179 129 q 255 90 208 106 q 342 74 301 74 q 485 106 442 74 q 528 221 528 139 q 487 318 528 283 q 350 389 446 353 q 203 450 254 425 q 114 526 153 475 q 75 661 75 578 q 158 849 75 778 q 381 919 240 919 q 520 908 447 919 q 625 885 593 897 l 625 661 l 549 661 l 522 797 q 454 818 493 810 q 379 826 415 826 q 249 794 285 826 q 214 700 214 763 q 239 626 214 656 q 301 578 264 596 q 408 533 339 560 q 542 472 490 501 q 629 390 594 442 q 664 260 664 339 q 584 62 664 129 q 388 -15 504 -6 l 388 -40 l 413 -47 q 486 -76 461 -58 q 511 -136 511 -94 q 463 -232 511 -201 q 339 -262 415 -262 z "},"Ŝ":{"ha":724,"x_min":72,"x_max":663,"o":"m 72 0 m 349 -17 q 183 6 261 -17 q 72 57 106 29 l 72 269 l 154 269 l 178 129 q 254 90 207 106 q 342 74 301 74 q 483 108 440 74 q 526 221 526 143 q 506 294 526 265 q 449 344 485 324 q 343 392 413 364 q 199 452 247 428 q 112 527 150 476 q 74 661 74 578 q 156 849 74 778 q 379 919 239 919 q 519 908 446 919 q 624 885 593 897 l 624 661 l 547 661 l 521 797 q 481 813 518 799 q 378 826 444 826 q 249 794 285 826 q 213 700 213 761 q 240 622 213 653 q 302 576 267 592 q 418 529 338 560 q 547 468 496 499 q 630 387 597 438 q 663 260 663 336 q 617 101 663 163 q 500 11 571 39 q 349 -17 429 -17 m 268 1097 l 292 1115 q 337 1150 319 1138 q 364 1163 354 1163 q 392 1152 376 1163 q 435 1118 408 1142 l 460 1097 l 582 1000 l 538 939 l 357 1028 l 176 940 l 140 993 l 268 1097 z "},"Ș":{"ha":724,"x_min":74,"x_max":664,"o":"m 350 -17 q 184 6 263 -17 q 74 57 106 29 l 74 269 l 156 269 l 179 129 q 255 90 208 106 q 342 74 301 74 q 485 107 443 74 q 528 221 528 140 q 507 295 528 265 q 449 345 486 325 q 346 390 413 365 q 202 451 253 425 q 113 528 151 476 q 75 661 75 579 q 158 849 75 778 q 381 919 240 919 q 520 908 447 919 q 625 885 593 897 l 625 661 l 549 661 l 522 797 q 454 818 493 810 q 379 826 415 826 q 249 794 285 826 q 214 700 214 763 q 240 625 214 656 q 303 576 265 594 q 410 532 340 558 q 544 469 492 499 q 630 388 596 439 q 664 260 664 338 q 618 101 664 163 q 501 11 572 39 q 350 -17 431 -17 m 304 -271 q 326 -154 326 -204 q 293 -72 326 -103 q 361 -37 324 -37 q 415 -60 397 -37 q 433 -114 433 -83 q 415 -190 433 -156 q 375 -249 397 -225 q 353 -271 353 -274 l 304 -271 z "},"Ṣ":{"ha":724,"x_min":72,"x_max":663,"o":"m 72 0 m 349 -17 q 183 6 261 -17 q 72 57 106 29 l 72 269 l 154 269 l 178 129 q 254 90 207 106 q 342 74 301 74 q 483 108 440 74 q 526 221 526 143 q 506 294 526 265 q 449 344 485 324 q 343 392 413 364 q 199 452 247 428 q 112 527 150 476 q 74 661 74 578 q 156 849 74 778 q 379 919 239 919 q 519 908 446 919 q 624 885 593 897 l 624 661 l 547 661 l 521 797 q 481 813 518 799 q 378 826 444 826 q 249 794 285 826 q 213 700 213 761 q 240 622 213 653 q 302 576 267 592 q 418 529 338 560 q 547 468 496 499 q 630 387 597 438 q 663 260 663 336 q 617 101 663 163 q 500 11 571 39 q 349 -17 429 -17 m 356 -253 q 293 -227 317 -253 q 269 -160 269 -201 q 297 -90 269 -119 q 364 -60 324 -60 q 427 -84 403 -60 q 451 -150 451 -108 q 425 -223 451 -193 q 356 -253 399 -253 z "},"ẞ":{"ha":1019,"x_min":44,"x_max":960,"o":"m 688 -17 q 567 3 629 -17 q 479 43 504 22 l 479 256 l 561 256 l 583 115 q 630 87 600 100 q 699 74 660 74 q 793 113 763 74 q 824 219 824 153 q 761 360 824 314 q 581 407 699 407 l 525 407 l 525 496 l 725 788 l 725 807 q 564 826 647 826 q 360 748 419 826 q 301 514 301 669 l 301 89 l 408 67 l 408 0 l 44 0 l 44 67 l 158 89 l 158 475 q 267 800 158 681 q 589 919 376 919 q 742 908 654 919 q 893 881 831 897 l 893 792 l 692 508 l 692 496 q 886 425 813 486 q 960 249 960 364 q 921 104 960 164 q 819 14 882 44 q 688 -17 757 -17 z "},"Ə":{"ha":929,"x_min":58,"x_max":869,"o":"m 454 -21 q 161 99 264 -21 q 58 432 58 218 q 63 506 58 472 l 703 506 q 626 748 694 665 q 433 831 557 831 q 291 808 329 831 q 250 785 253 786 l 221 636 l 143 636 l 143 858 q 276 903 207 886 q 456 919 344 919 q 869 463 867 919 q 822 213 868 322 q 683 42 776 104 q 454 -21 590 -21 m 474 69 q 647 153 593 69 q 704 419 701 236 l 225 419 q 292 153 229 236 q 474 69 354 69 z "},"T":{"ha":761,"x_min":18,"x_max":746,"o":"m 197 67 l 310 89 l 310 813 l 125 813 l 93 663 l 18 663 l 18 900 l 746 900 l 746 663 l 669 663 l 639 813 l 454 813 l 454 89 l 567 67 l 567 0 l 197 0 l 197 67 z "},"Ŧ":{"ha":761,"x_min":18,"x_max":746,"o":"m 639 813 l 454 813 l 454 507 l 699 507 l 699 419 l 454 419 l 454 89 l 567 67 l 567 0 l 197 0 l 197 67 l 310 89 l 310 419 l 61 419 l 61 507 l 310 507 l 310 813 l 125 813 l 93 663 l 18 663 l 18 900 l 746 900 l 746 663 l 669 663 l 639 813 z "},"Ť":{"ha":765,"x_min":19,"x_max":746,"o":"m 388 1074 l 568 1161 l 604 1108 l 478 1004 l 446 978 q 406 948 419 957 q 381 939 392 939 q 354 949 368 939 q 310 983 340 958 q 285 1004 299 994 l 161 1101 l 207 1163 l 388 1074 m 199 67 l 311 89 l 311 813 l 125 813 l 94 663 l 19 663 l 19 900 l 746 900 l 746 663 l 671 663 l 640 813 l 456 813 l 456 89 l 568 67 l 568 0 l 199 0 l 199 67 z "},"Ţ":{"ha":765,"x_min":19,"x_max":746,"o":"m 367 -262 q 310 -257 335 -262 q 260 -239 286 -251 l 283 -183 q 361 -200 326 -200 q 415 -190 397 -200 q 433 -160 433 -181 q 424 -134 433 -142 q 394 -122 415 -126 l 346 -112 l 318 -85 l 354 0 l 199 0 l 199 67 l 311 89 l 311 813 l 125 813 l 94 663 l 19 663 l 19 900 l 746 900 l 746 663 l 671 663 l 640 813 l 456 813 l 456 89 l 568 67 l 568 0 l 414 0 l 414 -40 l 440 -47 q 513 -76 489 -58 q 538 -136 538 -94 q 490 -232 538 -201 q 367 -262 443 -262 z "},"Ț":{"ha":765,"x_min":19,"x_max":746,"o":"m 199 0 l 199 67 l 311 89 l 311 813 l 125 813 l 94 663 l 19 663 l 19 900 l 746 900 l 746 663 l 671 663 l 640 813 l 456 813 l 456 89 l 568 67 l 568 0 l 199 0 m 325 -271 q 347 -154 347 -204 q 314 -72 347 -103 q 382 -37 344 -37 q 436 -60 418 -37 q 454 -114 454 -83 q 436 -190 454 -156 q 396 -249 418 -225 q 374 -271 374 -274 l 325 -271 z "},"Ṭ":{"ha":761,"x_min":18,"x_max":746,"o":"m 18 0 m 197 67 l 310 89 l 310 813 l 125 813 l 93 663 l 18 663 l 18 900 l 746 900 l 746 663 l 669 663 l 639 813 l 454 813 l 454 89 l 567 67 l 567 0 l 197 0 l 197 67 m 375 -253 q 313 -227 336 -253 q 289 -160 289 -201 q 316 -90 289 -119 q 383 -60 343 -60 q 447 -84 422 -60 q 471 -150 471 -108 q 444 -223 471 -193 q 375 -253 418 -253 z "},"U":{"ha":997,"x_min":44,"x_max":961,"o":"m 44 833 l 44 900 l 413 900 l 413 833 l 301 811 l 301 386 q 322 197 301 261 q 390 106 342 132 q 533 81 439 81 q 660 113 614 81 q 724 210 706 144 q 743 386 743 276 l 743 810 l 631 832 l 631 900 l 961 900 l 961 832 l 849 810 l 849 386 q 818 156 849 243 q 710 24 788 68 q 496 -21 633 -21 q 290 22 363 -21 q 188 153 217 65 q 158 386 158 240 l 158 811 l 44 833 z "},"Ú":{"ha":997,"x_min":44,"x_max":961,"o":"m 390 997 l 576 1133 q 597 1147 583 1138 q 621 1160 611 1156 q 639 1164 631 1164 q 686 1134 669 1164 q 701 1054 703 1104 l 422 942 l 390 997 m 496 -21 q 290 22 363 -21 q 188 153 217 65 q 158 386 158 240 l 158 811 l 44 833 l 44 900 l 413 900 l 413 833 l 301 811 l 301 386 q 322 197 301 261 q 390 106 342 132 q 533 81 439 81 q 660 113 615 81 q 724 210 706 144 q 743 386 743 275 l 743 810 l 631 832 l 631 900 l 961 900 l 961 832 l 849 810 l 849 386 q 817 156 849 244 q 708 24 785 68 q 496 -21 631 -21 z "},"Ŭ":{"ha":997,"x_min":44,"x_max":961,"o":"m 44 0 m 44 833 l 44 900 l 413 900 l 413 833 l 301 811 l 301 386 q 322 197 301 261 q 390 106 342 132 q 533 81 439 81 q 660 113 614 81 q 724 210 706 144 q 743 386 743 276 l 743 810 l 631 832 l 631 900 l 961 900 l 961 832 l 849 810 l 849 386 q 818 156 849 243 q 710 24 788 68 q 496 -21 633 -21 q 290 22 363 -21 q 188 153 217 65 q 158 386 158 240 l 158 811 l 44 833 m 375 1153 q 390 1125 375 1149 q 433 1081 404 1101 q 506 1061 461 1061 q 590 1081 556 1061 q 643 1123 625 1100 q 661 1150 661 1146 l 710 1129 q 688 1078 710 1121 q 621 999 667 1036 q 503 963 575 963 q 371 997 419 963 q 303 1068 322 1031 q 285 1117 285 1106 l 375 1153 z "},"Ǔ":{"ha":997,"x_min":44,"x_max":961,"o":"m 44 0 m 44 833 l 44 900 l 413 900 l 413 833 l 301 811 l 301 386 q 322 197 301 261 q 390 106 342 132 q 533 81 439 81 q 660 113 614 81 q 724 210 706 144 q 743 386 743 276 l 743 810 l 631 832 l 631 900 l 961 900 l 961 832 l 849 810 l 849 386 q 818 156 849 243 q 710 24 788 68 q 496 -21 633 -21 q 290 22 363 -21 q 188 153 217 65 q 158 386 158 240 l 158 811 l 44 833 m 503 1074 l 683 1161 l 719 1108 l 593 1004 l 561 978 q 521 948 535 957 q 496 939 507 939 q 469 949 483 939 q 425 983 456 958 q 400 1004 414 994 l 276 1101 l 322 1163 l 503 1074 z "},"Û":{"ha":997,"x_min":44,"x_max":961,"o":"m 425 1097 l 447 1115 q 497 1153 482 1143 q 522 1163 511 1163 q 547 1153 533 1163 q 590 1119 560 1144 q 617 1097 618 1096 l 740 1000 l 694 939 l 514 1028 l 333 940 l 297 993 l 425 1097 m 44 833 l 44 900 l 413 900 l 413 833 l 301 811 l 301 386 q 322 197 301 261 q 390 106 342 132 q 533 81 439 81 q 660 113 615 81 q 724 210 706 144 q 743 386 743 275 l 743 810 l 631 832 l 631 900 l 961 900 l 961 832 l 849 810 l 849 386 q 817 156 849 244 q 708 24 785 68 q 496 -21 631 -21 q 290 22 363 -21 q 188 153 217 65 q 158 386 158 240 l 158 811 l 44 833 z "},"Ȕ":{"ha":997,"x_min":44,"x_max":961,"o":"m 44 0 m 44 833 l 44 900 l 413 900 l 413 833 l 301 811 l 301 386 q 322 197 301 261 q 390 106 342 132 q 533 81 439 81 q 660 113 614 81 q 724 210 706 144 q 743 386 743 276 l 743 810 l 631 832 l 631 900 l 961 900 l 961 832 l 849 810 l 849 386 q 818 156 849 243 q 710 24 788 68 q 496 -21 633 -21 q 290 22 363 -21 q 188 153 217 65 q 158 386 158 240 l 158 811 l 44 833 m 156 1082 q 183 1148 164 1125 q 224 1171 201 1171 q 255 1160 240 1171 q 289 1126 269 1150 l 407 981 l 365 938 l 156 1082 m 413 1082 q 440 1148 422 1125 q 481 1171 458 1171 q 513 1160 499 1171 q 547 1126 528 1150 l 665 981 l 624 938 l 413 1082 z "},"Ü":{"ha":997,"x_min":44,"x_max":961,"o":"m 360 974 q 303 997 325 974 q 281 1058 281 1021 q 305 1122 281 1096 q 367 1149 329 1149 q 424 1126 403 1149 q 446 1067 446 1104 q 422 1001 446 1028 q 360 974 399 974 m 667 974 q 610 997 632 974 q 588 1058 588 1021 q 612 1122 588 1096 q 674 1149 636 1149 q 731 1126 710 1149 q 753 1067 753 1104 q 729 1001 753 1028 q 667 974 706 974 m 496 -21 q 290 22 363 -21 q 188 153 217 65 q 158 386 158 240 l 158 811 l 44 833 l 44 900 l 413 900 l 413 833 l 301 811 l 301 386 q 322 197 301 261 q 390 106 342 132 q 533 81 439 81 q 660 113 615 81 q 724 210 706 144 q 743 386 743 275 l 743 810 l 631 832 l 631 900 l 961 900 l 961 832 l 849 810 l 849 386 q 817 156 849 244 q 708 24 785 68 q 496 -21 631 -21 z "},"Ǘ":{"ha":997,"x_min":44,"x_max":961,"o":"m 44 0 m 44 833 l 44 900 l 413 900 l 413 833 l 301 811 l 301 386 q 322 197 301 261 q 390 106 342 132 q 533 81 439 81 q 660 113 614 81 q 724 210 706 144 q 743 386 743 276 l 743 810 l 631 832 l 631 900 l 961 900 l 961 832 l 849 810 l 849 386 q 818 156 849 243 q 710 24 788 68 q 496 -21 633 -21 q 290 22 363 -21 q 188 153 217 65 q 158 386 158 240 l 158 811 l 44 833 m 342 957 q 285 981 307 957 q 263 1042 263 1004 q 288 1106 263 1079 q 349 1133 313 1133 q 406 1111 385 1133 q 428 1050 428 1089 q 404 984 428 1011 q 342 957 381 957 m 649 957 q 592 981 614 957 q 569 1042 569 1004 q 594 1106 569 1079 q 656 1133 619 1133 q 713 1111 692 1133 q 735 1050 735 1089 q 711 984 735 1011 q 649 957 688 957 m 414 1231 l 601 1367 q 619 1378 606 1369 q 644 1392 633 1388 q 664 1397 656 1397 q 710 1367 693 1397 q 725 1288 726 1338 l 446 1175 l 414 1231 z "},"Ǚ":{"ha":997,"x_min":44,"x_max":961,"o":"m 44 0 m 44 833 l 44 900 l 413 900 l 413 833 l 301 811 l 301 386 q 322 197 301 261 q 390 106 342 132 q 533 81 439 81 q 660 113 614 81 q 724 210 706 144 q 743 386 743 276 l 743 810 l 631 832 l 631 900 l 961 900 l 961 832 l 849 810 l 849 386 q 818 156 849 243 q 710 24 788 68 q 496 -21 633 -21 q 290 22 363 -21 q 188 153 217 65 q 158 386 158 240 l 158 811 l 44 833 m 342 957 q 285 981 307 957 q 263 1042 263 1004 q 288 1106 263 1079 q 349 1133 313 1133 q 406 1111 385 1133 q 428 1050 428 1089 q 404 984 428 1011 q 342 957 381 957 m 649 957 q 592 981 614 957 q 569 1042 569 1004 q 594 1106 569 1079 q 656 1133 619 1133 q 713 1111 692 1133 q 735 1050 735 1089 q 711 984 735 1011 q 649 957 688 957 m 506 1307 l 686 1394 l 722 1342 l 596 1238 l 564 1211 q 524 1181 538 1190 q 499 1172 510 1172 q 472 1182 486 1172 q 428 1217 458 1192 q 403 1238 417 1228 l 279 1335 l 325 1396 l 506 1307 z "},"Ǜ":{"ha":997,"x_min":44,"x_max":961,"o":"m 44 0 m 44 833 l 44 900 l 413 900 l 413 833 l 301 811 l 301 386 q 322 197 301 261 q 390 106 342 132 q 533 81 439 81 q 660 113 614 81 q 724 210 706 144 q 743 386 743 276 l 743 810 l 631 832 l 631 900 l 961 900 l 961 832 l 849 810 l 849 386 q 818 156 849 243 q 710 24 788 68 q 496 -21 633 -21 q 290 22 363 -21 q 188 153 217 65 q 158 386 158 240 l 158 811 l 44 833 m 342 957 q 285 981 307 957 q 263 1042 263 1004 q 288 1106 263 1079 q 349 1133 313 1133 q 406 1111 385 1133 q 428 1050 428 1089 q 404 984 428 1011 q 342 957 381 957 m 649 957 q 592 981 614 957 q 569 1042 569 1004 q 594 1106 569 1079 q 656 1133 619 1133 q 713 1111 692 1133 q 735 1050 735 1089 q 711 984 735 1011 q 649 957 688 957 m 292 1288 q 307 1367 290 1338 q 353 1397 324 1397 q 381 1388 364 1397 q 415 1367 399 1378 l 603 1231 l 571 1175 l 292 1288 z "},"Ǖ":{"ha":997,"x_min":44,"x_max":961,"o":"m 44 0 m 44 833 l 44 900 l 413 900 l 413 833 l 301 811 l 301 386 q 322 197 301 261 q 390 106 342 132 q 533 81 439 81 q 660 113 614 81 q 724 210 706 144 q 743 386 743 276 l 743 810 l 631 832 l 631 900 l 961 900 l 961 832 l 849 810 l 849 386 q 818 156 849 243 q 710 24 788 68 q 496 -21 633 -21 q 290 22 363 -21 q 188 153 217 65 q 158 386 158 240 l 158 811 l 44 833 m 342 957 q 285 981 307 957 q 263 1042 263 1004 q 288 1106 263 1079 q 349 1133 313 1133 q 406 1111 385 1133 q 428 1050 428 1089 q 404 984 428 1011 q 342 957 381 957 m 649 957 q 592 981 614 957 q 569 1042 569 1004 q 594 1106 569 1079 q 656 1133 619 1133 q 713 1111 692 1133 q 735 1050 735 1089 q 711 984 735 1011 q 649 957 688 957 m 275 1328 l 742 1328 l 726 1238 l 260 1238 l 275 1328 z "},"Ụ":{"ha":997,"x_min":44,"x_max":961,"o":"m 44 0 m 44 833 l 44 900 l 413 900 l 413 833 l 301 811 l 301 386 q 322 197 301 261 q 390 106 342 132 q 533 81 439 81 q 660 113 614 81 q 724 210 706 144 q 743 386 743 276 l 743 810 l 631 832 l 631 900 l 961 900 l 961 832 l 849 810 l 849 386 q 818 156 849 243 q 710 24 788 68 q 496 -21 633 -21 q 290 22 363 -21 q 188 153 217 65 q 158 386 158 240 l 158 811 l 44 833 m 493 -253 q 431 -227 454 -253 q 407 -160 407 -201 q 434 -90 407 -119 q 501 -60 461 -60 q 565 -84 540 -60 q 589 -150 589 -108 q 563 -223 589 -193 q 493 -253 536 -253 z "},"Ù":{"ha":997,"x_min":44,"x_max":961,"o":"m 336 1054 q 352 1134 335 1104 q 397 1164 369 1164 q 423 1156 408 1164 q 447 1142 438 1149 q 460 1133 456 1136 l 647 997 l 615 942 l 336 1054 m 496 -21 q 290 22 363 -21 q 188 153 217 65 q 158 386 158 240 l 158 811 l 44 833 l 44 900 l 413 900 l 413 833 l 301 811 l 301 386 q 322 197 301 261 q 390 106 342 132 q 533 81 439 81 q 660 113 615 81 q 724 210 706 144 q 743 386 743 275 l 743 810 l 631 832 l 631 900 l 961 900 l 961 832 l 849 810 l 849 386 q 817 156 849 244 q 708 24 785 68 q 496 -21 631 -21 z "},"Ủ":{"ha":997,"x_min":44,"x_max":961,"o":"m 44 0 m 44 833 l 44 900 l 413 900 l 413 833 l 301 811 l 301 386 q 322 197 301 261 q 390 106 342 132 q 533 81 439 81 q 660 113 614 81 q 724 210 706 144 q 743 386 743 276 l 743 810 l 631 832 l 631 900 l 961 900 l 961 832 l 849 810 l 849 386 q 818 156 849 243 q 710 24 788 68 q 496 -21 633 -21 q 290 22 363 -21 q 188 153 217 65 q 158 386 158 240 l 158 811 l 44 833 m 457 938 q 447 967 447 953 q 460 994 447 982 q 500 1018 472 1006 q 534 1038 524 1028 q 544 1064 544 1049 q 482 1092 544 1092 q 397 1081 442 1092 q 381 1128 381 1107 q 400 1161 381 1150 q 472 1172 419 1172 q 604 1147 557 1172 q 651 1071 651 1121 q 575 981 651 1010 q 540 963 549 971 q 535 940 532 954 l 457 938 z "},"Ư":{"ha":997,"x_min":44,"x_max":1075,"o":"m 496 -21 q 290 22 363 -21 q 188 153 217 65 q 158 386 158 240 l 158 811 l 44 833 l 44 900 l 413 900 l 413 833 l 301 811 l 301 386 q 322 197 301 261 q 390 106 342 132 q 533 81 439 81 q 660 113 614 81 q 724 210 706 144 q 743 386 743 276 l 743 810 l 631 832 l 631 900 l 883 900 q 953 912 935 900 q 972 956 972 924 q 966 981 972 971 q 946 1000 960 990 l 946 1021 l 1031 1079 q 1063 1046 1051 1063 q 1075 993 1075 1029 q 1024 897 1075 949 q 849 808 972 844 l 849 386 q 818 156 849 243 q 710 24 788 68 q 496 -21 633 -21 z "},"Ứ":{"ha":997,"x_min":44,"x_max":1075,"o":"m 44 0 m 496 -21 q 290 22 363 -21 q 188 153 217 65 q 158 386 158 240 l 158 811 l 44 833 l 44 900 l 413 900 l 413 833 l 301 811 l 301 386 q 322 197 301 261 q 390 106 342 132 q 533 81 439 81 q 660 113 614 81 q 724 210 706 144 q 743 386 743 276 l 743 810 l 631 832 l 631 900 l 883 900 q 953 912 935 900 q 972 956 972 924 q 966 981 972 971 q 946 1000 960 990 l 946 1021 l 1031 1079 q 1063 1046 1051 1063 q 1075 993 1075 1029 q 1024 897 1075 949 q 849 808 972 844 l 849 386 q 818 156 849 243 q 710 24 788 68 q 496 -21 633 -21 m 411 997 l 599 1133 q 617 1145 603 1136 q 642 1159 631 1154 q 661 1164 653 1164 q 707 1134 690 1164 q 722 1054 724 1104 l 443 942 l 411 997 z "},"Ự":{"ha":997,"x_min":44,"x_max":1075,"o":"m 44 0 m 496 -21 q 290 22 363 -21 q 188 153 217 65 q 158 386 158 240 l 158 811 l 44 833 l 44 900 l 413 900 l 413 833 l 301 811 l 301 386 q 322 197 301 261 q 390 106 342 132 q 533 81 439 81 q 660 113 614 81 q 724 210 706 144 q 743 386 743 276 l 743 810 l 631 832 l 631 900 l 883 900 q 953 912 935 900 q 972 956 972 924 q 966 981 972 971 q 946 1000 960 990 l 946 1021 l 1031 1079 q 1063 1046 1051 1063 q 1075 993 1075 1029 q 1024 897 1075 949 q 849 808 972 844 l 849 386 q 818 156 849 243 q 710 24 788 68 q 496 -21 633 -21 m 493 -253 q 431 -227 454 -253 q 407 -160 407 -201 q 434 -90 407 -119 q 501 -60 461 -60 q 565 -84 540 -60 q 589 -150 589 -108 q 563 -223 589 -193 q 493 -253 536 -253 z "},"Ừ":{"ha":997,"x_min":44,"x_max":1075,"o":"m 44 0 m 496 -21 q 290 22 363 -21 q 188 153 217 65 q 158 386 158 240 l 158 811 l 44 833 l 44 900 l 413 900 l 413 833 l 301 811 l 301 386 q 322 197 301 261 q 390 106 342 132 q 533 81 439 81 q 660 113 614 81 q 724 210 706 144 q 743 386 743 276 l 743 810 l 631 832 l 631 900 l 883 900 q 953 912 935 900 q 972 956 972 924 q 966 981 972 971 q 946 1000 960 990 l 946 1021 l 1031 1079 q 1063 1046 1051 1063 q 1075 993 1075 1029 q 1024 897 1075 949 q 849 808 972 844 l 849 386 q 818 156 849 243 q 710 24 788 68 q 496 -21 633 -21 m 289 1054 q 304 1134 288 1104 q 350 1164 321 1164 q 378 1154 361 1164 q 413 1133 396 1144 l 600 997 l 568 942 l 289 1054 z "},"Ử":{"ha":997,"x_min":44,"x_max":1075,"o":"m 44 0 m 496 -21 q 290 22 363 -21 q 188 153 217 65 q 158 386 158 240 l 158 811 l 44 833 l 44 900 l 413 900 l 413 833 l 301 811 l 301 386 q 322 197 301 261 q 390 106 342 132 q 533 81 439 81 q 660 113 614 81 q 724 210 706 144 q 743 386 743 276 l 743 810 l 631 832 l 631 900 l 883 900 q 953 912 935 900 q 972 956 972 924 q 966 981 972 971 q 946 1000 960 990 l 946 1021 l 1031 1079 q 1063 1046 1051 1063 q 1075 993 1075 1029 q 1024 897 1075 949 q 849 808 972 844 l 849 386 q 818 156 849 243 q 710 24 788 68 q 496 -21 633 -21 m 457 938 q 447 967 447 953 q 460 994 447 982 q 500 1018 472 1006 q 534 1038 524 1028 q 544 1064 544 1049 q 482 1092 544 1092 q 397 1081 442 1092 q 381 1128 381 1107 q 400 1161 381 1150 q 472 1172 419 1172 q 604 1147 557 1172 q 651 1071 651 1121 q 575 981 651 1010 q 540 963 549 971 q 535 940 532 954 l 457 938 z "},"Ữ":{"ha":997,"x_min":44,"x_max":1075,"o":"m 44 0 m 496 -21 q 290 22 363 -21 q 188 153 217 65 q 158 386 158 240 l 158 811 l 44 833 l 44 900 l 413 900 l 413 833 l 301 811 l 301 386 q 322 197 301 261 q 390 106 342 132 q 533 81 439 81 q 660 113 614 81 q 724 210 706 144 q 743 386 743 276 l 743 810 l 631 832 l 631 900 l 883 900 q 953 912 935 900 q 972 956 972 924 q 966 981 972 971 q 946 1000 960 990 l 946 1021 l 1031 1079 q 1063 1046 1051 1063 q 1075 993 1075 1029 q 1024 897 1075 949 q 849 808 972 844 l 849 386 q 818 156 849 243 q 710 24 788 68 q 496 -21 633 -21 m 604 971 q 511 989 568 971 l 393 1028 l 286 976 l 247 1017 l 297 1086 q 340 1124 317 1114 q 393 1135 364 1135 q 485 1117 431 1135 l 604 1078 l 711 1129 l 750 1089 l 699 1019 q 604 971 665 971 z "},"Ű":{"ha":997,"x_min":44,"x_max":961,"o":"m 289 981 l 407 1126 q 441 1160 426 1150 q 474 1171 456 1171 q 514 1147 496 1171 q 540 1082 532 1124 l 331 938 l 289 981 m 547 981 l 665 1126 q 699 1160 685 1150 q 731 1171 714 1171 q 772 1147 753 1171 q 799 1082 790 1124 l 589 938 l 547 981 m 496 -21 q 290 22 363 -21 q 188 153 217 65 q 158 386 158 240 l 158 811 l 44 833 l 44 900 l 413 900 l 413 833 l 301 811 l 301 386 q 322 197 301 261 q 390 106 342 132 q 533 81 439 81 q 660 113 614 81 q 724 210 706 144 q 743 386 742 275 l 743 810 l 631 832 l 631 900 l 961 900 l 961 832 l 849 810 l 849 386 q 817 156 849 244 q 708 24 785 68 q 496 -21 631 -21 z "},"Ȗ":{"ha":997,"x_min":44,"x_max":961,"o":"m 44 0 m 44 833 l 44 900 l 413 900 l 413 833 l 301 811 l 301 386 q 322 197 301 261 q 390 106 342 132 q 533 81 439 81 q 660 113 614 81 q 724 210 706 144 q 743 386 743 276 l 743 810 l 631 832 l 631 900 l 961 900 l 961 832 l 849 810 l 849 386 q 818 156 849 243 q 710 24 788 68 q 496 -21 633 -21 q 290 22 363 -21 q 188 153 217 65 q 158 386 158 240 l 158 811 l 44 833 m 621 963 q 606 990 621 967 q 563 1034 592 1014 q 489 1054 533 1054 q 404 1035 439 1054 q 351 992 369 1015 q 333 965 333 969 l 285 986 q 306 1037 285 994 q 374 1116 328 1079 q 492 1153 419 1153 q 624 1119 575 1153 q 691 1047 672 1085 q 710 999 710 1010 l 621 963 z "},"Ū":{"ha":997,"x_min":44,"x_max":961,"o":"m 292 1094 l 758 1094 l 744 1004 l 276 1004 l 292 1094 m 44 833 l 44 900 l 413 900 l 413 833 l 301 811 l 301 386 q 322 197 301 261 q 390 106 342 132 q 533 81 439 81 q 660 113 614 81 q 724 210 706 144 q 743 386 742 275 l 743 810 l 631 832 l 631 900 l 961 900 l 961 832 l 849 810 l 849 386 q 817 156 849 244 q 708 24 785 68 q 496 -21 631 -21 q 290 22 363 -21 q 188 153 217 65 q 158 386 158 240 l 158 811 l 44 833 z "},"Ų":{"ha":997,"x_min":44,"x_max":961,"o":"m 618 -260 q 531 -233 564 -260 q 497 -157 497 -207 q 579 -15 497 -76 q 496 -21 529 -21 q 290 22 363 -21 q 188 153 217 65 q 158 386 158 240 l 158 811 l 44 833 l 44 900 l 413 900 l 413 833 l 301 811 l 301 386 q 322 197 301 261 q 390 106 342 132 q 533 81 439 81 q 660 113 614 81 q 724 210 706 144 q 743 386 742 275 l 743 810 l 631 832 l 631 900 l 961 900 l 961 832 l 849 810 l 849 386 q 814 150 849 240 q 696 18 779 60 q 631 -42 663 -3 q 600 -114 600 -81 q 656 -171 600 -171 q 733 -143 685 -171 l 761 -189 q 697 -238 736 -217 q 618 -260 658 -260 z "},"Ů":{"ha":997,"x_min":44,"x_max":961,"o":"m 397 1018 q 434 1110 397 1076 q 532 1144 471 1144 q 626 1115 592 1144 q 660 1028 660 1085 q 622 935 660 968 q 524 901 585 901 q 429 931 461 901 q 397 1018 397 960 m 529 964 q 570 976 560 964 q 581 1019 581 989 q 571 1067 581 1054 q 529 1081 561 1081 q 487 1068 499 1081 q 475 1024 475 1056 q 485 976 475 989 q 529 964 496 964 m 44 833 l 44 900 l 413 900 l 413 833 l 301 811 l 301 386 q 322 197 301 261 q 390 106 342 132 q 533 81 439 81 q 660 113 614 81 q 724 210 706 144 q 743 386 742 275 l 743 810 l 631 832 l 631 900 l 961 900 l 961 832 l 849 810 l 849 386 q 817 156 849 244 q 708 24 785 68 q 496 -21 631 -21 q 290 22 363 -21 q 188 153 217 65 q 158 386 158 240 l 158 811 l 44 833 z "},"Ũ":{"ha":997,"x_min":44,"x_max":961,"o":"m 44 0 m 44 833 l 44 900 l 413 900 l 413 833 l 301 811 l 301 386 q 322 197 301 261 q 390 106 342 132 q 533 81 439 81 q 660 113 614 81 q 724 210 706 144 q 743 386 743 276 l 743 810 l 631 832 l 631 900 l 961 900 l 961 832 l 849 810 l 849 386 q 818 156 849 243 q 710 24 788 68 q 496 -21 633 -21 q 290 22 363 -21 q 188 153 217 65 q 158 386 158 240 l 158 811 l 44 833 m 604 971 q 511 989 568 971 l 393 1028 l 286 976 l 247 1017 l 297 1086 q 340 1124 317 1114 q 393 1135 364 1135 q 485 1117 431 1135 l 604 1078 l 711 1129 l 750 1089 l 699 1019 q 604 971 665 971 z "},"V":{"ha":844,"x_min":-14,"x_max":863,"o":"m 388 -10 l 74 814 l -14 835 l -14 900 l 349 900 l 349 835 l 243 814 l 243 796 l 440 222 l 454 179 l 469 215 l 613 629 l 668 814 l 556 835 l 556 900 l 863 900 l 863 835 l 778 814 l 481 -10 l 388 -10 z "},"W":{"ha":1339,"x_min":-6,"x_max":1349,"o":"m 343 -10 l 82 814 l -6 835 l -6 900 l 353 900 l 353 835 l 246 814 l 249 790 l 408 221 l 419 179 l 424 179 l 436 221 l 619 726 l 588 814 l 488 835 l 488 900 l 860 900 l 860 835 l 751 814 l 754 792 l 965 221 l 976 181 l 983 181 l 993 221 l 1149 790 l 1150 814 l 1036 835 l 1036 900 l 1349 900 l 1349 835 l 1264 814 l 1018 -10 l 907 -10 l 686 553 l 678 579 l 669 579 l 661 550 l 454 -10 l 343 -10 z "},"Ẃ":{"ha":1339,"x_min":-6,"x_max":1349,"o":"m 0 0 m 343 -10 l 82 814 l -6 835 l -6 900 l 353 900 l 353 835 l 246 814 l 249 790 l 408 221 l 419 179 l 424 179 l 436 221 l 619 726 l 588 814 l 488 835 l 488 900 l 860 900 l 860 835 l 751 814 l 754 792 l 965 221 l 976 181 l 983 181 l 993 221 l 1149 790 l 1150 814 l 1036 835 l 1036 900 l 1349 900 l 1349 835 l 1264 814 l 1018 -10 l 907 -10 l 686 553 l 678 579 l 669 579 l 661 550 l 454 -10 l 343 -10 m 583 997 l 771 1133 q 789 1145 775 1136 q 814 1159 803 1154 q 833 1164 825 1164 q 879 1134 863 1164 q 894 1054 896 1104 l 615 942 l 583 997 z "},"Ŵ":{"ha":1339,"x_min":-6,"x_max":1349,"o":"m 0 0 m 343 -10 l 82 814 l -6 835 l -6 900 l 353 900 l 353 835 l 246 814 l 249 790 l 408 221 l 419 179 l 424 179 l 436 221 l 619 726 l 588 814 l 488 835 l 488 900 l 860 900 l 860 835 l 751 814 l 754 792 l 965 221 l 976 181 l 983 181 l 993 221 l 1149 790 l 1150 814 l 1036 835 l 1036 900 l 1349 900 l 1349 835 l 1264 814 l 1018 -10 l 907 -10 l 686 553 l 678 579 l 669 579 l 661 550 l 454 -10 l 343 -10 m 578 1097 l 601 1115 q 647 1150 629 1138 q 674 1163 664 1163 q 702 1152 686 1163 q 744 1118 718 1142 l 769 1097 l 892 1000 l 847 939 l 667 1028 l 486 940 l 450 993 l 578 1097 z "},"Ẅ":{"ha":1339,"x_min":-6,"x_max":1349,"o":"m 0 0 m 343 -10 l 82 814 l -6 835 l -6 900 l 353 900 l 353 835 l 246 814 l 249 790 l 408 221 l 419 179 l 424 179 l 436 221 l 619 726 l 588 814 l 488 835 l 488 900 l 860 900 l 860 835 l 751 814 l 754 792 l 965 221 l 976 181 l 983 181 l 993 221 l 1149 790 l 1150 814 l 1036 835 l 1036 900 l 1349 900 l 1349 835 l 1264 814 l 1018 -10 l 907 -10 l 686 553 l 678 579 l 669 579 l 661 550 l 454 -10 l 343 -10 m 514 957 q 457 981 479 957 q 435 1042 435 1004 q 460 1106 435 1079 q 521 1133 485 1133 q 578 1111 557 1133 q 600 1050 600 1089 q 576 984 600 1011 q 514 957 553 957 m 821 957 q 764 981 786 957 q 742 1042 742 1004 q 767 1106 742 1079 q 828 1133 792 1133 q 885 1111 864 1133 q 907 1050 907 1089 q 883 984 907 1011 q 821 957 860 957 z "},"Ẁ":{"ha":1339,"x_min":-6,"x_max":1349,"o":"m 0 0 m 343 -10 l 82 814 l -6 835 l -6 900 l 353 900 l 353 835 l 246 814 l 249 790 l 408 221 l 419 179 l 424 179 l 436 221 l 619 726 l 588 814 l 488 835 l 488 900 l 860 900 l 860 835 l 751 814 l 754 792 l 965 221 l 976 181 l 983 181 l 993 221 l 1149 790 l 1150 814 l 1036 835 l 1036 900 l 1349 900 l 1349 835 l 1264 814 l 1018 -10 l 907 -10 l 686 553 l 678 579 l 669 579 l 661 550 l 454 -10 l 343 -10 m 461 1054 q 476 1134 460 1104 q 522 1164 493 1164 q 551 1154 533 1164 q 585 1133 568 1144 l 772 997 l 740 942 l 461 1054 z "},"X":{"ha":835,"x_min":4,"x_max":860,"o":"m 4 67 l 100 88 l 349 444 l 101 806 l 11 833 l 11 900 l 375 900 l 375 833 l 289 814 l 289 789 l 447 557 l 618 794 l 618 817 l 524 835 l 524 900 l 840 900 l 840 836 l 746 814 l 500 478 l 761 88 l 860 67 l 860 0 l 489 0 l 489 67 l 583 88 l 583 104 l 403 365 l 221 106 l 221 83 l 308 65 l 308 0 l 4 0 l 4 67 z "},"Y":{"ha":824,"x_min":-6,"x_max":844,"o":"m 242 67 l 354 89 l 354 329 l 82 815 l -6 838 l -6 900 l 344 900 l 344 838 l 244 815 l 244 792 l 436 429 l 454 429 l 643 794 l 643 815 l 536 838 l 536 900 l 844 900 l 844 838 l 757 814 l 499 342 l 499 89 l 611 67 l 611 0 l 242 0 l 242 67 z "},"Ý":{"ha":824,"x_min":-10,"x_max":840,"o":"m 299 997 l 486 1133 q 520 1154 503 1144 q 549 1164 538 1164 q 594 1133 578 1164 q 610 1054 611 1103 l 331 942 l 299 997 m 238 0 l 238 67 l 350 89 l 350 329 l 78 815 l -10 838 l -10 900 l 340 900 l 340 838 l 242 815 l 242 792 l 432 429 l 450 429 l 639 794 l 639 815 l 533 838 l 533 900 l 840 900 l 840 838 l 753 814 l 494 342 l 494 89 l 607 67 l 607 0 l 238 0 z "},"Ŷ":{"ha":824,"x_min":-6,"x_max":844,"o":"m 0 0 m 242 67 l 354 89 l 354 329 l 82 815 l -6 838 l -6 900 l 344 900 l 344 838 l 244 815 l 244 792 l 436 429 l 454 429 l 643 794 l 643 815 l 536 838 l 536 900 l 844 900 l 844 838 l 757 814 l 499 342 l 499 89 l 611 67 l 611 0 l 242 0 l 242 67 m 349 1097 l 372 1115 q 417 1150 400 1138 q 444 1163 435 1163 q 473 1152 457 1163 q 515 1118 489 1142 l 540 1097 l 663 1000 l 618 939 l 438 1028 l 257 940 l 221 993 l 349 1097 z "},"Ÿ":{"ha":824,"x_min":-10,"x_max":840,"o":"m 272 964 q 216 988 238 964 q 194 1049 194 1011 q 219 1113 194 1086 q 281 1140 244 1140 q 338 1118 315 1140 q 360 1058 360 1096 q 335 992 360 1019 q 272 964 311 964 m 581 964 q 524 988 546 964 q 501 1049 501 1011 q 526 1113 501 1086 q 588 1140 551 1140 q 644 1118 622 1140 q 667 1058 667 1096 q 643 992 667 1019 q 581 964 619 964 m 238 67 l 350 89 l 350 329 l 78 815 l -10 838 l -10 900 l 340 900 l 340 838 l 242 815 l 242 792 l 432 429 l 450 429 l 639 794 l 639 815 l 533 838 l 533 900 l 840 900 l 840 838 l 753 814 l 494 342 l 494 89 l 607 67 l 607 0 l 238 0 l 238 67 z "},"Ỵ":{"ha":824,"x_min":-6,"x_max":844,"o":"m 0 0 m 242 67 l 354 89 l 354 329 l 82 815 l -6 838 l -6 900 l 344 900 l 344 838 l 244 815 l 244 792 l 436 429 l 454 429 l 643 794 l 643 815 l 536 838 l 536 900 l 844 900 l 844 838 l 757 814 l 499 342 l 499 89 l 611 67 l 611 0 l 242 0 l 242 67 m 421 -253 q 358 -227 382 -253 q 335 -160 335 -201 q 362 -90 335 -119 q 429 -60 389 -60 q 492 -84 468 -60 q 517 -150 517 -108 q 490 -223 517 -193 q 421 -253 464 -253 z "},"Ỳ":{"ha":824,"x_min":-6,"x_max":844,"o":"m 0 0 m 242 67 l 354 89 l 354 329 l 82 815 l -6 838 l -6 900 l 344 900 l 344 838 l 244 815 l 244 792 l 436 429 l 454 429 l 643 794 l 643 815 l 536 838 l 536 900 l 844 900 l 844 838 l 757 814 l 499 342 l 499 89 l 611 67 l 611 0 l 242 0 l 242 67 m 232 1054 q 247 1134 231 1104 q 293 1164 264 1164 q 322 1154 304 1164 q 356 1133 339 1144 l 543 997 l 511 942 l 232 1054 z "},"Ỷ":{"ha":824,"x_min":-6,"x_max":844,"o":"m 0 0 m 242 67 l 354 89 l 354 329 l 82 815 l -6 838 l -6 900 l 344 900 l 344 838 l 244 815 l 244 792 l 436 429 l 454 429 l 643 794 l 643 815 l 536 838 l 536 900 l 844 900 l 844 838 l 757 814 l 499 342 l 499 89 l 611 67 l 611 0 l 242 0 l 242 67 m 400 938 q 390 967 390 953 q 403 994 390 982 q 443 1018 415 1006 q 477 1038 467 1028 q 488 1064 488 1049 q 425 1092 488 1092 q 340 1081 385 1092 q 324 1128 324 1107 q 343 1161 324 1150 q 415 1172 363 1172 q 547 1147 500 1172 q 594 1071 594 1121 q 518 981 594 1010 q 483 963 492 971 q 478 940 475 954 l 400 938 z "},"Ȳ":{"ha":824,"x_min":-6,"x_max":844,"o":"m 0 0 m 242 67 l 354 89 l 354 329 l 82 815 l -6 838 l -6 900 l 344 900 l 344 838 l 244 815 l 244 792 l 436 429 l 454 429 l 643 794 l 643 815 l 536 838 l 536 900 l 844 900 l 844 838 l 757 814 l 499 342 l 499 89 l 611 67 l 611 0 l 242 0 l 242 67 m 215 1094 l 682 1094 l 667 1004 l 200 1004 l 215 1094 z "},"Ỹ":{"ha":824,"x_min":-6,"x_max":844,"o":"m 0 0 m 242 67 l 354 89 l 354 329 l 82 815 l -6 838 l -6 900 l 344 900 l 344 838 l 244 815 l 244 792 l 436 429 l 454 429 l 643 794 l 643 815 l 536 838 l 536 900 l 844 900 l 844 838 l 757 814 l 499 342 l 499 89 l 611 67 l 611 0 l 242 0 l 242 67 m 547 971 q 454 989 511 971 l 336 1028 l 229 976 l 190 1017 l 240 1086 q 283 1124 260 1114 q 336 1135 307 1135 q 428 1117 374 1135 l 547 1078 l 654 1129 l 693 1089 l 642 1019 q 547 971 608 971 z "},"Z":{"ha":760,"x_min":36,"x_max":724,"o":"m 36 89 l 525 788 l 525 811 l 163 811 l 126 668 l 50 668 l 50 900 l 713 900 l 713 804 l 214 106 l 214 89 l 610 89 l 646 233 l 724 233 l 724 0 l 36 0 l 36 89 z "},"Ź":{"ha":761,"x_min":36,"x_max":724,"o":"m 244 997 l 432 1133 q 466 1154 449 1144 q 494 1164 483 1164 q 540 1134 524 1164 q 556 1054 557 1104 l 276 942 l 244 997 m 36 0 l 36 89 l 525 788 l 525 811 l 164 811 l 126 668 l 50 668 l 50 900 l 713 900 l 713 804 l 214 106 l 214 89 l 610 89 l 647 233 l 724 233 l 724 0 l 36 0 z "},"Ž":{"ha":761,"x_min":36,"x_max":724,"o":"m 385 1079 l 556 1172 l 593 1119 l 476 1018 q 440 987 467 1010 q 399 956 413 964 q 378 947 386 947 q 348 960 365 947 q 308 992 331 972 q 278 1018 286 1011 l 168 1114 l 218 1174 l 385 1079 m 36 89 l 525 788 l 525 811 l 164 811 l 126 668 l 50 668 l 50 900 l 713 900 l 713 804 l 214 106 l 214 89 l 610 89 l 647 233 l 724 233 l 724 0 l 36 0 l 36 89 z "},"Ż":{"ha":761,"x_min":36,"x_max":724,"o":"m 371 956 q 308 982 332 956 q 285 1050 285 1008 q 312 1120 285 1090 q 379 1150 339 1150 q 442 1125 418 1150 q 467 1058 467 1100 q 440 985 467 1015 q 371 956 414 956 m 36 89 l 525 788 l 525 811 l 164 811 l 126 668 l 50 668 l 50 900 l 713 900 l 713 804 l 214 106 l 214 89 l 610 89 l 647 233 l 724 233 l 724 0 l 36 0 l 36 89 z "},"Ẓ":{"ha":760,"x_min":36,"x_max":724,"o":"m 36 0 m 36 89 l 525 788 l 525 811 l 163 811 l 126 668 l 50 668 l 50 900 l 713 900 l 713 804 l 214 106 l 214 89 l 610 89 l 646 233 l 724 233 l 724 0 l 36 0 l 36 89 m 375 -253 q 313 -227 336 -253 q 289 -160 289 -201 q 316 -90 289 -119 q 383 -60 343 -60 q 447 -84 422 -60 q 471 -150 471 -108 q 444 -223 471 -193 q 375 -253 418 -253 z "},"a":{"ha":683,"x_min":51,"x_max":661,"o":"m 250 -12 q 101 38 150 -12 q 51 163 51 88 q 114 302 51 250 q 294 371 176 354 l 426 392 l 426 492 q 396 578 426 550 q 300 606 365 606 q 248 601 269 606 q 221 596 226 597 l 200 468 q 183 462 197 467 q 147 457 169 457 q 94 475 115 457 q 74 526 74 493 q 124 620 74 581 q 242 681 174 660 q 361 701 311 701 q 510 657 458 701 q 561 533 561 613 l 561 100 l 661 81 l 661 22 q 635 13 656 19 q 582 -1 614 6 q 517 -7 550 -7 q 460 10 476 -7 q 436 58 443 28 l 429 58 q 360 12 410 36 q 250 -12 310 -12 m 315 85 q 383 94 353 85 q 426 110 413 103 l 426 317 q 247 276 300 307 q 194 185 194 244 q 226 113 194 142 q 315 85 257 85 z "},"á":{"ha":679,"x_min":46,"x_max":656,"o":"m 201 790 l 347 956 q 381 990 367 978 q 410 1001 394 1001 q 455 976 432 1001 q 486 906 478 950 l 243 743 l 201 790 m 244 -12 q 95 38 144 -12 q 46 163 46 88 q 108 302 46 250 q 289 371 171 354 l 422 392 l 422 492 q 392 578 422 550 q 296 606 361 606 q 244 601 265 606 q 217 596 222 597 l 196 468 q 178 462 193 467 q 143 457 164 457 q 90 475 111 457 q 69 526 69 493 q 119 620 69 581 q 238 681 169 660 q 357 701 307 701 q 505 657 454 701 q 556 533 556 613 l 556 100 l 656 81 l 656 22 q 629 13 650 19 q 577 -1 608 6 q 513 -7 546 -7 q 455 10 472 -7 q 432 58 438 28 l 424 58 q 355 13 406 38 q 244 -12 304 -12 m 311 85 q 378 94 349 85 q 422 110 408 103 l 422 317 q 243 276 296 307 q 190 185 190 244 q 222 113 190 140 q 311 85 253 85 z "},"ă":{"ha":679,"x_min":46,"x_max":656,"o":"m 324 767 q 185 810 235 767 q 119 899 136 853 q 103 961 103 946 l 183 986 q 195 948 183 976 q 240 893 207 919 q 333 867 274 867 q 426 894 392 867 q 472 950 460 921 q 485 988 485 979 l 535 974 q 519 907 535 956 q 458 813 504 858 q 324 767 411 767 m 244 -12 q 95 38 144 -12 q 46 163 46 88 q 108 302 46 250 q 289 371 171 354 l 422 392 l 422 492 q 392 578 422 550 q 296 606 361 606 q 244 601 265 606 q 217 596 222 597 l 196 468 q 178 462 193 467 q 143 457 164 457 q 90 475 111 457 q 69 526 69 493 q 119 620 69 581 q 238 681 169 660 q 357 701 307 701 q 505 657 454 701 q 556 533 556 613 l 556 100 l 656 81 l 656 22 q 629 13 650 19 q 577 -1 608 6 q 513 -7 546 -7 q 455 10 472 -7 q 432 58 438 28 l 424 58 q 355 13 406 38 q 244 -12 304 -12 m 311 85 q 378 94 349 85 q 422 110 408 103 l 422 317 q 243 276 296 307 q 190 185 190 244 q 222 113 190 140 q 311 85 253 85 z "},"ắ":{"ha":683,"x_min":51,"x_max":661,"o":"m 51 0 m 250 -12 q 101 38 150 -12 q 51 163 51 88 q 114 302 51 250 q 294 371 176 354 l 426 392 l 426 492 q 396 578 426 550 q 300 606 365 606 q 248 601 269 606 q 221 596 226 597 l 200 468 q 183 462 197 467 q 147 457 169 457 q 94 475 115 457 q 74 526 74 493 q 124 620 74 581 q 242 681 174 660 q 361 701 311 701 q 510 657 458 701 q 561 533 561 613 l 561 100 l 661 81 l 661 22 q 635 13 656 19 q 582 -1 614 6 q 517 -7 550 -7 q 460 10 476 -7 q 436 58 443 28 l 429 58 q 360 12 410 36 q 250 -12 310 -12 m 315 85 q 383 94 353 85 q 426 110 413 103 l 426 317 q 247 276 300 307 q 194 185 194 244 q 226 113 194 142 q 315 85 257 85 m 204 986 q 216 948 204 976 q 260 893 228 919 q 353 867 293 867 q 446 894 413 867 q 492 950 479 921 q 504 988 504 979 l 554 974 q 540 907 554 956 q 478 813 525 858 q 343 767 431 767 q 206 810 254 767 q 140 899 157 853 q 124 961 124 946 l 204 986 m 419 1160 q 454 1194 440 1183 q 483 1206 468 1206 q 528 1180 506 1206 q 558 1110 550 1154 l 315 947 l 274 994 l 419 1160 z "},"ặ":{"ha":683,"x_min":51,"x_max":661,"o":"m 51 0 m 250 -12 q 101 38 150 -12 q 51 163 51 88 q 114 302 51 250 q 294 371 176 354 l 426 392 l 426 492 q 396 578 426 550 q 300 606 365 606 q 248 601 269 606 q 221 596 226 597 l 200 468 q 183 462 197 467 q 147 457 169 457 q 94 475 115 457 q 74 526 74 493 q 124 620 74 581 q 242 681 174 660 q 361 701 311 701 q 510 657 458 701 q 561 533 561 613 l 561 100 l 661 81 l 661 22 q 635 13 656 19 q 582 -1 614 6 q 517 -7 550 -7 q 460 10 476 -7 q 436 58 443 28 l 429 58 q 360 12 410 36 q 250 -12 310 -12 m 315 85 q 383 94 353 85 q 426 110 413 103 l 426 317 q 247 276 300 307 q 194 185 194 244 q 226 113 194 142 q 315 85 257 85 m 336 -253 q 274 -227 297 -253 q 250 -160 250 -201 q 277 -90 250 -119 q 344 -60 304 -60 q 408 -84 383 -60 q 432 -150 432 -108 q 406 -223 432 -193 q 336 -253 379 -253 m 207 986 q 219 948 207 976 q 263 893 231 919 q 356 867 296 867 q 449 894 415 867 q 494 950 482 921 q 507 988 507 979 l 557 974 q 542 907 557 956 q 481 813 528 858 q 346 767 433 767 q 208 810 257 767 q 143 899 160 853 q 126 961 126 946 l 207 986 z "},"ằ":{"ha":683,"x_min":51,"x_max":661,"o":"m 51 0 m 250 -12 q 101 38 150 -12 q 51 163 51 88 q 114 302 51 250 q 294 371 176 354 l 426 392 l 426 492 q 396 578 426 550 q 300 606 365 606 q 248 601 269 606 q 221 596 226 597 l 200 468 q 183 462 197 467 q 147 457 169 457 q 94 475 115 457 q 74 526 74 493 q 124 620 74 581 q 242 681 174 660 q 361 701 311 701 q 510 657 458 701 q 561 533 561 613 l 561 100 l 661 81 l 661 22 q 635 13 656 19 q 582 -1 614 6 q 517 -7 550 -7 q 460 10 476 -7 q 436 58 443 28 l 429 58 q 360 12 410 36 q 250 -12 310 -12 m 315 85 q 383 94 353 85 q 426 110 413 103 l 426 317 q 247 276 300 307 q 194 185 194 244 q 226 113 194 142 q 315 85 257 85 m 206 986 q 217 948 206 976 q 262 893 229 919 q 354 867 294 867 q 447 894 414 867 q 493 950 481 921 q 506 988 506 979 l 556 974 q 541 907 556 956 q 479 813 526 858 q 344 767 432 767 q 207 810 256 767 q 142 899 158 853 q 125 961 125 946 l 206 986 m 146 1110 q 176 1180 154 1154 q 221 1206 199 1206 q 250 1194 236 1206 q 285 1160 264 1183 l 431 994 l 389 947 l 146 1110 z "},"ẳ":{"ha":683,"x_min":51,"x_max":661,"o":"m 51 0 m 250 -12 q 101 38 150 -12 q 51 163 51 88 q 114 302 51 250 q 294 371 176 354 l 426 392 l 426 492 q 396 578 426 550 q 300 606 365 606 q 248 601 269 606 q 221 596 226 597 l 200 468 q 183 462 197 467 q 147 457 169 457 q 94 475 115 457 q 74 526 74 493 q 124 620 74 581 q 242 681 174 660 q 361 701 311 701 q 510 657 458 701 q 561 533 561 613 l 561 100 l 661 81 l 661 22 q 635 13 656 19 q 582 -1 614 6 q 517 -7 550 -7 q 460 10 476 -7 q 436 58 443 28 l 429 58 q 360 12 410 36 q 250 -12 310 -12 m 315 85 q 383 94 353 85 q 426 110 413 103 l 426 317 q 247 276 300 307 q 194 185 194 244 q 226 113 194 142 q 315 85 257 85 m 206 986 q 217 948 206 976 q 262 893 229 919 q 354 867 294 867 q 447 894 414 867 q 493 950 481 921 q 506 988 506 979 l 556 974 q 541 907 556 956 q 479 813 526 858 q 344 767 432 767 q 207 810 256 767 q 142 899 158 853 q 125 961 125 946 l 206 986 m 306 949 q 292 993 292 979 q 304 1022 292 1010 q 346 1050 317 1035 q 381 1074 371 1064 q 390 1100 390 1085 q 375 1126 390 1118 q 326 1135 360 1135 q 243 1124 288 1135 q 226 1171 226 1149 q 246 1204 226 1193 q 318 1215 265 1215 q 450 1186 403 1215 q 497 1103 497 1157 q 478 1051 497 1074 q 421 1010 460 1029 q 387 989 394 997 q 379 967 379 981 q 381 958 379 961 l 306 949 z "},"ẵ":{"ha":683,"x_min":51,"x_max":661,"o":"m 140 1128 q 179 1164 156 1151 q 232 1176 203 1176 q 290 1168 256 1176 q 333 1157 324 1160 l 453 1121 l 550 1168 l 586 1136 l 543 1067 q 453 1018 511 1018 q 350 1038 422 1018 l 231 1074 l 133 1026 l 97 1060 l 140 1128 m 204 986 q 216 948 204 976 q 260 893 228 919 q 353 867 293 867 q 446 894 413 867 q 492 950 479 921 q 504 988 504 979 l 554 974 q 540 907 554 956 q 478 813 525 858 q 343 767 431 767 q 206 810 254 767 q 140 899 157 853 q 124 961 124 946 l 204 986 m 250 -12 q 101 38 150 -12 q 51 163 51 88 q 114 302 51 250 q 294 371 176 354 l 426 392 l 426 492 q 396 578 426 550 q 300 606 365 606 q 248 601 269 606 q 221 596 226 597 l 200 468 q 183 462 197 467 q 147 457 169 457 q 94 475 115 457 q 74 526 74 493 q 124 620 74 581 q 242 681 174 660 q 361 701 311 701 q 510 657 458 701 q 561 533 561 613 l 561 100 l 661 81 l 661 22 q 635 13 656 19 q 582 -1 614 6 q 517 -7 550 -7 q 460 10 476 -7 q 436 58 443 28 l 429 58 q 360 12 410 36 q 250 -12 310 -12 m 315 85 q 383 94 353 85 q 426 110 413 103 l 426 317 q 247 276 300 307 q 194 185 194 244 q 226 113 194 142 q 315 85 257 85 z "},"ǎ":{"ha":683,"x_min":51,"x_max":661,"o":"m 51 0 m 250 -12 q 101 38 150 -12 q 51 163 51 88 q 114 302 51 250 q 294 371 176 354 l 426 392 l 426 492 q 396 578 426 550 q 300 606 365 606 q 248 601 269 606 q 221 596 226 597 l 200 468 q 183 462 197 467 q 147 457 169 457 q 94 475 115 457 q 74 526 74 493 q 124 620 74 581 q 242 681 174 660 q 361 701 311 701 q 510 657 458 701 q 561 533 561 613 l 561 100 l 661 81 l 661 22 q 635 13 656 19 q 582 -1 614 6 q 517 -7 550 -7 q 460 10 476 -7 q 436 58 443 28 l 429 58 q 360 12 410 36 q 250 -12 310 -12 m 315 85 q 383 94 353 85 q 426 110 413 103 l 426 317 q 247 276 300 307 q 194 185 194 244 q 226 113 194 142 q 315 85 257 85 m 339 753 q 265 803 315 753 l 133 933 l 185 988 l 350 872 l 511 989 l 549 939 l 414 803 q 372 765 389 778 q 339 753 354 753 z "},"â":{"ha":679,"x_min":46,"x_max":656,"o":"m 318 865 l 157 754 l 117 803 l 261 950 q 331 990 301 990 q 386 958 354 990 l 533 807 l 483 753 l 318 865 m 244 -12 q 95 38 144 -12 q 46 163 46 88 q 108 302 46 250 q 289 371 171 354 l 422 392 l 422 492 q 392 578 422 550 q 296 606 361 606 q 244 601 265 606 q 217 596 222 597 l 196 468 q 178 462 193 467 q 143 457 164 457 q 90 475 111 457 q 69 526 69 493 q 119 620 69 581 q 238 681 169 660 q 357 701 307 701 q 505 657 454 701 q 556 533 556 613 l 556 100 l 656 81 l 656 22 q 629 13 650 19 q 577 -1 608 6 q 513 -7 546 -7 q 455 10 472 -7 q 432 58 438 28 l 424 58 q 355 13 406 38 q 244 -12 304 -12 m 311 85 q 378 94 349 85 q 422 110 408 103 l 422 317 q 243 276 296 307 q 190 185 190 244 q 222 113 190 140 q 311 85 253 85 z "},"ấ":{"ha":683,"x_min":51,"x_max":697,"o":"m 51 0 m 250 -12 q 101 38 150 -12 q 51 163 51 88 q 114 302 51 250 q 294 371 176 354 l 426 392 l 426 492 q 396 578 426 550 q 300 606 365 606 q 248 601 269 606 q 221 596 226 597 l 200 468 q 183 462 197 467 q 147 457 169 457 q 94 475 115 457 q 74 526 74 493 q 124 620 74 581 q 242 681 174 660 q 361 701 311 701 q 510 657 458 701 q 561 533 561 613 l 561 100 l 661 81 l 661 22 q 635 13 656 19 q 582 -1 614 6 q 517 -7 550 -7 q 460 10 476 -7 q 436 58 443 28 l 429 58 q 360 12 410 36 q 250 -12 310 -12 m 315 85 q 383 94 353 85 q 426 110 413 103 l 426 317 q 247 276 300 307 q 194 185 194 244 q 226 113 194 142 q 315 85 257 85 m 240 950 q 308 990 281 990 q 364 958 332 990 l 513 807 l 461 753 l 297 865 l 136 754 l 96 803 l 240 950 m 558 1136 q 593 1171 579 1160 q 622 1182 607 1182 q 667 1156 644 1182 q 697 1086 689 1131 l 454 924 l 413 971 l 558 1136 z "},"ậ":{"ha":683,"x_min":51,"x_max":661,"o":"m 51 0 m 250 -12 q 101 38 150 -12 q 51 163 51 88 q 114 302 51 250 q 294 371 176 354 l 426 392 l 426 492 q 396 578 426 550 q 300 606 365 606 q 248 601 269 606 q 221 596 226 597 l 200 468 q 183 462 197 467 q 147 457 169 457 q 94 475 115 457 q 74 526 74 493 q 124 620 74 581 q 242 681 174 660 q 361 701 311 701 q 510 657 458 701 q 561 533 561 613 l 561 100 l 661 81 l 661 22 q 635 13 656 19 q 582 -1 614 6 q 517 -7 550 -7 q 460 10 476 -7 q 436 58 443 28 l 429 58 q 360 12 410 36 q 250 -12 310 -12 m 315 85 q 383 94 353 85 q 426 110 413 103 l 426 317 q 247 276 300 307 q 194 185 194 244 q 226 113 194 142 q 315 85 257 85 m 336 -253 q 274 -227 297 -253 q 250 -160 250 -201 q 277 -90 250 -119 q 344 -60 304 -60 q 408 -84 383 -60 q 432 -150 432 -108 q 406 -223 432 -193 q 336 -253 379 -253 m 278 950 q 346 990 318 990 q 401 958 369 990 l 550 807 l 499 753 l 335 865 l 174 754 l 133 803 l 278 950 z "},"ầ":{"ha":683,"x_min":51,"x_max":661,"o":"m 51 0 m 250 -12 q 101 38 150 -12 q 51 163 51 88 q 114 302 51 250 q 294 371 176 354 l 426 392 l 426 492 q 396 578 426 550 q 300 606 365 606 q 248 601 269 606 q 221 596 226 597 l 200 468 q 183 462 197 467 q 147 457 169 457 q 94 475 115 457 q 74 526 74 493 q 124 620 74 581 q 242 681 174 660 q 361 701 311 701 q 510 657 458 701 q 561 533 561 613 l 561 100 l 661 81 l 661 22 q 635 13 656 19 q 582 -1 614 6 q 517 -7 550 -7 q 460 10 476 -7 q 436 58 443 28 l 429 58 q 360 12 410 36 q 250 -12 310 -12 m 315 85 q 383 94 353 85 q 426 110 413 103 l 426 317 q 247 276 300 307 q 194 185 194 244 q 226 113 194 142 q 315 85 257 85 m 260 950 q 328 990 300 990 q 383 958 351 990 l 532 807 l 481 753 l 317 865 l 156 754 l 115 803 l 260 950 m 283 1086 q 314 1156 292 1131 q 358 1182 336 1182 q 388 1171 374 1182 q 422 1136 401 1160 l 568 971 l 526 924 l 283 1086 z "},"ẩ":{"ha":683,"x_min":51,"x_max":661,"o":"m 51 0 m 250 -12 q 101 38 150 -12 q 51 163 51 88 q 114 302 51 250 q 294 371 176 354 l 426 392 l 426 492 q 396 578 426 550 q 300 606 365 606 q 248 601 269 606 q 221 596 226 597 l 200 468 q 183 462 197 467 q 147 457 169 457 q 94 475 115 457 q 74 526 74 493 q 124 620 74 581 q 242 681 174 660 q 361 701 311 701 q 510 657 458 701 q 561 533 561 613 l 561 100 l 661 81 l 661 22 q 635 13 656 19 q 582 -1 614 6 q 517 -7 550 -7 q 460 10 476 -7 q 436 58 443 28 l 429 58 q 360 12 410 36 q 250 -12 310 -12 m 315 85 q 383 94 353 85 q 426 110 413 103 l 426 317 q 247 276 300 307 q 194 185 194 244 q 226 113 194 142 q 315 85 257 85 m 243 950 q 311 990 283 990 q 367 958 335 990 l 515 807 l 464 753 l 300 865 l 139 754 l 99 803 l 243 950 m 447 925 q 433 969 433 956 q 446 999 433 986 q 488 1026 458 1011 q 522 1051 513 1040 q 532 1076 532 1061 q 517 1103 532 1094 q 468 1111 501 1111 q 385 1100 429 1111 q 368 1147 368 1125 q 388 1181 368 1169 q 460 1192 407 1192 q 592 1163 544 1192 q 639 1079 639 1133 q 620 1028 639 1050 q 563 986 601 1006 q 528 965 536 974 q 521 943 521 957 q 522 935 521 938 l 447 925 z "},"ẫ":{"ha":683,"x_min":51,"x_max":661,"o":"m 140 1131 q 179 1167 156 1154 q 232 1179 203 1179 q 290 1171 256 1179 q 333 1160 324 1163 l 453 1124 l 550 1171 l 586 1139 l 543 1069 q 453 1021 511 1021 q 350 1040 422 1021 l 231 1076 l 133 1029 l 97 1063 l 140 1131 m 275 950 q 343 990 315 990 q 399 958 367 990 l 547 807 l 496 753 l 332 865 l 171 754 l 131 803 l 275 950 m 250 -12 q 101 38 150 -12 q 51 163 51 88 q 114 302 51 250 q 294 371 176 354 l 426 392 l 426 492 q 396 578 426 550 q 300 606 365 606 q 248 601 269 606 q 221 596 226 597 l 200 468 q 183 462 197 467 q 147 457 169 457 q 94 475 115 457 q 74 526 74 493 q 124 620 74 581 q 242 681 174 660 q 361 701 311 701 q 510 657 458 701 q 561 533 561 613 l 561 100 l 661 81 l 661 22 q 635 13 656 19 q 582 -1 614 6 q 517 -7 550 -7 q 460 10 476 -7 q 436 58 443 28 l 429 58 q 360 12 410 36 q 250 -12 310 -12 m 315 85 q 383 94 353 85 q 426 110 413 103 l 426 317 q 247 276 300 307 q 194 185 194 244 q 226 113 194 142 q 315 85 257 85 z "},"ȁ":{"ha":683,"x_min":51,"x_max":661,"o":"m 51 0 m 250 -12 q 101 38 150 -12 q 51 163 51 88 q 114 302 51 250 q 294 371 176 354 l 426 392 l 426 492 q 396 578 426 550 q 300 606 365 606 q 248 601 269 606 q 221 596 226 597 l 200 468 q 183 462 197 467 q 147 457 169 457 q 94 475 115 457 q 74 526 74 493 q 124 620 74 581 q 242 681 174 660 q 361 701 311 701 q 510 657 458 701 q 561 533 561 613 l 561 100 l 661 81 l 661 22 q 635 13 656 19 q 582 -1 614 6 q 517 -7 550 -7 q 460 10 476 -7 q 436 58 443 28 l 429 58 q 360 12 410 36 q 250 -12 310 -12 m 315 85 q 383 94 353 85 q 426 110 413 103 l 426 317 q 247 276 300 307 q 194 185 194 244 q 226 113 194 142 q 315 85 257 85 m 289 776 l 240 742 l 60 939 q 99 991 78 974 q 139 1008 121 1008 q 172 994 160 1008 q 193 964 185 981 q 206 940 201 947 l 289 776 m 518 776 l 468 742 l 288 939 q 328 991 306 974 q 368 1008 350 1008 q 401 994 389 1008 q 423 963 414 981 q 435 940 432 946 l 518 776 z "},"ä":{"ha":679,"x_min":46,"x_max":656,"o":"m 161 793 q 104 817 126 793 q 82 878 82 840 q 107 942 82 915 q 168 969 132 969 q 225 947 203 969 q 247 886 247 924 q 224 820 247 847 q 161 793 200 793 m 460 793 q 403 817 425 793 q 381 878 381 840 q 406 942 381 915 q 467 969 431 969 q 524 947 503 969 q 546 886 546 925 q 522 820 546 847 q 460 793 499 793 m 244 -12 q 95 38 144 -12 q 46 163 46 88 q 108 302 46 250 q 289 371 171 354 l 422 392 l 422 492 q 392 578 422 550 q 296 606 361 606 q 244 601 265 606 q 217 596 222 597 l 196 468 q 178 462 193 467 q 143 457 164 457 q 90 475 111 457 q 69 526 69 493 q 119 620 69 581 q 238 681 169 660 q 357 701 307 701 q 505 657 454 701 q 556 533 556 613 l 556 100 l 656 81 l 656 22 q 629 13 650 19 q 577 -1 608 6 q 513 -7 546 -7 q 455 10 472 -7 q 432 58 438 28 l 424 58 q 355 13 406 38 q 244 -12 304 -12 m 311 85 q 378 94 349 85 q 422 110 408 103 l 422 317 q 243 276 296 307 q 190 185 190 244 q 222 113 190 140 q 311 85 253 85 z "},"ạ":{"ha":683,"x_min":51,"x_max":661,"o":"m 51 0 m 250 -12 q 101 38 150 -12 q 51 163 51 88 q 114 302 51 250 q 294 371 176 354 l 426 392 l 426 492 q 396 578 426 550 q 300 606 365 606 q 248 601 269 606 q 221 596 226 597 l 200 468 q 183 462 197 467 q 147 457 169 457 q 94 475 115 457 q 74 526 74 493 q 124 620 74 581 q 242 681 174 660 q 361 701 311 701 q 510 657 458 701 q 561 533 561 613 l 561 100 l 661 81 l 661 22 q 635 13 656 19 q 582 -1 614 6 q 517 -7 550 -7 q 460 10 476 -7 q 436 58 443 28 l 429 58 q 360 12 410 36 q 250 -12 310 -12 m 315 85 q 383 94 353 85 q 426 110 413 103 l 426 317 q 247 276 300 307 q 194 185 194 244 q 226 113 194 142 q 315 85 257 85 m 336 -253 q 274 -227 297 -253 q 250 -160 250 -201 q 277 -90 250 -119 q 344 -60 304 -60 q 408 -84 383 -60 q 432 -150 432 -108 q 406 -223 432 -193 q 336 -253 379 -253 z "},"à":{"ha":679,"x_min":46,"x_max":656,"o":"m 175 906 q 206 976 183 950 q 250 1001 228 1001 q 278 991 265 1001 q 313 956 290 981 l 460 790 l 417 743 l 175 906 m 244 -12 q 95 38 144 -12 q 46 163 46 88 q 108 302 46 250 q 289 371 171 354 l 422 392 l 422 492 q 392 578 422 550 q 296 606 361 606 q 244 601 265 606 q 217 596 222 597 l 196 468 q 178 462 193 467 q 143 457 164 457 q 90 475 111 457 q 69 526 69 493 q 119 620 69 581 q 238 681 169 660 q 357 701 307 701 q 505 657 454 701 q 556 533 556 613 l 556 100 l 656 81 l 656 22 q 629 13 650 19 q 577 -1 608 6 q 513 -7 546 -7 q 455 10 472 -7 q 432 58 438 28 l 424 58 q 355 13 406 38 q 244 -12 304 -12 m 311 85 q 378 94 349 85 q 422 110 408 103 l 422 317 q 243 276 296 307 q 190 185 190 244 q 222 113 190 140 q 311 85 253 85 z "},"ả":{"ha":683,"x_min":51,"x_max":661,"o":"m 51 0 m 250 -12 q 101 38 150 -12 q 51 163 51 88 q 114 302 51 250 q 294 371 176 354 l 426 392 l 426 492 q 396 578 426 550 q 300 606 365 606 q 248 601 269 606 q 221 596 226 597 l 200 468 q 183 462 197 467 q 147 457 169 457 q 94 475 115 457 q 74 526 74 493 q 124 620 74 581 q 242 681 174 660 q 361 701 311 701 q 510 657 458 701 q 561 533 561 613 l 561 100 l 661 81 l 661 22 q 635 13 656 19 q 582 -1 614 6 q 517 -7 550 -7 q 460 10 476 -7 q 436 58 443 28 l 429 58 q 360 12 410 36 q 250 -12 310 -12 m 315 85 q 383 94 353 85 q 426 110 413 103 l 426 317 q 247 276 300 307 q 194 185 194 244 q 226 113 194 142 q 315 85 257 85 m 303 744 q 289 789 289 775 q 301 818 289 806 q 343 846 314 831 q 378 870 368 860 q 388 896 388 881 q 372 922 388 914 q 324 931 357 931 q 240 919 285 931 q 224 967 224 944 q 243 1000 224 989 q 315 1011 263 1011 q 447 982 400 1011 q 494 899 494 953 q 476 847 494 869 q 418 806 457 825 q 384 785 392 793 q 376 763 376 776 q 378 754 376 757 l 303 744 z "},"ȃ":{"ha":683,"x_min":51,"x_max":661,"o":"m 51 0 m 250 -12 q 101 38 150 -12 q 51 163 51 88 q 114 302 51 250 q 294 371 176 354 l 426 392 l 426 492 q 396 578 426 550 q 300 606 365 606 q 248 601 269 606 q 221 596 226 597 l 200 468 q 183 462 197 467 q 147 457 169 457 q 94 475 115 457 q 74 526 74 493 q 124 620 74 581 q 242 681 174 660 q 361 701 311 701 q 510 657 458 701 q 561 533 561 613 l 561 100 l 661 81 l 661 22 q 635 13 656 19 q 582 -1 614 6 q 517 -7 550 -7 q 460 10 476 -7 q 436 58 443 28 l 429 58 q 360 12 410 36 q 250 -12 310 -12 m 315 85 q 383 94 353 85 q 426 110 413 103 l 426 317 q 247 276 300 307 q 194 185 194 244 q 226 113 194 142 q 315 85 257 85 m 476 769 q 465 806 476 778 q 420 861 453 835 q 328 888 388 888 q 235 860 268 888 q 189 804 201 833 q 176 767 176 775 l 126 782 q 141 848 126 800 q 203 942 156 896 q 338 988 250 988 q 475 944 426 988 q 540 856 524 901 q 557 794 557 810 l 476 769 z "},"ā":{"ha":679,"x_min":46,"x_max":656,"o":"m 76 833 l 92 924 l 558 924 l 544 833 l 76 833 m 244 -12 q 95 38 144 -12 q 46 163 46 88 q 108 302 46 250 q 289 371 171 354 l 422 392 l 422 492 q 392 578 422 550 q 296 606 361 606 q 244 601 265 606 q 217 596 222 597 l 196 468 q 178 462 193 467 q 143 457 164 457 q 90 475 111 457 q 69 526 69 493 q 119 620 69 581 q 238 681 169 660 q 357 701 307 701 q 505 657 454 701 q 556 533 556 613 l 556 100 l 656 81 l 656 22 q 629 13 650 19 q 577 -1 608 6 q 513 -7 546 -7 q 455 10 472 -7 q 432 58 438 28 l 424 58 q 355 13 406 38 q 244 -12 304 -12 m 311 85 q 378 94 349 85 q 422 110 408 103 l 422 317 q 243 276 296 307 q 190 185 190 244 q 222 113 190 140 q 311 85 253 85 z "},"ą":{"ha":679,"x_min":46,"x_max":656,"o":"m 506 -260 q 418 -233 451 -260 q 385 -157 385 -207 q 413 -72 385 -111 q 483 -3 440 -32 q 447 19 458 3 q 432 58 436 35 l 424 58 q 355 13 406 38 q 244 -12 304 -12 q 95 38 144 -12 q 46 163 46 88 q 108 302 46 250 q 289 371 171 354 l 422 392 l 422 492 q 392 578 422 550 q 296 606 361 606 q 244 601 265 606 q 217 596 222 597 l 196 468 q 178 462 193 467 q 143 457 164 457 q 90 475 111 457 q 69 526 69 493 q 119 620 69 581 q 238 681 169 660 q 357 701 307 701 q 505 657 454 701 q 556 533 556 613 l 556 100 l 656 81 l 656 22 q 621 10 649 19 q 560 -3 593 1 q 488 -114 488 -62 q 544 -171 488 -171 q 621 -143 575 -171 l 649 -189 q 627 -209 649 -190 q 574 -244 606 -228 q 506 -260 543 -260 m 311 85 q 378 94 349 85 q 422 110 408 103 l 422 317 q 243 276 296 307 q 190 185 190 244 q 222 113 190 140 q 311 85 253 85 z "},"å":{"ha":679,"x_min":46,"x_max":656,"o":"m 315 754 q 217 787 250 754 q 185 875 185 819 q 222 969 185 931 q 325 1007 258 1007 q 422 973 389 1007 q 456 883 456 939 q 418 791 456 828 q 315 754 381 754 m 321 815 q 361 830 350 815 q 372 881 372 844 q 360 930 372 917 q 318 943 347 943 q 278 929 289 943 q 268 881 268 915 q 280 828 268 842 q 321 815 292 815 m 244 -12 q 95 38 144 -12 q 46 163 46 88 q 108 302 46 250 q 289 371 171 354 l 422 392 l 422 492 q 392 578 422 550 q 296 606 361 606 q 244 601 265 606 q 217 596 222 597 l 196 468 q 178 462 193 467 q 143 457 164 457 q 90 475 111 457 q 69 526 69 493 q 119 620 69 581 q 238 681 169 660 q 357 701 307 701 q 505 657 454 701 q 556 533 556 613 l 556 100 l 656 81 l 656 22 q 629 13 650 19 q 577 -1 608 6 q 513 -7 546 -7 q 455 10 472 -7 q 432 58 438 28 l 424 58 q 355 13 406 38 q 244 -12 304 -12 m 311 85 q 378 94 349 85 q 422 110 408 103 l 422 317 q 243 276 296 307 q 190 185 190 244 q 222 113 190 140 q 311 85 253 85 z "},"ǻ":{"ha":683,"x_min":51,"x_max":661,"o":"m 51 0 m 250 -12 q 101 38 150 -12 q 51 163 51 88 q 114 302 51 250 q 294 371 176 354 l 426 392 l 426 492 q 396 578 426 550 q 300 606 365 606 q 248 601 269 606 q 221 596 226 597 l 200 468 q 183 462 197 467 q 147 457 169 457 q 94 475 115 457 q 74 526 74 493 q 124 620 74 581 q 242 681 174 660 q 361 701 311 701 q 510 657 458 701 q 561 533 561 613 l 561 100 l 661 81 l 661 22 q 635 13 656 19 q 582 -1 614 6 q 517 -7 550 -7 q 460 10 476 -7 q 436 58 443 28 l 429 58 q 360 12 410 36 q 250 -12 310 -12 m 315 85 q 383 94 353 85 q 426 110 413 103 l 426 317 q 247 276 300 307 q 194 185 194 244 q 226 113 194 142 q 315 85 257 85 m 206 875 q 242 969 206 931 q 346 1007 279 1007 q 443 973 410 1007 q 476 883 476 939 q 439 791 476 828 q 336 754 401 754 q 238 787 271 754 q 206 875 206 819 m 342 815 q 382 831 371 815 q 393 881 393 846 q 381 930 393 917 q 339 943 368 943 q 299 929 310 943 q 288 881 288 915 q 300 828 288 842 q 342 815 313 815 m 422 1276 q 457 1311 443 1300 q 486 1322 471 1322 q 531 1297 508 1322 q 561 1226 553 1271 l 318 1064 l 276 1111 l 422 1276 z "},"ã":{"ha":679,"x_min":46,"x_max":656,"o":"m 426 793 q 365 803 400 793 q 324 814 329 813 l 204 851 l 107 803 l 71 836 l 114 907 q 153 945 129 932 q 206 958 178 958 q 307 938 232 958 l 426 900 l 524 950 l 560 917 l 517 844 q 426 793 485 793 m 244 -12 q 95 38 144 -12 q 46 163 46 88 q 108 302 46 250 q 289 371 171 354 l 422 392 l 422 492 q 392 578 422 550 q 296 606 361 606 q 244 601 265 606 q 217 596 222 597 l 196 468 q 178 462 193 467 q 143 457 164 457 q 90 475 111 457 q 69 526 69 493 q 119 620 69 581 q 238 681 169 660 q 357 701 307 701 q 505 657 454 701 q 556 533 556 613 l 556 100 l 656 81 l 656 22 q 629 13 650 19 q 577 -1 608 6 q 513 -7 546 -7 q 455 10 472 -7 q 432 58 438 28 l 424 58 q 355 13 406 38 q 244 -12 304 -12 m 311 85 q 378 94 349 85 q 422 110 408 103 l 422 317 q 243 276 296 307 q 190 185 190 244 q 222 113 190 140 q 311 85 253 85 z "},"æ":{"ha":1029,"x_min":57,"x_max":986,"o":"m 432 486 q 402 572 432 544 q 307 600 372 600 q 256 596 276 600 q 229 590 235 592 l 201 468 q 184 462 199 467 q 150 457 169 457 q 98 472 117 457 q 79 525 79 488 q 130 621 79 581 q 249 681 181 661 q 368 701 318 701 q 474 680 429 701 q 543 619 519 658 q 629 681 579 660 q 738 701 679 701 q 931 617 876 701 q 986 381 986 533 q 974 334 986 347 q 938 319 963 321 l 575 310 q 610 150 575 208 q 750 92 644 92 q 849 97 806 92 q 917 109 893 103 q 947 117 942 115 l 964 67 q 933 43 964 64 q 851 4 901 22 q 735 -14 800 -14 q 506 76 579 -14 q 257 -12 411 -12 q 106 38 156 -12 q 57 163 57 88 q 124 310 57 256 q 304 371 192 364 l 432 379 l 432 486 m 847 404 q 851 457 851 429 q 824 572 851 542 q 725 603 797 603 q 613 544 646 603 q 578 388 579 486 l 847 404 m 432 303 q 253 273 304 299 q 201 189 201 247 q 231 114 201 143 q 321 85 260 85 q 386 96 357 85 q 432 117 415 107 l 432 303 z "},"ǽ":{"ha":1029,"x_min":57,"x_max":986,"o":"m 57 0 m 432 486 q 402 572 432 544 q 307 600 372 600 q 256 596 276 600 q 229 590 235 592 l 201 468 q 184 462 199 467 q 150 457 169 457 q 98 472 117 457 q 79 525 79 488 q 130 621 79 581 q 249 681 181 661 q 368 701 318 701 q 474 680 429 701 q 543 619 519 658 q 629 681 579 660 q 738 701 679 701 q 931 617 876 701 q 986 381 986 533 q 974 334 986 347 q 938 319 963 321 l 575 310 q 610 150 575 208 q 750 92 644 92 q 849 97 806 92 q 917 109 893 103 q 947 117 942 115 l 964 67 q 933 43 964 64 q 851 4 901 22 q 735 -14 800 -14 q 506 76 579 -14 q 257 -12 411 -12 q 106 38 156 -12 q 57 163 57 88 q 124 310 57 256 q 304 371 192 364 l 432 379 l 432 486 m 847 404 q 851 457 851 429 q 824 572 851 542 q 725 603 797 603 q 613 544 646 603 q 578 388 579 486 l 847 404 m 432 303 q 253 273 304 299 q 201 189 201 247 q 231 114 201 143 q 321 85 260 85 q 386 96 357 85 q 432 117 415 107 l 432 303 m 593 956 q 628 990 614 979 q 657 1001 642 1001 q 701 976 679 1001 q 732 906 724 950 l 489 743 l 447 790 l 593 956 z "},"b":{"ha":731,"x_min":-17,"x_max":679,"o":"m 382 -12 q 221 47 285 -12 l 208 47 l 165 -3 l 97 -3 l 97 854 l -17 874 l -17 935 l 190 971 l 232 951 l 232 658 l 229 639 l 229 631 q 308 678 258 656 q 426 701 358 701 q 610 625 540 701 q 679 389 679 549 q 638 169 679 260 q 530 33 597 79 q 382 -12 463 -12 m 357 76 q 488 139 443 76 q 532 347 532 201 q 494 540 532 482 q 364 597 456 597 q 232 576 303 597 l 232 100 q 357 76 294 76 z "},"c":{"ha":617,"x_min":33,"x_max":574,"o":"m 564 71 q 533 46 564 68 q 452 5 503 24 q 338 -14 401 -14 q 114 73 194 -14 q 33 326 33 160 q 73 523 33 438 q 185 655 113 608 q 351 701 257 701 q 513 651 453 701 q 574 526 574 601 q 555 476 574 497 q 496 456 536 456 q 465 460 476 456 q 450 465 453 464 l 426 597 q 402 605 426 599 q 347 611 378 611 q 215 551 253 611 q 178 350 178 490 q 228 151 178 210 q 392 92 278 92 q 465 97 431 92 q 519 109 499 103 q 544 118 539 115 l 564 71 z "},"ć":{"ha":628,"x_min":50,"x_max":590,"o":"m 367 956 q 402 990 389 979 q 431 1001 415 1001 q 475 976 453 1001 q 506 906 497 950 l 263 743 l 221 790 l 367 956 m 581 71 q 550 46 581 68 q 469 5 519 24 q 354 -14 418 -14 q 131 73 211 -14 q 50 326 50 160 q 90 523 50 438 q 201 655 129 608 q 368 701 274 701 q 530 651 469 701 q 590 526 590 601 q 572 476 590 497 q 513 456 553 456 q 481 460 493 456 q 467 465 469 464 l 443 597 q 419 605 443 599 q 364 611 394 611 q 232 551 269 611 q 194 350 194 490 q 244 151 194 210 q 408 92 294 92 q 481 97 447 92 q 535 109 515 103 q 561 118 556 115 l 581 71 z "},"č":{"ha":628,"x_min":50,"x_max":590,"o":"m 343 753 q 269 803 319 753 l 138 933 l 189 988 l 353 872 l 515 989 l 553 939 l 417 803 q 376 765 393 778 q 343 753 358 753 m 354 -14 q 131 73 211 -14 q 50 326 50 160 q 90 523 50 438 q 201 655 129 608 q 368 701 274 701 q 530 651 469 701 q 590 526 590 601 q 572 476 590 497 q 513 456 553 456 q 481 460 493 456 q 467 465 469 464 l 443 597 q 419 605 443 599 q 364 611 394 611 q 232 551 269 611 q 194 350 194 490 q 244 151 194 210 q 408 92 294 92 q 481 97 447 92 q 535 109 515 103 q 561 118 556 115 l 581 71 q 550 46 581 68 q 469 5 519 24 q 354 -14 418 -14 z "},"ç":{"ha":628,"x_min":50,"x_max":590,"o":"m 328 -262 q 270 -257 294 -262 q 221 -239 246 -251 l 244 -183 q 322 -200 285 -200 q 394 -160 394 -200 q 385 -134 394 -142 q 354 -122 376 -126 l 306 -112 l 278 -85 l 310 -11 q 118 88 186 1 q 50 326 50 174 q 90 523 50 438 q 201 655 129 608 q 368 701 274 701 q 530 651 469 701 q 590 526 590 601 q 572 476 590 497 q 513 456 553 456 q 467 465 482 456 l 443 597 q 408 607 431 603 q 364 611 386 611 q 232 551 269 611 q 194 350 194 490 q 244 151 194 210 q 408 92 294 92 q 481 97 447 92 q 535 109 515 103 q 561 118 556 115 l 581 71 q 553 48 581 68 q 479 9 525 28 q 375 -12 433 -10 l 375 -40 l 400 -47 q 474 -76 449 -58 q 499 -136 499 -94 q 451 -232 499 -201 q 328 -262 403 -262 z "},"ĉ":{"ha":617,"x_min":33,"x_max":574,"o":"m 33 0 m 564 71 q 533 46 564 68 q 452 5 503 24 q 338 -14 401 -14 q 114 73 194 -14 q 33 326 33 160 q 73 523 33 438 q 185 655 113 608 q 351 701 257 701 q 513 651 453 701 q 574 526 574 601 q 555 476 574 497 q 496 456 536 456 q 465 460 476 456 q 450 465 453 464 l 426 597 q 402 605 426 599 q 347 611 378 611 q 215 551 253 611 q 178 350 178 490 q 228 151 178 210 q 392 92 278 92 q 465 97 431 92 q 519 109 499 103 q 544 118 539 115 l 564 71 m 275 950 q 343 990 315 990 q 399 958 367 990 l 547 807 l 496 753 l 332 865 l 171 754 l 131 803 l 275 950 z "},"ċ":{"ha":617,"x_min":33,"x_max":574,"o":"m 33 0 m 564 71 q 533 46 564 68 q 452 5 503 24 q 338 -14 401 -14 q 114 73 194 -14 q 33 326 33 160 q 73 523 33 438 q 185 655 113 608 q 351 701 257 701 q 513 651 453 701 q 574 526 574 601 q 555 476 574 497 q 496 456 536 456 q 465 460 476 456 q 450 465 453 464 l 426 597 q 402 605 426 599 q 347 611 378 611 q 215 551 253 611 q 178 350 178 490 q 228 151 178 210 q 392 92 278 92 q 465 97 431 92 q 519 109 499 103 q 544 118 539 115 l 564 71 m 333 786 q 271 812 294 786 q 247 879 247 838 q 274 950 247 921 q 342 979 301 979 q 405 955 381 979 q 429 889 429 931 q 403 816 429 846 q 333 786 376 786 z "},"d":{"ha":760,"x_min":51,"x_max":735,"o":"m 310 -14 q 123 65 194 -14 q 51 304 51 144 q 96 530 51 440 q 208 660 140 619 q 350 701 276 701 q 499 653 439 701 l 500 667 l 497 683 l 497 854 l 383 886 l 383 947 l 589 971 l 632 951 l 632 106 l 735 83 l 735 22 l 529 -7 l 507 64 l 501 65 q 426 11 475 36 q 310 -14 376 -14 m 360 92 q 435 102 399 92 q 497 125 472 113 l 497 586 q 374 607 439 607 q 242 547 288 607 q 197 343 197 488 q 234 150 197 208 q 360 92 271 92 z "},"ð":{"ha":729,"x_min":53,"x_max":686,"o":"m 368 -15 q 131 74 210 -15 q 53 328 53 164 q 94 506 53 431 q 208 622 135 582 q 379 661 282 661 q 519 629 456 661 q 418 817 492 758 l 271 729 l 231 796 l 339 863 q 161 886 274 886 l 161 951 q 197 956 168 953 q 271 960 225 960 q 444 924 364 960 l 568 999 l 608 931 l 519 876 q 642 700 599 811 q 686 436 686 589 q 603 94 686 204 q 368 -15 519 -15 m 376 74 q 476 107 442 74 q 524 205 511 140 q 538 376 538 269 q 531 538 538 454 q 379 567 457 567 q 240 510 279 567 q 200 340 200 454 q 212 203 200 260 q 263 110 224 147 q 376 74 301 74 z "},"ď":{"ha":772,"x_min":54,"x_max":829,"o":"m 699 753 q 716 819 710 782 q 722 888 722 857 q 690 972 722 931 q 756 1003 715 1003 q 810 981 792 1003 q 829 928 829 960 q 811 857 829 896 q 774 790 793 818 q 749 753 754 761 l 699 753 m 311 -14 q 126 65 197 -14 q 54 304 54 144 q 99 530 54 440 q 211 660 143 619 q 353 701 279 701 q 501 653 442 701 l 503 664 l 500 686 l 500 854 l 386 886 l 386 947 l 592 971 l 635 951 l 635 106 l 738 83 l 738 22 l 532 -7 l 510 64 l 504 65 q 428 11 478 36 q 311 -14 379 -14 m 363 92 q 438 102 401 92 q 500 125 475 113 l 500 586 q 376 607 440 607 q 245 547 290 607 q 200 343 200 488 q 237 150 200 208 q 363 92 274 92 z "},"đ":{"ha":757,"x_min":51,"x_max":735,"o":"m 310 -14 q 124 65 196 -14 q 51 304 51 144 q 96 528 51 439 q 208 657 140 617 q 351 697 276 697 q 499 647 438 697 l 500 663 l 497 682 l 497 763 l 247 763 l 247 842 l 497 842 l 497 876 l 394 899 l 394 949 l 589 971 l 632 951 l 632 842 l 683 842 l 683 763 l 632 763 l 632 106 l 735 83 l 735 22 l 529 -7 l 507 64 l 501 65 q 426 11 475 36 q 310 -14 376 -14 m 360 92 q 435 102 399 92 q 497 125 472 113 l 497 581 q 374 601 439 601 q 242 543 288 601 q 197 343 197 485 q 234 150 197 208 q 360 92 271 92 z "},"ḍ":{"ha":760,"x_min":51,"x_max":735,"o":"m 51 0 m 310 -14 q 123 65 194 -14 q 51 304 51 144 q 96 530 51 440 q 208 660 140 619 q 350 701 276 701 q 499 653 439 701 l 500 667 l 497 683 l 497 854 l 383 886 l 383 947 l 589 971 l 632 951 l 632 106 l 735 83 l 735 22 l 529 -7 l 507 64 l 501 65 q 426 11 475 36 q 310 -14 376 -14 m 360 92 q 435 102 399 92 q 497 125 472 113 l 497 586 q 374 607 439 607 q 242 547 288 607 q 197 343 197 488 q 234 150 197 208 q 360 92 271 92 m 375 -253 q 313 -227 336 -253 q 289 -160 289 -201 q 316 -90 289 -119 q 383 -60 343 -60 q 447 -84 422 -60 q 471 -150 471 -108 q 444 -223 471 -193 q 375 -253 418 -253 z "},"ǳ":{"ha":1372,"x_min":51,"x_max":1342,"o":"m 51 0 m 310 -14 q 123 65 194 -14 q 51 304 51 144 q 96 530 51 440 q 208 660 140 619 q 350 701 276 701 q 499 653 439 701 l 500 667 l 497 683 l 497 854 l 383 886 l 383 947 l 589 971 l 632 951 l 632 106 l 735 83 l 735 22 l 529 -7 l 507 64 l 501 65 q 426 11 475 36 q 310 -14 376 -14 m 360 92 q 435 102 399 92 q 497 125 472 113 l 497 586 q 374 607 439 607 q 242 547 288 607 q 197 343 197 488 q 234 150 197 208 q 360 92 271 92 m 785 0 l 785 82 l 1151 586 l 1154 604 l 906 604 l 882 493 l 813 493 l 799 688 l 1314 688 l 1314 582 l 961 104 l 957 82 l 1235 82 l 1257 201 l 1328 201 l 1342 0 l 785 0 z "},"ǆ":{"ha":1372,"x_min":51,"x_max":1342,"o":"m 51 0 m 310 -14 q 123 65 194 -14 q 51 304 51 144 q 96 530 51 440 q 208 660 140 619 q 350 701 276 701 q 499 653 439 701 l 500 667 l 497 683 l 497 854 l 383 886 l 383 947 l 589 971 l 632 951 l 632 106 l 735 83 l 735 22 l 529 -7 l 507 64 l 501 65 q 426 11 475 36 q 310 -14 376 -14 m 360 92 q 435 102 399 92 q 497 125 472 113 l 497 586 q 374 607 439 607 q 242 547 288 607 q 197 343 197 488 q 234 150 197 208 q 360 92 271 92 m 785 0 l 785 82 l 1151 586 l 1154 604 l 906 604 l 882 493 l 813 493 l 799 688 l 1314 688 l 1314 582 l 961 104 l 957 82 l 1235 82 l 1257 201 l 1328 201 l 1342 0 l 785 0 m 1060 753 q 986 803 1036 753 l 854 933 l 906 988 l 1071 872 l 1232 989 l 1269 939 l 1135 803 q 1092 765 1110 778 q 1060 753 1075 753 z "},"e":{"ha":650,"x_min":33,"x_max":590,"o":"m 342 -14 q 112 76 190 -14 q 33 326 33 165 q 74 523 33 438 q 185 655 114 608 q 349 701 257 701 q 531 626 472 701 q 590 442 590 550 q 576 344 590 369 q 524 319 561 319 l 178 319 q 226 153 178 215 q 385 92 275 92 q 472 99 435 92 q 531 115 510 107 q 556 125 551 122 l 576 79 q 544 52 576 76 q 459 7 511 28 q 342 -14 407 -14 m 450 403 q 454 456 454 428 q 428 574 454 536 q 331 611 401 611 q 217 555 253 611 q 178 392 181 499 l 450 403 z "},"é":{"ha":658,"x_min":47,"x_max":604,"o":"m 218 790 l 364 956 q 399 990 386 979 q 428 1001 413 1001 q 472 976 450 1001 q 503 906 494 950 l 260 743 l 218 790 m 357 -14 q 126 76 204 -14 q 47 326 47 165 q 88 523 47 438 q 199 655 128 608 q 363 701 271 701 q 545 626 486 701 q 604 442 604 550 q 590 344 604 369 q 538 319 576 319 l 192 319 q 242 153 193 215 q 400 92 290 92 q 488 99 450 92 q 545 115 525 107 q 569 125 565 122 l 592 79 q 559 52 592 76 q 474 7 526 28 q 357 -14 422 -14 m 464 403 q 468 456 468 428 q 442 574 468 536 q 346 611 417 611 q 231 556 267 611 q 193 392 196 500 l 464 403 z "},"ĕ":{"ha":650,"x_min":33,"x_max":590,"o":"m 33 0 m 342 -14 q 112 76 190 -14 q 33 326 33 165 q 74 523 33 438 q 185 655 114 608 q 349 701 257 701 q 531 626 472 701 q 590 442 590 550 q 576 344 590 369 q 524 319 561 319 l 178 319 q 226 153 178 215 q 385 92 275 92 q 472 99 435 92 q 531 115 510 107 q 556 125 551 122 l 576 79 q 544 52 576 76 q 459 7 511 28 q 342 -14 407 -14 m 450 403 q 454 456 454 428 q 428 574 454 536 q 331 611 401 611 q 217 555 253 611 q 178 392 181 499 l 450 403 m 207 986 q 219 948 207 976 q 263 893 231 919 q 356 867 296 867 q 449 894 415 867 q 494 950 482 921 q 507 988 507 979 l 557 974 q 542 907 557 956 q 481 813 528 858 q 346 767 433 767 q 208 810 257 767 q 143 899 160 853 q 126 961 126 946 l 207 986 z "},"ě":{"ha":658,"x_min":47,"x_max":604,"o":"m 338 753 q 264 803 314 753 l 132 933 l 183 988 l 349 872 l 510 989 l 547 939 l 413 803 q 370 765 388 778 q 338 753 353 753 m 357 -14 q 126 76 204 -14 q 47 326 47 165 q 88 523 47 438 q 199 655 128 608 q 363 701 271 701 q 545 626 486 701 q 604 442 604 550 q 590 344 604 369 q 538 319 576 319 l 192 319 q 242 153 193 215 q 400 92 290 92 q 488 99 450 92 q 545 115 525 107 q 569 125 565 122 l 592 79 q 559 52 592 76 q 474 7 526 28 q 357 -14 422 -14 m 464 403 q 468 456 468 428 q 442 574 468 536 q 346 611 417 611 q 231 556 267 611 q 193 392 196 500 l 464 403 z "},"ê":{"ha":658,"x_min":47,"x_max":604,"o":"m 326 865 l 165 754 l 125 803 l 271 950 q 339 990 311 990 q 394 958 363 990 l 542 807 l 492 753 l 326 865 m 357 -14 q 126 76 204 -14 q 47 326 47 165 q 88 523 47 438 q 199 655 128 608 q 363 701 271 701 q 545 626 486 701 q 604 442 604 550 q 590 344 604 369 q 538 319 576 319 l 192 319 q 242 153 193 215 q 400 92 290 92 q 488 99 450 92 q 545 115 525 107 q 569 125 565 122 l 592 79 q 559 52 592 76 q 474 7 526 28 q 357 -14 422 -14 m 464 403 q 468 456 468 428 q 442 574 468 536 q 346 611 417 611 q 231 556 267 611 q 193 392 196 500 l 464 403 z "},"ế":{"ha":650,"x_min":33,"x_max":697,"o":"m 33 0 m 342 -14 q 112 76 190 -14 q 33 326 33 165 q 74 523 33 438 q 185 655 114 608 q 349 701 257 701 q 531 626 472 701 q 590 442 590 550 q 576 344 590 369 q 524 319 561 319 l 178 319 q 226 153 178 215 q 385 92 275 92 q 472 99 435 92 q 531 115 510 107 q 556 125 551 122 l 576 79 q 544 52 576 76 q 459 7 511 28 q 342 -14 407 -14 m 450 403 q 454 456 454 428 q 428 574 454 536 q 331 611 401 611 q 217 555 253 611 q 178 392 181 499 l 450 403 m 240 950 q 308 990 281 990 q 364 958 332 990 l 513 807 l 461 753 l 297 865 l 136 754 l 96 803 l 240 950 m 558 1136 q 593 1171 579 1160 q 622 1182 607 1182 q 667 1156 644 1182 q 697 1086 689 1131 l 454 924 l 413 971 l 558 1136 z "},"ệ":{"ha":650,"x_min":33,"x_max":590,"o":"m 33 0 m 342 -14 q 112 76 190 -14 q 33 326 33 165 q 74 523 33 438 q 185 655 114 608 q 349 701 257 701 q 531 626 472 701 q 590 442 590 550 q 576 344 590 369 q 524 319 561 319 l 178 319 q 226 153 178 215 q 385 92 275 92 q 472 99 435 92 q 531 115 510 107 q 556 125 551 122 l 576 79 q 544 52 576 76 q 459 7 511 28 q 342 -14 407 -14 m 450 403 q 454 456 454 428 q 428 574 454 536 q 331 611 401 611 q 217 555 253 611 q 178 392 181 499 l 450 403 m 336 -253 q 274 -227 297 -253 q 250 -160 250 -201 q 277 -90 250 -119 q 344 -60 304 -60 q 408 -84 383 -60 q 432 -150 432 -108 q 406 -223 432 -193 q 336 -253 379 -253 m 278 950 q 346 990 318 990 q 401 958 369 990 l 550 807 l 499 753 l 335 865 l 174 754 l 133 803 l 278 950 z "},"ề":{"ha":650,"x_min":33,"x_max":590,"o":"m 33 0 m 342 -14 q 112 76 190 -14 q 33 326 33 165 q 74 523 33 438 q 185 655 114 608 q 349 701 257 701 q 531 626 472 701 q 590 442 590 550 q 576 344 590 369 q 524 319 561 319 l 178 319 q 226 153 178 215 q 385 92 275 92 q 472 99 435 92 q 531 115 510 107 q 556 125 551 122 l 576 79 q 544 52 576 76 q 459 7 511 28 q 342 -14 407 -14 m 450 403 q 454 456 454 428 q 428 574 454 536 q 331 611 401 611 q 217 555 253 611 q 178 392 181 499 l 450 403 m 260 950 q 328 990 300 990 q 383 958 351 990 l 532 807 l 481 753 l 317 865 l 156 754 l 115 803 l 260 950 m 283 1086 q 314 1156 292 1131 q 358 1182 336 1182 q 388 1171 374 1182 q 422 1136 401 1160 l 568 971 l 526 924 l 283 1086 z "},"ể":{"ha":650,"x_min":33,"x_max":639,"o":"m 33 0 m 342 -14 q 112 76 190 -14 q 33 326 33 165 q 74 523 33 438 q 185 655 114 608 q 349 701 257 701 q 531 626 472 701 q 590 442 590 550 q 576 344 590 369 q 524 319 561 319 l 178 319 q 226 153 178 215 q 385 92 275 92 q 472 99 435 92 q 531 115 510 107 q 556 125 551 122 l 576 79 q 544 52 576 76 q 459 7 511 28 q 342 -14 407 -14 m 450 403 q 454 456 454 428 q 428 574 454 536 q 331 611 401 611 q 217 555 253 611 q 178 392 181 499 l 450 403 m 243 950 q 311 990 283 990 q 367 958 335 990 l 515 807 l 464 753 l 300 865 l 139 754 l 99 803 l 243 950 m 447 925 q 433 969 433 956 q 446 999 433 986 q 488 1026 458 1011 q 522 1051 513 1040 q 532 1076 532 1061 q 517 1103 532 1094 q 468 1111 501 1111 q 385 1100 429 1111 q 368 1147 368 1125 q 388 1181 368 1169 q 460 1192 407 1192 q 592 1163 544 1192 q 639 1079 639 1133 q 620 1028 639 1050 q 563 986 601 1006 q 528 965 536 974 q 521 943 521 957 q 522 935 521 938 l 447 925 z "},"ễ":{"ha":650,"x_min":33,"x_max":590,"o":"m 140 1131 q 179 1167 156 1154 q 232 1179 203 1179 q 290 1171 256 1179 q 333 1160 324 1163 l 453 1124 l 550 1171 l 586 1139 l 543 1069 q 453 1021 511 1021 q 350 1040 422 1021 l 231 1076 l 133 1029 l 97 1063 l 140 1131 m 275 950 q 343 990 315 990 q 399 958 367 990 l 547 807 l 496 753 l 332 865 l 171 754 l 131 803 l 275 950 m 342 -14 q 112 76 190 -14 q 33 326 33 165 q 74 523 33 438 q 185 655 114 608 q 349 701 257 701 q 531 626 472 701 q 590 442 590 550 q 576 344 590 369 q 524 319 561 319 l 178 319 q 226 153 178 215 q 385 92 275 92 q 472 99 435 92 q 531 115 510 107 q 556 125 551 122 l 576 79 q 544 52 576 76 q 459 7 511 28 q 342 -14 407 -14 m 450 403 q 454 456 454 428 q 428 574 454 536 q 331 611 401 611 q 217 555 253 611 q 178 392 181 499 l 450 403 z "},"ȅ":{"ha":650,"x_min":33,"x_max":590,"o":"m 33 0 m 342 -14 q 112 76 190 -14 q 33 326 33 165 q 74 523 33 438 q 185 655 114 608 q 349 701 257 701 q 531 626 472 701 q 590 442 590 550 q 576 344 590 369 q 524 319 561 319 l 178 319 q 226 153 178 215 q 385 92 275 92 q 472 99 435 92 q 531 115 510 107 q 556 125 551 122 l 576 79 q 544 52 576 76 q 459 7 511 28 q 342 -14 407 -14 m 450 403 q 454 456 454 428 q 428 574 454 536 q 331 611 401 611 q 217 555 253 611 q 178 392 181 499 l 450 403 m 289 776 l 240 742 l 60 939 q 99 991 78 974 q 139 1008 121 1008 q 172 994 160 1008 q 193 964 185 981 q 206 940 201 947 l 289 776 m 518 776 l 468 742 l 288 939 q 328 991 306 974 q 368 1008 350 1008 q 401 994 389 1008 q 423 963 414 981 q 435 940 432 946 l 518 776 z "},"ë":{"ha":658,"x_min":47,"x_max":604,"o":"m 193 793 q 136 817 158 793 q 114 878 114 840 q 139 942 114 915 q 200 969 164 969 q 257 947 235 969 q 279 886 279 924 q 256 820 279 847 q 193 793 232 793 m 492 793 q 435 817 457 793 q 413 878 413 840 q 438 942 413 915 q 499 969 463 969 q 556 947 535 969 q 578 886 578 925 q 554 820 578 847 q 492 793 531 793 m 357 -14 q 126 76 204 -14 q 47 326 47 165 q 88 523 47 438 q 199 655 128 608 q 363 701 271 701 q 545 626 486 701 q 604 442 604 550 q 590 344 604 369 q 538 319 576 319 l 192 319 q 242 153 193 215 q 400 92 290 92 q 488 99 450 92 q 545 115 525 107 q 569 125 565 122 l 592 79 q 559 52 592 76 q 474 7 526 28 q 357 -14 422 -14 m 464 403 q 468 456 468 428 q 442 574 468 536 q 346 611 417 611 q 231 556 267 611 q 193 392 196 500 l 464 403 z "},"ė":{"ha":658,"x_min":47,"x_max":604,"o":"m 344 786 q 282 812 306 786 q 258 879 258 838 q 285 950 258 921 q 353 979 313 979 q 415 955 392 979 q 439 889 439 931 q 413 816 439 846 q 344 786 388 786 m 357 -14 q 126 76 204 -14 q 47 326 47 165 q 88 523 47 438 q 199 655 128 608 q 363 701 271 701 q 545 626 486 701 q 604 442 604 550 q 590 344 604 369 q 538 319 576 319 l 192 319 q 242 153 193 215 q 400 92 290 92 q 488 99 450 92 q 545 115 525 107 q 569 125 565 122 l 592 79 q 559 52 592 76 q 474 7 526 28 q 357 -14 422 -14 m 464 403 q 468 456 468 428 q 442 574 468 536 q 346 611 417 611 q 231 556 267 611 q 193 392 196 500 l 464 403 z "},"ẹ":{"ha":650,"x_min":33,"x_max":590,"o":"m 33 0 m 342 -14 q 112 76 190 -14 q 33 326 33 165 q 74 523 33 438 q 185 655 114 608 q 349 701 257 701 q 531 626 472 701 q 590 442 590 550 q 576 344 590 369 q 524 319 561 319 l 178 319 q 226 153 178 215 q 385 92 275 92 q 472 99 435 92 q 531 115 510 107 q 556 125 551 122 l 576 79 q 544 52 576 76 q 459 7 511 28 q 342 -14 407 -14 m 450 403 q 454 456 454 428 q 428 574 454 536 q 331 611 401 611 q 217 555 253 611 q 178 392 181 499 l 450 403 m 336 -253 q 274 -227 297 -253 q 250 -160 250 -201 q 277 -90 250 -119 q 344 -60 304 -60 q 408 -84 383 -60 q 432 -150 432 -108 q 406 -223 432 -193 q 336 -253 379 -253 z "},"è":{"ha":658,"x_min":47,"x_max":604,"o":"m 186 906 q 217 976 194 950 q 261 1001 239 1001 q 290 990 276 1001 q 325 956 304 979 l 471 790 l 428 743 l 186 906 m 357 -14 q 126 76 204 -14 q 47 326 47 165 q 88 523 47 438 q 199 655 128 608 q 363 701 271 701 q 545 626 486 701 q 604 442 604 550 q 590 344 604 369 q 538 319 576 319 l 192 319 q 242 153 193 215 q 400 92 290 92 q 488 99 450 92 q 545 115 525 107 q 569 125 565 122 l 592 79 q 559 52 592 76 q 474 7 526 28 q 357 -14 422 -14 m 464 403 q 468 456 468 428 q 442 574 468 536 q 346 611 417 611 q 231 556 267 611 q 193 392 196 500 l 464 403 z "},"ẻ":{"ha":650,"x_min":33,"x_max":590,"o":"m 33 0 m 342 -14 q 112 76 190 -14 q 33 326 33 165 q 74 523 33 438 q 185 655 114 608 q 349 701 257 701 q 531 626 472 701 q 590 442 590 550 q 576 344 590 369 q 524 319 561 319 l 178 319 q 226 153 178 215 q 385 92 275 92 q 472 99 435 92 q 531 115 510 107 q 556 125 551 122 l 576 79 q 544 52 576 76 q 459 7 511 28 q 342 -14 407 -14 m 450 403 q 454 456 454 428 q 428 574 454 536 q 331 611 401 611 q 217 555 253 611 q 178 392 181 499 l 450 403 m 303 744 q 289 789 289 775 q 301 818 289 806 q 343 846 314 831 q 378 870 368 860 q 388 896 388 881 q 372 922 388 914 q 324 931 357 931 q 240 919 285 931 q 224 967 224 944 q 243 1000 224 989 q 315 1011 263 1011 q 447 982 400 1011 q 494 899 494 953 q 476 847 494 869 q 418 806 457 825 q 384 785 392 793 q 376 763 376 776 q 378 754 376 757 l 303 744 z "},"ȇ":{"ha":650,"x_min":33,"x_max":590,"o":"m 33 0 m 342 -14 q 112 76 190 -14 q 33 326 33 165 q 74 523 33 438 q 185 655 114 608 q 349 701 257 701 q 531 626 472 701 q 590 442 590 550 q 576 344 590 369 q 524 319 561 319 l 178 319 q 226 153 178 215 q 385 92 275 92 q 472 99 435 92 q 531 115 510 107 q 556 125 551 122 l 576 79 q 544 52 576 76 q 459 7 511 28 q 342 -14 407 -14 m 450 403 q 454 456 454 428 q 428 574 454 536 q 331 611 401 611 q 217 555 253 611 q 178 392 181 499 l 450 403 m 476 769 q 465 806 476 778 q 420 861 453 835 q 328 888 388 888 q 235 860 268 888 q 189 804 201 833 q 176 767 176 775 l 126 782 q 141 848 126 800 q 203 942 156 896 q 338 988 250 988 q 475 944 426 988 q 540 856 524 901 q 557 794 557 810 l 476 769 z "},"ē":{"ha":658,"x_min":47,"x_max":604,"o":"m 106 833 l 121 924 l 588 924 l 574 833 l 106 833 m 357 -14 q 126 76 204 -14 q 47 326 47 165 q 88 523 47 438 q 199 655 128 608 q 363 701 271 701 q 545 626 486 701 q 604 442 604 550 q 590 344 604 369 q 538 319 576 319 l 192 319 q 242 153 193 215 q 400 92 290 92 q 488 99 450 92 q 545 115 525 107 q 569 125 565 122 l 592 79 q 559 52 592 76 q 474 7 526 28 q 357 -14 422 -14 m 464 403 q 468 456 468 428 q 442 574 468 536 q 346 611 417 611 q 231 556 267 611 q 193 392 196 500 l 464 403 z "},"ę":{"ha":658,"x_min":47,"x_max":604,"o":"m 429 -260 q 342 -233 375 -260 q 308 -157 308 -207 q 397 -11 308 -74 q 357 -14 369 -14 q 126 76 204 -14 q 47 326 47 165 q 88 523 47 438 q 199 655 128 608 q 363 701 271 701 q 545 626 486 701 q 604 442 604 550 q 590 344 604 369 q 538 319 576 319 l 192 319 q 242 153 193 215 q 400 92 290 92 q 488 99 450 92 q 545 115 525 107 q 569 125 565 122 l 592 79 q 565 57 592 78 q 506 21 539 36 q 441 -42 471 -6 q 411 -114 411 -79 q 468 -171 411 -171 q 544 -143 499 -171 l 572 -189 q 551 -209 572 -190 q 498 -244 529 -228 q 429 -260 467 -260 m 464 403 q 468 456 468 428 q 442 574 468 536 q 346 611 417 611 q 231 556 267 611 q 193 392 196 500 l 464 403 z "},"ẽ":{"ha":650,"x_min":33,"x_max":590,"o":"m 33 0 m 342 -14 q 112 76 190 -14 q 33 326 33 165 q 74 523 33 438 q 185 655 114 608 q 349 701 257 701 q 531 626 472 701 q 590 442 590 550 q 576 344 590 369 q 524 319 561 319 l 178 319 q 226 153 178 215 q 385 92 275 92 q 472 99 435 92 q 531 115 510 107 q 556 125 551 122 l 576 79 q 544 52 576 76 q 459 7 511 28 q 342 -14 407 -14 m 450 403 q 454 456 454 428 q 428 574 454 536 q 331 611 401 611 q 217 555 253 611 q 178 392 181 499 l 450 403 m 140 907 q 180 945 156 932 q 232 958 204 958 q 333 938 258 958 l 453 900 l 550 950 l 586 917 l 543 844 q 453 793 511 793 q 391 803 426 793 q 350 814 356 813 l 231 851 l 133 803 l 97 836 l 140 907 z "},"ə":{"ha":650,"x_min":60,"x_max":617,"o":"m 308 700 q 538 610 460 700 q 617 360 617 521 q 576 163 617 249 q 465 31 536 78 q 301 -15 393 -15 q 119 60 178 -15 q 60 244 60 136 q 74 342 60 317 q 126 367 89 367 l 472 367 q 424 533 472 471 q 265 594 375 594 q 178 587 215 594 q 119 572 140 579 q 94 561 99 564 l 74 607 q 106 634 74 610 q 191 679 139 658 q 308 700 243 700 m 200 283 q 196 231 196 258 q 222 113 196 150 q 319 75 249 75 q 433 131 397 75 q 472 294 469 188 l 200 283 z "},"f":{"ha":438,"x_min":22,"x_max":496,"o":"m 22 63 l 122 82 l 122 601 l 32 601 l 32 674 l 122 693 q 163 840 125 775 q 263 940 200 904 q 404 975 326 975 q 472 956 447 975 q 496 903 496 938 q 480 855 496 874 q 451 831 464 836 q 418 840 454 829 q 378 851 408 843 q 329 862 347 858 q 299 865 311 865 q 257 856 276 865 l 257 689 l 435 689 l 435 642 l 417 601 l 257 601 l 257 86 l 401 64 l 401 0 l 22 0 l 22 63 z "},"g":{"ha":649,"x_min":25,"x_max":665,"o":"m 299 -231 q 101 -193 176 -231 q 25 -76 25 -156 q 68 22 25 -18 q 172 94 111 61 q 147 164 147 122 q 167 216 147 190 q 217 260 188 242 q 90 334 132 278 q 47 461 47 390 q 83 587 47 532 q 183 672 119 642 q 324 701 246 701 q 475 660 418 701 q 538 701 508 683 q 601 718 568 718 q 649 702 632 718 q 665 656 665 686 q 654 615 665 633 q 631 585 643 596 l 586 599 q 560 607 578 601 q 525 613 543 613 q 556 548 546 583 q 567 479 567 513 q 531 360 567 413 q 433 280 494 308 q 297 251 371 251 l 279 251 l 279 181 l 431 153 q 587 98 536 133 q 638 -11 638 63 q 592 -127 638 -78 q 469 -203 546 -176 q 299 -231 392 -231 m 307 339 q 401 369 371 339 q 431 479 431 399 q 403 581 431 549 q 311 614 376 614 q 213 581 242 614 q 185 472 185 549 q 214 369 185 400 q 307 339 243 339 m 329 -151 q 465 -124 418 -151 q 513 -50 513 -96 q 494 1 513 -19 q 424 32 475 22 l 225 67 q 176 10 197 43 q 156 -57 156 -24 q 196 -129 156 -107 q 329 -151 236 -151 z "},"ǵ":{"ha":649,"x_min":25,"x_max":665,"o":"m 25 0 m 299 -231 q 101 -193 176 -231 q 25 -76 25 -156 q 68 22 25 -18 q 172 94 111 61 q 147 164 147 122 q 167 216 147 190 q 217 260 188 242 q 90 334 132 278 q 47 461 47 390 q 83 587 47 532 q 183 672 119 642 q 324 701 246 701 q 475 660 418 701 q 538 701 508 683 q 601 718 568 718 q 649 702 632 718 q 665 656 665 686 q 654 615 665 633 q 631 585 643 596 l 586 599 q 560 607 578 601 q 525 613 543 613 q 556 548 546 583 q 567 479 567 513 q 531 360 567 413 q 433 280 494 308 q 297 251 371 251 l 279 251 l 279 181 l 431 153 q 587 98 536 133 q 638 -11 638 63 q 592 -127 638 -78 q 469 -203 546 -176 q 299 -231 392 -231 m 307 339 q 401 369 371 339 q 431 479 431 399 q 403 581 431 549 q 311 614 376 614 q 213 581 242 614 q 185 472 185 549 q 214 369 185 400 q 307 339 243 339 m 329 -151 q 465 -124 418 -151 q 513 -50 513 -96 q 494 1 513 -19 q 424 32 475 22 l 225 67 q 176 10 197 43 q 156 -57 156 -24 q 196 -129 156 -107 q 329 -151 236 -151 m 403 956 q 438 990 424 979 q 467 1001 451 1001 q 511 976 489 1001 q 542 906 533 950 l 299 743 l 257 790 l 403 956 z "},"ğ":{"ha":653,"x_min":25,"x_max":665,"o":"m 314 767 q 176 810 225 767 q 110 899 126 853 q 93 961 93 946 l 174 986 q 185 948 174 976 q 230 893 197 919 q 322 867 263 867 q 415 894 382 867 q 461 950 449 921 q 474 988 474 979 l 525 974 q 510 907 525 956 q 448 813 494 858 q 314 767 401 767 m 299 -231 q 101 -193 176 -231 q 25 -76 25 -156 q 68 22 25 -18 q 172 94 111 61 q 147 164 147 122 q 167 216 147 190 q 217 260 188 242 q 90 334 132 278 q 47 461 47 390 q 83 587 47 532 q 183 672 119 642 q 324 701 246 701 q 475 660 418 701 q 538 701 508 683 q 601 718 568 718 q 649 702 632 718 q 665 656 665 686 q 654 615 665 633 q 631 585 643 596 l 586 599 q 560 607 578 601 q 525 613 543 613 q 556 548 546 583 q 567 479 567 513 q 531 360 567 413 q 433 280 494 308 q 297 251 371 251 l 279 251 l 279 181 l 431 153 q 587 98 536 133 q 638 -11 638 63 q 592 -127 638 -78 q 469 -203 546 -176 q 299 -231 392 -231 m 307 339 q 401 369 371 339 q 431 479 431 399 q 403 581 431 549 q 311 614 376 614 q 213 581 242 614 q 185 472 185 549 q 214 369 185 400 q 307 339 243 339 m 329 -151 q 465 -124 418 -151 q 513 -50 513 -96 q 494 1 513 -19 q 424 32 475 22 l 225 67 q 176 10 197 43 q 156 -57 156 -24 q 196 -129 156 -107 q 329 -151 236 -151 z "},"ǧ":{"ha":649,"x_min":25,"x_max":665,"o":"m 25 0 m 299 -231 q 101 -193 176 -231 q 25 -76 25 -156 q 68 22 25 -18 q 172 94 111 61 q 147 164 147 122 q 167 216 147 190 q 217 260 188 242 q 90 334 132 278 q 47 461 47 390 q 83 587 47 532 q 183 672 119 642 q 324 701 246 701 q 475 660 418 701 q 538 701 508 683 q 601 718 568 718 q 649 702 632 718 q 665 656 665 686 q 654 615 665 633 q 631 585 643 596 l 586 599 q 560 607 578 601 q 525 613 543 613 q 556 548 546 583 q 567 479 567 513 q 531 360 567 413 q 433 280 494 308 q 297 251 371 251 l 279 251 l 279 181 l 431 153 q 587 98 536 133 q 638 -11 638 63 q 592 -127 638 -78 q 469 -203 546 -176 q 299 -231 392 -231 m 307 339 q 401 369 371 339 q 431 479 431 399 q 403 581 431 549 q 311 614 376 614 q 213 581 242 614 q 185 472 185 549 q 214 369 185 400 q 307 339 243 339 m 329 -151 q 465 -124 418 -151 q 513 -50 513 -96 q 494 1 513 -19 q 424 32 475 22 l 225 67 q 176 10 197 43 q 156 -57 156 -24 q 196 -129 156 -107 q 329 -151 236 -151 m 322 753 q 249 803 299 753 l 117 933 l 168 988 l 333 872 l 494 989 l 532 939 l 397 803 q 355 765 372 778 q 322 753 338 753 z "},"ĝ":{"ha":649,"x_min":25,"x_max":665,"o":"m 25 0 m 299 -231 q 101 -193 176 -231 q 25 -76 25 -156 q 68 22 25 -18 q 172 94 111 61 q 147 164 147 122 q 167 216 147 190 q 217 260 188 242 q 90 334 132 278 q 47 461 47 390 q 83 587 47 532 q 183 672 119 642 q 324 701 246 701 q 475 660 418 701 q 538 701 508 683 q 601 718 568 718 q 649 702 632 718 q 665 656 665 686 q 654 615 665 633 q 631 585 643 596 l 586 599 q 560 607 578 601 q 525 613 543 613 q 556 548 546 583 q 567 479 567 513 q 531 360 567 413 q 433 280 494 308 q 297 251 371 251 l 279 251 l 279 181 l 431 153 q 587 98 536 133 q 638 -11 638 63 q 592 -127 638 -78 q 469 -203 546 -176 q 299 -231 392 -231 m 307 339 q 401 369 371 339 q 431 479 431 399 q 403 581 431 549 q 311 614 376 614 q 213 581 242 614 q 185 472 185 549 q 214 369 185 400 q 307 339 243 339 m 329 -151 q 465 -124 418 -151 q 513 -50 513 -96 q 494 1 513 -19 q 424 32 475 22 l 225 67 q 176 10 197 43 q 156 -57 156 -24 q 196 -129 156 -107 q 329 -151 236 -151 m 261 950 q 329 990 301 990 q 385 958 353 990 l 533 807 l 482 753 l 318 865 l 157 754 l 117 803 l 261 950 z "},"ģ":{"ha":653,"x_min":25,"x_max":665,"o":"m 304 757 q 238 790 267 757 q 271 872 271 824 q 263 942 271 903 q 244 1007 254 981 l 293 1007 q 317 981 293 1010 q 359 913 340 951 q 378 832 378 874 q 359 780 378 803 q 304 757 340 757 m 299 -231 q 101 -193 176 -231 q 25 -76 25 -156 q 68 22 25 -18 q 172 94 111 61 q 147 164 147 122 q 167 216 147 190 q 217 260 188 242 q 90 334 132 278 q 47 461 47 390 q 83 587 47 532 q 183 672 119 642 q 324 701 246 701 q 475 660 418 701 q 538 701 508 683 q 601 718 568 718 q 649 702 632 718 q 665 656 665 686 q 654 615 665 633 q 631 585 643 596 l 586 599 q 560 607 578 601 q 525 613 543 613 q 556 548 546 583 q 567 479 567 513 q 531 360 567 413 q 433 280 494 308 q 297 251 371 251 l 279 251 l 279 181 l 431 153 q 587 98 536 133 q 638 -11 638 63 q 592 -127 638 -78 q 469 -203 546 -176 q 299 -231 392 -231 m 307 339 q 401 369 371 339 q 431 479 431 399 q 403 581 431 549 q 311 614 376 614 q 213 581 242 614 q 185 472 185 549 q 214 369 185 400 q 307 339 243 339 m 329 -151 q 465 -124 418 -151 q 513 -50 513 -96 q 494 1 513 -19 q 424 32 475 22 l 225 67 q 176 10 197 43 q 156 -57 156 -24 q 196 -129 156 -107 q 329 -151 236 -151 z "},"ġ":{"ha":649,"x_min":25,"x_max":665,"o":"m 25 0 m 299 -231 q 101 -193 176 -231 q 25 -76 25 -156 q 68 22 25 -18 q 172 94 111 61 q 147 164 147 122 q 167 216 147 190 q 217 260 188 242 q 90 334 132 278 q 47 461 47 390 q 83 587 47 532 q 183 672 119 642 q 324 701 246 701 q 475 660 418 701 q 538 701 508 683 q 601 718 568 718 q 649 702 632 718 q 665 656 665 686 q 654 615 665 633 q 631 585 643 596 l 586 599 q 560 607 578 601 q 525 613 543 613 q 556 548 546 583 q 567 479 567 513 q 531 360 567 413 q 433 280 494 308 q 297 251 371 251 l 279 251 l 279 181 l 431 153 q 587 98 536 133 q 638 -11 638 63 q 592 -127 638 -78 q 469 -203 546 -176 q 299 -231 392 -231 m 307 339 q 401 369 371 339 q 431 479 431 399 q 403 581 431 549 q 311 614 376 614 q 213 581 242 614 q 185 472 185 549 q 214 369 185 400 q 307 339 243 339 m 329 -151 q 465 -124 418 -151 q 513 -50 513 -96 q 494 1 513 -19 q 424 32 475 22 l 225 67 q 176 10 197 43 q 156 -57 156 -24 q 196 -129 156 -107 q 329 -151 236 -151 m 319 786 q 257 812 281 786 q 233 879 233 838 q 260 950 233 921 q 328 979 288 979 q 391 955 367 979 q 415 889 415 931 q 389 816 415 846 q 319 786 363 786 z "},"h":{"ha":810,"x_min":31,"x_max":786,"o":"m 31 63 l 143 82 l 143 856 l 31 876 l 31 940 l 239 971 l 278 957 l 278 650 l 274 639 l 275 631 q 379 681 318 660 q 490 701 440 701 q 626 656 575 701 q 678 510 678 610 l 678 82 l 786 63 l 786 0 l 438 0 l 438 63 l 543 82 l 543 486 q 511 573 543 547 q 407 599 479 599 q 278 582 353 599 l 278 82 l 383 63 l 383 0 l 31 0 l 31 63 z "},"ħ":{"ha":810,"x_min":29,"x_max":786,"o":"m 31 63 l 143 82 l 143 761 l 29 761 l 29 840 l 143 840 l 143 876 l 40 899 l 40 949 l 235 971 l 278 951 l 278 840 l 467 840 l 467 761 l 278 761 l 278 644 l 274 633 l 275 625 q 363 670 301 643 q 490 697 425 697 q 626 651 574 697 q 678 504 678 604 l 678 82 l 786 63 l 786 0 l 438 0 l 438 63 l 543 82 l 543 481 q 511 567 543 542 q 407 593 479 593 q 321 585 361 593 q 278 576 281 576 l 278 82 l 383 63 l 383 0 l 31 0 l 31 63 z "},"ĥ":{"ha":810,"x_min":1,"x_max":786,"o":"m 1 0 m 31 63 l 143 82 l 143 856 l 31 876 l 31 940 l 239 971 l 278 957 l 278 650 l 274 639 l 275 631 q 379 681 318 660 q 490 701 440 701 q 626 656 575 701 q 678 510 678 610 l 678 82 l 786 63 l 786 0 l 438 0 l 438 63 l 543 82 l 543 486 q 511 573 543 547 q 407 599 479 599 q 278 582 353 599 l 278 82 l 383 63 l 383 0 l 31 0 l 31 63 m 146 1164 q 214 1204 186 1204 q 269 1172 238 1204 l 418 1021 l 367 967 l 203 1079 l 42 968 l 1 1017 l 146 1164 z "},"ḥ":{"ha":810,"x_min":31,"x_max":786,"o":"m 31 0 m 31 63 l 143 82 l 143 856 l 31 876 l 31 940 l 239 971 l 278 957 l 278 650 l 274 639 l 275 631 q 379 681 318 660 q 490 701 440 701 q 626 656 575 701 q 678 510 678 610 l 678 82 l 786 63 l 786 0 l 438 0 l 438 63 l 543 82 l 543 486 q 511 573 543 547 q 407 599 479 599 q 278 582 353 599 l 278 82 l 383 63 l 383 0 l 31 0 l 31 63 m 400 -253 q 338 -227 361 -253 q 314 -160 314 -201 q 341 -90 314 -119 q 408 -60 368 -60 q 472 -84 447 -60 q 496 -150 496 -108 q 469 -223 496 -193 q 400 -253 443 -253 z "},"i":{"ha":414,"x_min":35,"x_max":386,"o":"m 196 786 q 133 812 157 786 q 110 879 110 838 q 137 950 110 921 q 204 979 164 979 q 267 955 243 979 q 292 889 292 931 q 265 816 292 846 q 196 786 239 786 m 35 63 l 146 82 l 146 569 l 35 590 l 35 654 l 243 692 l 281 676 l 281 82 l 386 63 l 386 0 l 35 0 l 35 63 z "},"ı":{"ha":414,"x_min":35,"x_max":386,"o":"m 35 63 l 146 82 l 146 569 l 35 590 l 35 654 l 243 692 l 281 676 l 281 82 l 386 63 l 386 0 l 35 0 l 35 63 z "},"í":{"ha":414,"x_min":35,"x_max":386,"o":"m 53 790 l 199 956 q 233 991 221 981 q 261 1001 246 1001 q 306 976 283 1001 q 338 906 329 950 l 94 743 l 53 790 m 35 0 l 35 63 l 146 82 l 146 569 l 35 590 l 35 654 l 243 692 l 281 676 l 281 82 l 386 63 l 386 0 l 35 0 z "},"ĭ":{"ha":414,"x_min":-1,"x_max":429,"o":"m 0 0 m 35 63 l 146 82 l 146 569 l 35 590 l 35 654 l 243 692 l 281 676 l 281 82 l 386 63 l 386 0 l 35 0 l 35 63 m 79 986 q 91 948 79 976 q 135 893 103 919 q 228 867 168 867 q 321 894 288 867 q 367 950 354 921 q 379 988 379 979 l 429 974 q 415 907 429 956 q 353 813 400 858 q 218 767 306 767 q 81 810 129 767 q 15 899 32 853 q -1 961 -1 946 l 79 986 z "},"ǐ":{"ha":414,"x_min":6,"x_max":421,"o":"m 6 0 m 35 63 l 146 82 l 146 569 l 35 590 l 35 654 l 243 692 l 281 676 l 281 82 l 386 63 l 386 0 l 35 0 l 35 63 m 211 753 q 138 803 188 753 l 6 933 l 57 988 l 222 872 l 383 989 l 421 939 l 286 803 q 244 765 261 778 q 211 753 226 753 z "},"î":{"ha":414,"x_min":-18,"x_max":386,"o":"m 97 933 q 144 981 124 963 q 179 999 165 999 q 213 980 192 999 q 254 938 235 961 l 368 814 l 319 763 l 174 868 l 19 765 l -18 810 l 97 933 m 35 63 l 146 82 l 146 569 l 35 590 l 35 654 l 243 692 l 281 676 l 281 82 l 386 63 l 386 0 l 35 0 l 35 63 z "},"ȉ":{"ha":414,"x_min":-68,"x_max":390,"o":"m 0 0 m 35 63 l 146 82 l 146 569 l 35 590 l 35 654 l 243 692 l 281 676 l 281 82 l 386 63 l 386 0 l 35 0 l 35 63 m 161 776 l 113 742 l -68 939 q -28 991 -50 974 q 11 1008 -7 1008 q 44 994 32 1008 q 65 964 57 981 q 78 940 74 947 l 161 776 m 390 776 l 340 742 l 160 939 q 200 991 178 974 q 240 1008 222 1008 q 274 994 261 1008 q 295 963 286 981 q 307 940 304 946 l 390 776 z "},"ï":{"ha":415,"x_min":-35,"x_max":390,"o":"m 44 790 q -12 815 10 790 q -35 876 -35 839 q -10 940 -35 914 q 51 967 14 967 q 109 944 88 967 q 131 885 131 922 q 107 818 131 846 q 44 790 83 790 m 304 790 q 247 815 269 790 q 225 876 225 839 q 249 940 225 914 q 311 967 274 967 q 369 944 347 967 q 390 885 390 922 q 367 818 390 846 q 304 790 343 790 m 36 0 l 36 63 l 147 82 l 147 569 l 36 590 l 36 654 l 244 692 l 282 676 l 282 82 l 388 63 l 388 0 l 36 0 z "},"ị":{"ha":414,"x_min":35,"x_max":386,"o":"m 35 0 m 196 786 q 133 812 157 786 q 110 879 110 838 q 137 950 110 921 q 204 979 164 979 q 267 955 243 979 q 292 889 292 931 q 265 816 292 846 q 196 786 239 786 m 35 63 l 146 82 l 146 569 l 35 590 l 35 654 l 243 692 l 281 676 l 281 82 l 386 63 l 386 0 l 35 0 l 35 63 m 208 -253 q 146 -227 169 -253 q 122 -160 122 -201 q 149 -90 122 -119 q 217 -60 176 -60 q 280 -84 256 -60 q 304 -150 304 -108 q 278 -223 304 -193 q 208 -253 251 -253 z "},"ì":{"ha":414,"x_min":25,"x_max":386,"o":"m 25 906 q 56 976 33 950 q 100 1001 78 1001 q 129 990 115 1001 q 164 956 143 979 l 310 790 l 267 743 l 25 906 m 35 63 l 146 82 l 146 569 l 35 590 l 35 654 l 243 692 l 281 676 l 281 82 l 386 63 l 386 0 l 35 0 l 35 63 z "},"ỉ":{"ha":414,"x_min":35,"x_max":386,"o":"m 35 0 m 35 63 l 146 82 l 146 569 l 35 590 l 35 654 l 243 692 l 281 676 l 281 82 l 386 63 l 386 0 l 35 0 l 35 63 m 175 744 q 161 789 161 775 q 174 818 161 806 q 215 846 186 831 q 250 870 240 860 q 260 896 260 881 q 244 922 260 914 q 196 931 229 931 q 113 919 157 931 q 96 967 96 944 q 115 1000 96 989 q 188 1011 135 1011 q 319 982 272 1011 q 367 899 367 953 q 348 847 367 869 q 290 806 329 825 q 256 785 264 793 q 249 763 249 776 q 250 754 249 757 l 175 744 z "},"ȋ":{"ha":414,"x_min":-1,"x_max":429,"o":"m 0 0 m 35 63 l 146 82 l 146 569 l 35 590 l 35 654 l 243 692 l 281 676 l 281 82 l 386 63 l 386 0 l 35 0 l 35 63 m 349 769 q 337 806 349 778 q 292 861 325 835 q 200 888 260 888 q 107 860 140 888 q 61 804 74 833 q 49 767 49 775 l -1 782 q 13 848 -1 800 q 75 942 28 896 q 210 988 122 988 q 347 944 299 988 q 413 856 396 901 q 429 794 429 810 l 349 769 z "},"ĳ":{"ha":788,"x_min":35,"x_max":689,"o":"m 35 0 m 196 786 q 133 812 157 786 q 110 879 110 838 q 137 950 110 921 q 204 979 164 979 q 267 955 243 979 q 292 889 292 931 q 265 816 292 846 q 196 786 239 786 m 35 63 l 146 82 l 146 569 l 35 590 l 35 654 l 243 692 l 281 676 l 281 82 l 386 63 l 386 0 l 35 0 l 35 63 m 593 786 q 531 812 554 786 q 507 879 507 838 q 534 950 507 921 q 601 979 561 979 q 665 955 640 979 q 689 889 689 931 q 663 816 689 846 q 593 786 636 786 m 526 -231 q 440 -223 481 -231 q 399 -214 399 -215 l 399 -156 l 547 -121 l 547 569 l 435 590 l 435 654 l 643 692 l 682 676 l 682 -114 q 642 -200 682 -169 q 526 -231 603 -231 z "},"ī":{"ha":414,"x_min":-37,"x_max":386,"o":"m -37 833 l -25 926 l 378 926 l 364 833 l -37 833 m 35 0 l 35 63 l 146 82 l 146 569 l 35 590 l 35 654 l 243 692 l 281 676 l 281 82 l 386 63 l 386 0 l 35 0 z "},"į":{"ha":414,"x_min":35,"x_max":432,"o":"m 197 786 q 135 812 158 786 q 111 879 111 838 q 138 950 111 921 q 206 979 165 979 q 269 955 244 979 q 293 889 293 931 q 267 816 293 846 q 197 786 240 786 m 146 82 l 146 569 l 35 590 l 35 654 l 243 692 l 281 676 l 281 82 l 386 63 l 386 0 l 347 0 q 271 -114 271 -60 q 328 -171 271 -171 q 404 -143 358 -171 l 432 -189 q 410 -209 432 -190 q 358 -244 389 -228 q 289 -260 326 -260 q 201 -233 235 -260 q 168 -157 168 -207 q 197 -67 168 -107 q 274 0 226 -28 l 35 0 l 35 63 l 146 82 z "},"ĩ":{"ha":414,"x_min":-31,"x_max":458,"o":"m 0 0 m 35 63 l 146 82 l 146 569 l 35 590 l 35 654 l 243 692 l 281 676 l 281 82 l 386 63 l 386 0 l 35 0 l 35 63 m 13 907 q 52 945 28 932 q 104 958 76 958 q 206 938 131 958 l 325 900 l 422 950 l 458 917 l 415 844 q 325 793 383 793 q 263 803 299 793 q 222 814 228 813 l 103 851 l 6 803 l -31 836 l 13 907 z "},"j":{"ha":374,"x_min":-15,"x_max":275,"o":"m 179 786 q 117 812 140 786 q 93 879 93 838 q 120 950 93 921 q 188 979 147 979 q 251 955 226 979 q 275 889 275 931 q 249 816 275 846 q 179 786 222 786 m 113 -231 q 26 -223 67 -231 q -15 -214 -15 -215 l -15 -156 l 133 -121 l 133 569 l 21 590 l 21 654 l 229 692 l 268 676 l 268 -114 q 228 -200 268 -169 q 113 -231 189 -231 z "},"ȷ":{"ha":374,"x_min":-15,"x_max":268,"o":"m 133 -121 l 133 569 l 21 590 l 21 654 l 229 692 l 268 676 l 268 -114 q 228 -200 268 -169 q 113 -231 189 -231 q 26 -223 67 -231 q -15 -214 -15 -215 l -15 -156 l 133 -121 z "},"ĵ":{"ha":374,"x_min":-15,"x_max":408,"o":"m 0 0 m 133 -121 l 133 569 l 21 590 l 21 654 l 229 692 l 268 676 l 268 -114 q 228 -200 268 -169 q 113 -231 189 -231 q 26 -223 67 -231 q -15 -214 -15 -215 l -15 -156 l 133 -121 m 136 950 q 204 990 176 990 q 260 958 228 990 l 408 807 l 357 753 l 193 865 l 32 754 l -8 803 l 136 950 z "},"k":{"ha":703,"x_min":25,"x_max":738,"o":"m 136 82 l 136 858 l 25 878 l 25 940 l 238 971 l 271 947 l 271 417 l 340 417 l 482 592 l 482 608 l 401 625 l 401 688 l 686 688 l 686 626 l 597 604 l 440 404 l 622 90 l 738 63 l 738 0 l 493 0 l 493 25 q 482 64 493 49 l 329 333 l 271 333 l 271 82 l 371 63 l 371 0 l 25 0 l 25 63 l 136 82 z "},"ķ":{"ha":701,"x_min":25,"x_max":738,"o":"m 136 82 l 136 858 l 25 878 l 25 940 l 238 971 l 271 947 l 271 417 l 340 417 l 482 592 l 482 608 l 401 626 l 401 688 l 686 688 l 686 625 l 597 604 l 440 404 l 622 90 l 738 63 l 738 0 l 493 0 l 493 25 q 482 64 493 49 l 329 333 l 271 333 l 271 82 l 371 63 l 371 0 l 25 0 l 25 63 l 136 82 m 331 -271 q 353 -154 353 -204 q 319 -72 353 -106 q 386 -37 350 -37 q 440 -60 422 -37 q 458 -114 458 -83 q 441 -190 458 -156 q 401 -249 424 -225 q 379 -271 379 -274 l 331 -271 z "},"ĸ":{"ha":711,"x_min":33,"x_max":747,"o":"m 144 82 l 144 569 l 33 590 l 33 654 l 242 692 l 279 676 l 279 417 l 350 417 l 490 592 l 490 608 l 410 625 l 410 688 l 694 688 l 694 626 l 607 604 l 449 404 l 631 90 l 747 63 l 747 0 l 501 0 l 501 25 q 490 64 501 49 l 338 333 l 279 333 l 279 82 l 381 63 l 381 0 l 35 0 l 35 63 l 144 82 z "},"l":{"ha":404,"x_min":24,"x_max":375,"o":"m 24 63 l 135 82 l 135 856 l 24 876 l 24 940 l 232 971 l 269 957 l 269 82 l 375 63 l 375 0 l 24 0 l 24 63 z "},"ĺ":{"ha":404,"x_min":0,"x_max":376,"o":"m 0 1000 l 186 1135 q 254 1168 238 1168 q 297 1137 282 1168 q 311 1060 313 1106 l 32 947 l 0 1000 m 26 0 l 26 63 l 138 82 l 138 856 l 25 876 l 25 940 l 235 971 l 272 957 l 272 82 l 376 63 l 376 0 l 26 0 z "},"ľ":{"ha":418,"x_min":25,"x_max":468,"o":"m 339 753 q 355 820 349 782 q 361 889 361 858 q 329 972 361 935 q 396 1003 357 1003 q 450 981 432 1003 q 468 928 468 958 q 450 857 468 896 q 413 790 432 818 q 388 753 393 761 l 339 753 m 25 0 l 25 63 l 136 82 l 136 856 l 25 876 l 25 940 l 233 971 l 271 957 l 271 82 l 376 63 l 376 0 l 25 0 z "},"ļ":{"ha":404,"x_min":25,"x_max":376,"o":"m 25 0 l 25 63 l 136 82 l 136 856 l 25 876 l 25 940 l 233 971 l 271 957 l 271 82 l 376 63 l 376 0 l 25 0 m 142 -271 q 164 -154 164 -204 q 131 -72 164 -103 q 197 -37 161 -37 q 251 -60 233 -37 q 269 -114 269 -83 q 252 -190 269 -156 q 213 -249 235 -225 q 190 -271 190 -274 l 142 -271 z "},"ŀ":{"ha":404,"x_min":24,"x_max":489,"o":"m 24 0 m 24 63 l 135 82 l 135 856 l 24 876 l 24 940 l 232 971 l 269 957 l 269 82 l 375 63 l 375 0 l 24 0 l 24 63 m 396 410 q 335 435 358 410 q 311 501 311 461 q 338 571 311 542 q 404 600 364 600 q 466 576 443 600 q 489 511 489 553 q 464 440 489 469 q 396 410 439 410 z "},"ǉ":{"ha":778,"x_min":24,"x_max":679,"o":"m 24 0 m 24 63 l 135 82 l 135 856 l 24 876 l 24 940 l 232 971 l 269 957 l 269 82 l 375 63 l 375 0 l 24 0 l 24 63 m 583 786 q 521 812 544 786 q 497 879 497 838 q 524 950 497 921 q 592 979 551 979 q 655 955 631 979 q 679 889 679 931 q 653 816 679 846 q 583 786 626 786 m 517 -231 q 430 -223 471 -231 q 389 -214 389 -215 l 389 -156 l 538 -121 l 538 569 l 425 590 l 425 654 l 633 692 l 672 676 l 672 -114 q 633 -200 672 -169 q 517 -231 593 -231 z "},"ł":{"ha":407,"x_min":7,"x_max":403,"o":"m 28 63 l 139 82 l 139 421 l 7 374 l 7 456 l 139 504 l 139 856 l 26 876 l 26 940 l 235 971 l 274 957 l 274 554 l 403 603 l 403 515 l 274 469 l 274 82 l 378 63 l 378 0 l 28 0 l 28 63 z "},"m":{"ha":1199,"x_min":32,"x_max":1176,"o":"m 33 63 l 144 82 l 144 571 l 32 593 l 32 654 l 238 692 l 279 632 q 386 682 328 663 q 489 701 444 701 q 583 681 540 701 q 649 626 626 661 q 758 679 688 657 q 883 701 829 701 q 1017 651 967 701 q 1068 518 1068 601 l 1068 82 l 1176 63 l 1176 0 l 828 0 l 828 63 l 933 82 l 933 485 q 905 573 933 547 q 804 599 876 599 q 738 593 778 599 q 671 581 699 588 q 672 538 672 565 l 672 82 l 764 63 l 764 0 l 444 0 l 444 63 l 538 82 l 538 485 q 510 574 538 549 q 410 599 482 599 q 279 579 357 599 l 279 82 l 385 63 l 385 0 l 33 0 l 33 63 z "},"n":{"ha":811,"x_min":35,"x_max":788,"o":"m 35 63 l 144 82 l 144 569 l 35 590 l 35 654 l 251 692 l 271 639 l 275 633 q 372 679 310 656 q 493 703 435 703 q 631 653 583 703 q 679 510 679 603 l 679 82 l 788 63 l 788 0 l 440 0 l 440 63 l 544 82 l 544 486 q 514 572 544 546 q 410 597 483 597 q 279 582 336 597 l 279 82 l 385 63 l 385 0 l 35 0 l 35 63 z "},"ń":{"ha":811,"x_min":35,"x_max":788,"o":"m 282 790 l 428 956 q 463 990 449 979 q 492 1001 476 1001 q 536 976 514 1001 q 567 906 558 950 l 324 743 l 282 790 m 35 63 l 144 82 l 144 569 l 35 590 l 35 654 l 251 692 l 271 639 l 275 633 q 372 679 310 656 q 493 703 435 703 q 631 653 583 703 q 679 510 679 603 l 679 82 l 788 63 l 788 0 l 440 0 l 440 63 l 544 82 l 544 486 q 514 572 544 546 q 410 597 483 597 q 279 582 336 597 l 279 82 l 385 63 l 385 0 l 35 0 l 35 63 z "},"ŉ":{"ha":833,"x_min":14,"x_max":788,"o":"m 14 0 m 22 753 q 38 820 32 782 q 44 889 44 858 q 14 972 44 935 q 79 1003 39 1003 q 134 981 115 1003 q 153 928 153 958 q 135 857 153 896 q 97 790 117 818 q 72 753 78 761 l 22 753 m 35 63 l 144 82 l 144 569 l 35 590 l 35 654 l 251 692 l 271 639 l 275 633 q 372 679 310 656 q 493 703 435 703 q 631 653 583 703 q 679 510 679 603 l 679 82 l 788 63 l 788 0 l 440 0 l 440 63 l 544 82 l 544 486 q 514 572 544 546 q 410 597 483 597 q 279 582 336 597 l 279 82 l 385 63 l 385 0 l 35 0 l 35 63 z "},"ň":{"ha":811,"x_min":35,"x_max":788,"o":"m 397 753 q 324 803 374 753 l 192 933 l 243 988 l 407 872 l 569 989 l 607 939 l 471 803 q 430 765 447 778 q 397 753 413 753 m 35 63 l 144 82 l 144 569 l 35 590 l 35 654 l 251 692 l 271 639 l 275 633 q 372 679 310 656 q 493 703 435 703 q 631 653 583 703 q 679 510 679 603 l 679 82 l 788 63 l 788 0 l 440 0 l 440 63 l 544 82 l 544 486 q 514 572 544 546 q 410 597 483 597 q 279 582 336 597 l 279 82 l 385 63 l 385 0 l 35 0 l 35 63 z "},"ņ":{"ha":811,"x_min":35,"x_max":788,"o":"m 35 63 l 144 82 l 144 569 l 35 590 l 35 654 l 251 692 l 271 639 l 275 633 q 372 679 310 656 q 493 703 435 703 q 631 653 583 703 q 679 510 679 603 l 679 82 l 788 63 l 788 0 l 440 0 l 440 63 l 544 82 l 544 486 q 514 572 544 546 q 410 597 483 597 q 279 582 336 597 l 279 82 l 385 63 l 385 0 l 35 0 l 35 63 m 354 -271 q 376 -154 376 -204 q 343 -72 376 -103 q 411 -37 374 -37 q 465 -60 447 -37 q 483 -114 483 -83 q 465 -190 483 -156 q 425 -249 447 -225 q 403 -271 403 -274 l 354 -271 z "},"ṅ":{"ha":811,"x_min":35,"x_max":788,"o":"m 35 0 m 35 63 l 144 82 l 144 569 l 35 590 l 35 654 l 251 692 l 271 639 l 275 633 q 372 679 310 656 q 493 703 435 703 q 631 653 583 703 q 679 510 679 603 l 679 82 l 788 63 l 788 0 l 440 0 l 440 63 l 544 82 l 544 486 q 514 572 544 546 q 410 597 483 597 q 279 582 336 597 l 279 82 l 385 63 l 385 0 l 35 0 l 35 63 m 400 786 q 338 812 361 786 q 314 879 314 838 q 341 950 314 921 q 408 979 368 979 q 472 955 447 979 q 496 889 496 931 q 469 816 496 846 q 400 786 443 786 z "},"ŋ":{"ha":778,"x_min":35,"x_max":679,"o":"m 525 -231 q 397 -214 454 -231 l 397 -156 l 544 -121 l 544 486 q 514 572 544 546 q 410 597 483 597 q 279 582 336 597 l 279 82 l 385 63 l 385 0 l 35 0 l 35 63 l 144 82 l 144 569 l 35 590 l 35 654 l 251 692 l 272 638 l 275 633 q 372 679 310 656 q 493 703 435 703 q 631 653 583 703 q 679 510 679 603 l 679 -114 q 639 -200 679 -169 q 525 -231 599 -231 z "},"ɲ":{"ha":800,"x_min":-15,"x_max":776,"o":"m 113 -231 q 46 -226 82 -231 q -15 -214 10 -221 l -15 -156 l 133 -121 l 133 569 l 22 590 l 22 654 l 239 692 l 260 636 l 263 633 q 362 680 300 657 q 481 703 424 703 q 619 653 571 703 q 668 510 668 603 l 668 82 l 776 63 l 776 0 l 428 0 l 428 63 l 533 82 l 533 486 q 502 572 533 546 q 397 597 471 597 q 268 582 322 597 l 268 -114 q 228 -201 268 -171 q 113 -231 188 -231 z "},"ǌ":{"ha":1185,"x_min":35,"x_max":1086,"o":"m 35 0 m 35 63 l 144 82 l 144 569 l 35 590 l 35 654 l 251 692 l 271 639 l 275 633 q 372 679 310 656 q 493 703 435 703 q 631 653 583 703 q 679 510 679 603 l 679 82 l 788 63 l 788 0 l 440 0 l 440 63 l 544 82 l 544 486 q 514 572 544 546 q 410 597 483 597 q 279 582 336 597 l 279 82 l 385 63 l 385 0 l 35 0 l 35 63 m 990 786 q 928 812 951 786 q 904 879 904 838 q 931 950 904 921 q 999 979 958 979 q 1062 955 1038 979 q 1086 889 1086 931 q 1060 816 1086 846 q 990 786 1033 786 m 924 -231 q 837 -223 878 -231 q 796 -214 796 -215 l 796 -156 l 944 -121 l 944 569 l 832 590 l 832 654 l 1040 692 l 1079 676 l 1079 -114 q 1040 -200 1079 -169 q 924 -231 1000 -231 z "},"ñ":{"ha":811,"x_min":35,"x_max":788,"o":"m 508 800 q 461 806 489 800 q 407 821 433 813 l 286 858 l 189 810 l 153 842 l 197 914 q 235 952 211 939 q 289 965 260 965 q 390 944 315 965 l 508 907 l 606 957 l 642 924 l 599 851 q 560 813 585 826 q 508 800 536 800 m 35 63 l 144 82 l 144 569 l 35 590 l 35 654 l 251 692 l 271 639 l 275 633 q 372 679 310 656 q 493 703 435 703 q 631 653 583 703 q 679 510 679 603 l 679 82 l 788 63 l 788 0 l 440 0 l 440 63 l 544 82 l 544 486 q 514 572 544 546 q 410 597 483 597 q 279 582 336 597 l 279 82 l 385 63 l 385 0 l 35 0 l 35 63 z "},"o":{"ha":704,"x_min":35,"x_max":667,"o":"m 336 -15 q 110 77 186 -15 q 35 333 35 169 q 73 517 35 433 q 185 652 111 601 q 364 703 260 703 q 590 613 514 703 q 667 365 667 522 q 631 172 667 258 q 520 35 594 86 q 336 -15 446 -15 m 363 74 q 486 140 453 74 q 519 340 519 206 q 483 548 519 485 q 353 611 447 611 q 245 581 282 611 q 195 494 208 551 q 182 340 182 436 q 221 139 182 204 q 363 74 260 74 z "},"ó":{"ha":732,"x_min":51,"x_max":683,"o":"m 397 956 q 432 991 419 981 q 460 1001 444 1001 q 505 976 482 1001 q 536 906 528 950 l 293 743 l 251 790 l 397 956 m 353 -15 q 127 77 203 -15 q 51 333 51 169 q 90 517 51 433 q 202 652 128 601 q 381 703 276 703 q 607 613 531 703 q 683 365 683 522 q 647 172 683 258 q 537 35 611 86 q 353 -15 463 -15 m 379 74 q 503 140 469 74 q 536 340 536 206 q 500 548 536 485 q 369 611 464 611 q 262 581 299 611 q 212 494 225 551 q 199 340 199 436 q 238 139 199 204 q 379 74 276 74 z "},"ŏ":{"ha":704,"x_min":35,"x_max":667,"o":"m 35 0 m 336 -15 q 110 77 186 -15 q 35 333 35 169 q 73 517 35 433 q 185 652 111 601 q 364 703 260 703 q 590 613 514 703 q 667 365 667 522 q 631 172 667 258 q 520 35 594 86 q 336 -15 446 -15 m 363 74 q 486 140 453 74 q 519 340 519 206 q 483 548 519 485 q 353 611 447 611 q 245 581 282 611 q 195 494 208 551 q 182 340 182 436 q 221 139 182 204 q 363 74 260 74 m 218 986 q 230 948 218 976 q 274 893 242 919 q 367 867 307 867 q 460 894 426 867 q 506 950 493 921 q 518 988 518 979 l 568 974 q 553 907 568 956 q 492 813 539 858 q 357 767 444 767 q 219 810 268 767 q 154 899 171 853 q 138 961 138 946 l 218 986 z "},"ǒ":{"ha":704,"x_min":35,"x_max":667,"o":"m 35 0 m 336 -15 q 110 77 186 -15 q 35 333 35 169 q 73 517 35 433 q 185 652 111 601 q 364 703 260 703 q 590 613 514 703 q 667 365 667 522 q 631 172 667 258 q 520 35 594 86 q 336 -15 446 -15 m 363 74 q 486 140 453 74 q 519 340 519 206 q 483 548 519 485 q 353 611 447 611 q 245 581 282 611 q 195 494 208 551 q 182 340 182 436 q 221 139 182 204 q 363 74 260 74 m 350 753 q 276 803 326 753 l 144 933 l 196 988 l 361 872 l 522 989 l 560 939 l 425 803 q 383 765 400 778 q 350 753 365 753 z "},"ô":{"ha":732,"x_min":51,"x_max":683,"o":"m 310 950 q 378 990 350 990 q 435 958 403 990 l 582 807 l 532 753 l 367 865 l 206 754 l 165 803 l 310 950 m 353 -15 q 127 77 203 -15 q 51 333 51 169 q 90 517 51 433 q 202 652 128 601 q 381 703 276 703 q 607 613 531 703 q 683 365 683 522 q 647 172 683 258 q 537 35 611 86 q 353 -15 463 -15 m 379 74 q 503 140 469 74 q 536 340 536 206 q 500 548 536 485 q 369 611 464 611 q 262 581 299 611 q 212 494 225 551 q 199 340 199 436 q 238 139 199 204 q 379 74 276 74 z "},"ố":{"ha":704,"x_min":35,"x_max":708,"o":"m 35 0 m 336 -15 q 110 77 186 -15 q 35 333 35 169 q 73 517 35 433 q 185 652 111 601 q 364 703 260 703 q 590 613 514 703 q 667 365 667 522 q 631 172 667 258 q 520 35 594 86 q 336 -15 446 -15 m 363 74 q 486 140 453 74 q 519 340 519 206 q 483 548 519 485 q 353 611 447 611 q 245 581 282 611 q 195 494 208 551 q 182 340 182 436 q 221 139 182 204 q 363 74 260 74 m 251 950 q 319 990 292 990 q 375 958 343 990 l 524 807 l 472 753 l 308 865 l 147 754 l 107 803 l 251 950 m 569 1136 q 604 1171 590 1160 q 633 1182 618 1182 q 678 1156 656 1182 q 708 1086 700 1131 l 465 924 l 424 971 l 569 1136 z "},"ộ":{"ha":704,"x_min":35,"x_max":667,"o":"m 35 0 m 336 -15 q 110 77 186 -15 q 35 333 35 169 q 73 517 35 433 q 185 652 111 601 q 364 703 260 703 q 590 613 514 703 q 667 365 667 522 q 631 172 667 258 q 520 35 594 86 q 336 -15 446 -15 m 363 74 q 486 140 453 74 q 519 340 519 206 q 483 548 519 485 q 353 611 447 611 q 245 581 282 611 q 195 494 208 551 q 182 340 182 436 q 221 139 182 204 q 363 74 260 74 m 347 -253 q 285 -227 308 -253 q 261 -160 261 -201 q 288 -90 261 -119 q 356 -60 315 -60 q 419 -84 394 -60 q 443 -150 443 -108 q 417 -223 443 -193 q 347 -253 390 -253 m 289 950 q 357 990 329 990 q 413 958 381 990 l 561 807 l 510 753 l 346 865 l 185 754 l 144 803 l 289 950 z "},"ồ":{"ha":704,"x_min":35,"x_max":667,"o":"m 35 0 m 336 -15 q 110 77 186 -15 q 35 333 35 169 q 73 517 35 433 q 185 652 111 601 q 364 703 260 703 q 590 613 514 703 q 667 365 667 522 q 631 172 667 258 q 520 35 594 86 q 336 -15 446 -15 m 363 74 q 486 140 453 74 q 519 340 519 206 q 483 548 519 485 q 353 611 447 611 q 245 581 282 611 q 195 494 208 551 q 182 340 182 436 q 221 139 182 204 q 363 74 260 74 m 271 950 q 339 990 311 990 q 394 958 363 990 l 543 807 l 492 753 l 328 865 l 167 754 l 126 803 l 271 950 m 294 1086 q 325 1156 303 1131 q 369 1182 347 1182 q 399 1171 385 1182 q 433 1136 413 1160 l 579 971 l 538 924 l 294 1086 z "}}}
